SplineFontDB: 3.2
FontName: FontAwesome
FullName: FontAwesome
FamilyName: FontAwesome
Weight: Regular
Copyright: Copyright 2014 Adobe Systems Incorporated. All rights reserved.
Version: 001.001
ItalicAngle: 0
UnderlinePosition: -179
UnderlineWidth: 90
Ascent: 1536
Descent: 256
InvalidEm: 0
sfntRevision: 0x00040042
LayerCount: 2
Layer: 0 0 "Back" 1
Layer: 1 0 "Fore" 0
XUID: [1021 183 -463623817 13270380]
StyleMap: 0x0040
FSType: 0
OS2Version: 3
OS2_WeightWidthSlopeOnly: 0
OS2_UseTypoMetrics: 0
CreationTime: 1328464800
ModificationTime: 1603932205
PfmFamily: 81
TTFWeight: 400
TTFWidth: 5
LineGap: 0
VLineGap: 0
Panose: 0 0 0 0 0 0 0 0 0 0
OS2TypoAscent: 1536
OS2TypoAOffset: 0
OS2TypoDescent: -256
OS2TypoDOffset: 0
OS2TypoLinegap: 0
OS2WinAscent: 1408
OS2WinAOffset: 0
OS2WinDescent: 399
OS2WinDOffset: 0
HheadAscent: 1536
HheadAOffset: 0
HheadDescent: -256
HheadDOffset: 0
OS2SubXSize: 1164
OS2SubYSize: 1075
OS2SubXOff: 0
OS2SubYOff: 134
OS2SupXSize: 1164
OS2SupYSize: 1075
OS2SupXOff: 0
OS2SupYOff: 627
OS2StrikeYSize: 90
OS2StrikeYPos: 1075
OS2CapHeight: 1792
OS2XHeight: 1792
OS2Vendor: 'pyrs'
OS2CodePages: 00000001.00000000
OS2UnicodeRanges: 00000000.00000000.00000000.00000000
DEI: 91125
LangName: 1033 "" "" "" "pyrs: FontAwesome: 2012" "" "Version 4.1.0 2013" "" "Please refer to the Copyright section for the font trademark attribution notices." "Fort Awesome" "Dave Gandy" "" "http://fontawesome.io" "" "" "http://fontawesome.io/license/"
Encoding: UnicodeBmp
UnicodeInterp: none
NameList: AGL For New Fonts
DisplaySize: -48
AntiAlias: 1
FitToEm: 0
WinInfo: 61824 16 4
BeginPrivate: 3
BlueValues 17 [-27 0 1344 1371]
StdVW 5 [128]
StemSnapV 9 [128 256]
EndPrivate
BeginChars: 65551 479

StartChar: asterisk
Encoding: 61545 61545 2
Width: 1664
Flags: MW
VStem: 118 1428
LayerCount: 2
Fore
SplineSet
1482 486 m 2
 1543 451 1564 372 1529 311 c 2
 1465 201 l 2
 1430 140 1351 119 1290 154 c 2
 1024 307 l 1
 1024 0 l 2
 1024 -70 966 -128 896 -128 c 2
 768 -128 l 2
 698 -128 640 -70 640 0 c 2
 640 307 l 1
 374 154 l 2
 313 119 234 140 199 201 c 2
 135 311 l 2
 100 372 121 451 182 486 c 2
 448 640 l 1
 182 794 l 2
 121 829 100 908 135 969 c 2
 199 1079 l 2
 234 1140 313 1161 374 1126 c 2
 640 973 l 1
 640 1280 l 2
 640 1350 698 1408 768 1408 c 2
 896 1408 l 2
 966 1408 1024 1350 1024 1280 c 2
 1024 973 l 1
 1290 1126 l 2
 1351 1161 1430 1140 1465 1079 c 2
 1529 969 l 2
 1564 908 1543 829 1482 794 c 2
 1216 640 l 1
 1482 486 l 2
EndSplineSet
EndChar

StartChar: plus
Encoding: 61543 61543 3
Width: 1408
Flags: MW
VStem: 0 1408<608 800 581.5 826.5>
LayerCount: 2
Fore
SplineSet
1408 800 m 2
 1408 608 l 2
 1408 555 1365 512 1312 512 c 2
 896 512 l 1
 896 96 l 2
 896 43 853 0 800 0 c 2
 608 0 l 2
 555 0 512 43 512 96 c 2
 512 512 l 1
 96 512 l 2
 43 512 0 555 0 608 c 2
 0 800 l 2
 0 853 43 896 96 896 c 2
 512 896 l 1
 512 1312 l 2
 512 1365 555 1408 608 1408 c 2
 800 1408 l 2
 853 1408 896 1365 896 1312 c 2
 896 896 l 1
 1312 896 l 2
 1365 896 1408 853 1408 800 c 2
EndSplineSet
EndChar

StartChar: question
Encoding: 61736 61736 4
Width: 1024
Flags: MW
VStem: 384 320<40 280 29 291>
LayerCount: 2
Fore
SplineSet
704 280 m 2
 704 40 l 2
 704 18 686 0 664 0 c 2
 424 0 l 2
 402 0 384 18 384 40 c 2
 384 280 l 2
 384 302 402 320 424 320 c 2
 664 320 l 2
 686 320 704 302 704 280 c 2
1020 880 m 0
 1020 690 891 617 796 564 c 0
 737 530 700 461 700 432 c 1
 700 432 l 1
 700 410 683 384 660 384 c 2
 420 384 l 2
 398 384 384 418 384 440 c 2
 384 485 l 2
 384 606 504 710 592 750 c 0
 669 785 701 818 701 882 c 0
 701 938 628 988 547 988 c 0
 502 988 461 974 439 959 c 0
 415 942 391 918 332 844 c 0
 324 834 312 828 301 828 c 0
 292 828 284 831 276 836 c 2
 112 961 l 2
 95 974 91 996 102 1014 c 0
 210 1193 362 1280 566 1280 c 0
 780 1280 1020 1109 1020 880 c 0
EndSplineSet
EndChar

StartChar: minus
Encoding: 61544 61544 11
Width: 1408
Flags: MW
VStem: 0 1408<608 800 581.5 826.5>
LayerCount: 2
Fore
SplineSet
1408 800 m 2
 1408 608 l 2
 1408 555 1365 512 1312 512 c 2
 96 512 l 2
 43 512 0 555 0 608 c 2
 0 800 l 2
 0 853 43 896 96 896 c 2
 1312 896 l 2
 1365 896 1408 853 1408 800 c 2
EndSplineSet
EndChar

StartChar: glass
Encoding: 61440 61440 13
Width: 1792
Flags: MW
VStem: 768 256<-128 640 -128 640>
LayerCount: 2
Fore
SplineSet
1699 1350 m 0
 1699 1321 1676 1292 1656 1272 c 2
 1024 640 l 1
 1024 -128 l 1
 1344 -128 l 2
 1379 -128 1408 -157 1408 -192 c 0
 1408 -227 1379 -256 1344 -256 c 2
 448 -256 l 2
 413 -256 384 -227 384 -192 c 0
 384 -157 413 -128 448 -128 c 2
 768 -128 l 1
 768 640 l 1
 136 1272 l 2
 116 1292 93 1321 93 1350 c 0
 93 1399 155 1408 192 1408 c 2
 1600 1408 l 2
 1637 1408 1699 1399 1699 1350 c 0
EndSplineSet
EndChar

StartChar: music
Encoding: 61441 61441 14
Width: 1536
Flags: MW
VStem: 512 128<89 645> 1408 128<345 882 882 882>
LayerCount: 2
Fore
SplineSet
1536 1312 m 2
 1536 192 l 2
 1536 51 1325 0 1216 0 c 0
 1107 0 896 51 896 192 c 0
 896 333 1107 384 1216 384 c 0
 1282 384 1348 372 1408 345 c 1
 1408 882 l 1
 640 645 l 1
 640 -64 l 2
 640 -205 429 -256 320 -256 c 0
 211 -256 0 -205 0 -64 c 0
 0 77 211 128 320 128 c 0
 386 128 452 116 512 89 c 1
 512 1056 l 2
 512 1098 540 1135 580 1148 c 2
 1412 1404 l 2
 1421 1407 1430 1408 1440 1408 c 0
 1493 1408 1536 1365 1536 1312 c 2
EndSplineSet
EndChar

StartChar: search
Encoding: 61442 61442 15
Width: 1664
Flags: MW
VStem: 0 256<580.5 827.5 580.5 898.5> 1152 256<633 827.5>
LayerCount: 2
Fore
SplineSet
1152 704 m 0
 1152 951 951 1152 704 1152 c 0
 457 1152 256 951 256 704 c 0
 256 457 457 256 704 256 c 0
 951 256 1152 457 1152 704 c 0
1664 -128 m 0
 1664 -198 1606 -256 1536 -256 c 0
 1502 -256 1469 -242 1446 -218 c 2
 1103 124 l 1
 986 43 846 0 704 0 c 0
 315 0 0 315 0 704 c 0
 0 1093 315 1408 704 1408 c 0
 1093 1408 1408 1093 1408 704 c 0
 1408 562 1365 422 1284 305 c 1
 1627 -38 l 2
 1650 -61 1664 -94 1664 -128 c 0
EndSplineSet
EndChar

StartChar: envelope
Encoding: 61443 61443 16
Width: 1792
Flags: MW
VStem: 0 128<32 800 1063 1120 1120 1128.5> 1664 128<32 800 800 800 1040.5 1095.5>
LayerCount: 2
Fore
SplineSet
1664 32 m 2
 1664 800 l 1
 1643 776 1620 754 1595 734 c 0
 1452 624 1308 512 1169 396 c 0
 1094 333 1001 256 897 256 c 2
 896 256 l 1
 895 256 l 2
 791 256 698 333 623 396 c 0
 484 512 340 624 197 734 c 0
 172 754 149 776 128 800 c 1
 128 32 l 2
 128 15 143 0 160 0 c 2
 1632 0 l 2
 1649 0 1664 15 1664 32 c 2
1664 1083 m 0
 1664 1108 1670 1152 1632 1152 c 2
 160 1152 l 2
 143 1152 128 1137 128 1120 c 0
 128 1006 185 907 275 836 c 0
 409 731 543 625 676 519 c 0
 729 476 825 384 895 384 c 2
 896 384 l 1
 897 384 l 2
 967 384 1063 476 1116 519 c 0
 1249 625 1383 731 1517 836 c 0
 1582 887 1664 998 1664 1083 c 0
1792 1120 m 2
 1792 32 l 2
 1792 -56 1720 -128 1632 -128 c 2
 160 -128 l 2
 72 -128 0 -56 0 32 c 2
 0 1120 l 2
 0 1208 72 1280 160 1280 c 2
 1632 1280 l 2
 1720 1280 1792 1208 1792 1120 c 2
EndSplineSet
EndChar

StartChar: heart
Encoding: 61444 61444 17
Width: 1792
Flags: MW
VStem: 0 1792<820 1086.5>
LayerCount: 2
Fore
SplineSet
896 -128 m 0
 880 -128 864 -122 852 -110 c 2
 228 492 l 2
 220 499 0 700 0 940 c 0
 0 1233 179 1408 478 1408 c 0
 653 1408 817 1270 896 1192 c 1
 975 1270 1139 1408 1314 1408 c 0
 1613 1408 1792 1233 1792 940 c 0
 1792 700 1572 499 1563 490 c 2
 940 -110 l 2
 928 -122 912 -128 896 -128 c 0
EndSplineSet
EndChar

StartChar: star
Encoding: 61445 61445 18
Width: 1664
Flags: MW
VStem: 0 1664<880 904>
LayerCount: 2
Fore
SplineSet
1664 889 m 0
 1664 871 1651 854 1638 841 c 2
 1275 487 l 1
 1361 -13 l 2
 1362 -20 1362 -26 1362 -33 c 0
 1362 -59 1350 -83 1321 -83 c 0
 1307 -83 1293 -78 1281 -71 c 2
 832 165 l 1
 383 -71 l 2
 370 -78 357 -83 343 -83 c 0
 314 -83 301 -59 301 -33 c 0
 301 -26 302 -20 303 -13 c 2
 389 487 l 1
 25 841 l 2
 13 854 0 871 0 889 c 0
 0 919 31 931 56 935 c 2
 558 1008 l 1
 783 1463 l 2
 792 1482 809 1504 832 1504 c 0
 855 1504 872 1482 881 1463 c 2
 1106 1008 l 1
 1608 935 l 2
 1632 931 1664 919 1664 889 c 0
EndSplineSet
EndChar

StartChar: star_empty
Encoding: 61446 61446 19
Width: 1664
Flags: MW
VStem: 0 1664<880 904>
LayerCount: 2
Fore
SplineSet
1137 532 m 1
 1443 829 l 1
 1021 891 l 1
 832 1273 l 1
 643 891 l 1
 221 829 l 1
 527 532 l 1
 454 111 l 1
 832 310 l 1
 1209 111 l 1
 1137 532 l 1
1664 889 m 0
 1664 871 1651 854 1638 841 c 2
 1275 487 l 1
 1361 -13 l 2
 1362 -20 1362 -26 1362 -33 c 0
 1362 -60 1350 -83 1321 -83 c 0
 1307 -83 1293 -78 1281 -71 c 2
 832 165 l 1
 383 -71 l 2
 370 -78 357 -83 343 -83 c 0
 314 -83 301 -59 301 -33 c 0
 301 -26 302 -20 303 -13 c 2
 389 487 l 1
 25 841 l 2
 13 854 0 871 0 889 c 0
 0 919 31 931 56 935 c 2
 558 1008 l 1
 783 1463 l 2
 792 1482 809 1504 832 1504 c 0
 855 1504 872 1482 881 1463 c 2
 1106 1008 l 1
 1608 935 l 2
 1632 931 1664 919 1664 889 c 0
EndSplineSet
EndChar

StartChar: user
Encoding: 61447 61447 20
Width: 1408
Flags: MW
VStem: 0 1408<50 244>
LayerCount: 2
Fore
SplineSet
1408 131 m 0
 1408 -31 1300 -128 1141 -128 c 2
 267 -128 l 2
 108 -128 0 -31 0 131 c 0
 0 357 53 704 346 704 c 0
 377 704 508 565 704 565 c 0
 900 565 1031 704 1062 704 c 0
 1355 704 1408 357 1408 131 c 0
1088 1024 m 0
 1088 812 916 640 704 640 c 0
 492 640 320 812 320 1024 c 0
 320 1236 492 1408 704 1408 c 0
 916 1408 1088 1236 1088 1024 c 0
EndSplineSet
EndChar

StartChar: film
Encoding: 61448 61448 21
Width: 1920
Flags: MW
VStem: 0 128<-81.5 -64 -64 64 302.5 320 320 448 686.5 704 704 832 1070.5 1088 1088 1216> 384 128<-64 64 64 81.5 320 448 704 832 832 849.5 1088 1216> 1408 128<-64 64 302.5 320 320 448 704 832 1070.5 1088 1088 1216> 1792 128<-64 64 64 81.5 320 448 448 465.5 704 832 832 849.5 1088 1216 1216 1233.5>
LayerCount: 2
Fore
SplineSet
384 -64 m 2
 384 64 l 2
 384 99 355 128 320 128 c 2
 192 128 l 2
 157 128 128 99 128 64 c 2
 128 -64 l 2
 128 -99 157 -128 192 -128 c 2
 320 -128 l 2
 355 -128 384 -99 384 -64 c 2
384 320 m 2
 384 448 l 2
 384 483 355 512 320 512 c 2
 192 512 l 2
 157 512 128 483 128 448 c 2
 128 320 l 2
 128 285 157 256 192 256 c 2
 320 256 l 2
 355 256 384 285 384 320 c 2
384 704 m 2
 384 832 l 2
 384 867 355 896 320 896 c 2
 192 896 l 2
 157 896 128 867 128 832 c 2
 128 704 l 2
 128 669 157 640 192 640 c 2
 320 640 l 2
 355 640 384 669 384 704 c 2
1408 -64 m 2
 1408 448 l 2
 1408 483 1379 512 1344 512 c 2
 576 512 l 2
 541 512 512 483 512 448 c 2
 512 -64 l 2
 512 -99 541 -128 576 -128 c 2
 1344 -128 l 2
 1379 -128 1408 -99 1408 -64 c 2
384 1088 m 2
 384 1216 l 2
 384 1251 355 1280 320 1280 c 2
 192 1280 l 2
 157 1280 128 1251 128 1216 c 2
 128 1088 l 2
 128 1053 157 1024 192 1024 c 2
 320 1024 l 2
 355 1024 384 1053 384 1088 c 2
1792 -64 m 2
 1792 64 l 2
 1792 99 1763 128 1728 128 c 2
 1600 128 l 2
 1565 128 1536 99 1536 64 c 2
 1536 -64 l 2
 1536 -99 1565 -128 1600 -128 c 2
 1728 -128 l 2
 1763 -128 1792 -99 1792 -64 c 2
1408 704 m 2
 1408 1216 l 2
 1408 1251 1379 1280 1344 1280 c 2
 576 1280 l 2
 541 1280 512 1251 512 1216 c 2
 512 704 l 2
 512 669 541 640 576 640 c 2
 1344 640 l 2
 1379 640 1408 669 1408 704 c 2
1792 320 m 2
 1792 448 l 2
 1792 483 1763 512 1728 512 c 2
 1600 512 l 2
 1565 512 1536 483 1536 448 c 2
 1536 320 l 2
 1536 285 1565 256 1600 256 c 2
 1728 256 l 2
 1763 256 1792 285 1792 320 c 2
1792 704 m 2
 1792 832 l 2
 1792 867 1763 896 1728 896 c 2
 1600 896 l 2
 1565 896 1536 867 1536 832 c 2
 1536 704 l 2
 1536 669 1565 640 1600 640 c 2
 1728 640 l 2
 1763 640 1792 669 1792 704 c 2
1792 1088 m 2
 1792 1216 l 2
 1792 1251 1763 1280 1728 1280 c 2
 1600 1280 l 2
 1565 1280 1536 1251 1536 1216 c 2
 1536 1088 l 2
 1536 1053 1565 1024 1600 1024 c 2
 1728 1024 l 2
 1763 1024 1792 1053 1792 1088 c 2
1920 1248 m 2
 1920 -96 l 2
 1920 -184 1848 -256 1760 -256 c 2
 160 -256 l 2
 72 -256 0 -184 0 -96 c 2
 0 1248 l 2
 0 1336 72 1408 160 1408 c 2
 1760 1408 l 2
 1848 1408 1920 1336 1920 1248 c 2
EndSplineSet
EndChar

StartChar: th_large
Encoding: 61449 61449 22
Width: 1664
Flags: MW
VStem: 0 1664<128 512 93 547 896 1280 93 1315>
LayerCount: 2
Fore
SplineSet
768 512 m 2
 768 128 l 2
 768 58 710 0 640 0 c 2
 128 0 l 2
 58 0 0 58 0 128 c 2
 0 512 l 2
 0 582 58 640 128 640 c 2
 640 640 l 2
 710 640 768 582 768 512 c 2
768 1280 m 2
 768 896 l 2
 768 826 710 768 640 768 c 2
 128 768 l 2
 58 768 0 826 0 896 c 2
 0 1280 l 2
 0 1350 58 1408 128 1408 c 2
 640 1408 l 2
 710 1408 768 1350 768 1280 c 2
1664 512 m 2
 1664 128 l 2
 1664 58 1606 0 1536 0 c 2
 1024 0 l 2
 954 0 896 58 896 128 c 2
 896 512 l 2
 896 582 954 640 1024 640 c 2
 1536 640 l 2
 1606 640 1664 582 1664 512 c 2
1664 1280 m 2
 1664 896 l 2
 1664 826 1606 768 1536 768 c 2
 1024 768 l 2
 954 768 896 826 896 896 c 2
 896 1280 l 2
 896 1350 954 1408 1024 1408 c 2
 1536 1408 l 2
 1606 1408 1664 1350 1664 1280 c 2
EndSplineSet
EndChar

StartChar: th
Encoding: 61450 61450 23
Width: 1792
Flags: MW
VStem: 0 1792<96 288 69.5 314.5 608 800 69.5 826.5 1120 1312 69.5 1338.5>
LayerCount: 2
Fore
SplineSet
512 288 m 2
 512 96 l 2
 512 43 469 0 416 0 c 2
 96 0 l 2
 43 0 0 43 0 96 c 2
 0 288 l 2
 0 341 43 384 96 384 c 2
 416 384 l 2
 469 384 512 341 512 288 c 2
512 800 m 2
 512 608 l 2
 512 555 469 512 416 512 c 2
 96 512 l 2
 43 512 0 555 0 608 c 2
 0 800 l 2
 0 853 43 896 96 896 c 2
 416 896 l 2
 469 896 512 853 512 800 c 2
1152 288 m 2
 1152 96 l 2
 1152 43 1109 0 1056 0 c 2
 736 0 l 2
 683 0 640 43 640 96 c 2
 640 288 l 2
 640 341 683 384 736 384 c 2
 1056 384 l 2
 1109 384 1152 341 1152 288 c 2
512 1312 m 2
 512 1120 l 2
 512 1067 469 1024 416 1024 c 2
 96 1024 l 2
 43 1024 0 1067 0 1120 c 2
 0 1312 l 2
 0 1365 43 1408 96 1408 c 2
 416 1408 l 2
 469 1408 512 1365 512 1312 c 2
1152 800 m 2
 1152 608 l 2
 1152 555 1109 512 1056 512 c 2
 736 512 l 2
 683 512 640 555 640 608 c 2
 640 800 l 2
 640 853 683 896 736 896 c 2
 1056 896 l 2
 1109 896 1152 853 1152 800 c 2
1792 288 m 2
 1792 96 l 2
 1792 43 1749 0 1696 0 c 2
 1376 0 l 2
 1323 0 1280 43 1280 96 c 2
 1280 288 l 2
 1280 341 1323 384 1376 384 c 2
 1696 384 l 2
 1749 384 1792 341 1792 288 c 2
1152 1312 m 2
 1152 1120 l 2
 1152 1067 1109 1024 1056 1024 c 2
 736 1024 l 2
 683 1024 640 1067 640 1120 c 2
 640 1312 l 2
 640 1365 683 1408 736 1408 c 2
 1056 1408 l 2
 1109 1408 1152 1365 1152 1312 c 2
1792 800 m 2
 1792 608 l 2
 1792 555 1749 512 1696 512 c 2
 1376 512 l 2
 1323 512 1280 555 1280 608 c 2
 1280 800 l 2
 1280 853 1323 896 1376 896 c 2
 1696 896 l 2
 1749 896 1792 853 1792 800 c 2
1792 1312 m 2
 1792 1120 l 2
 1792 1067 1749 1024 1696 1024 c 2
 1376 1024 l 2
 1323 1024 1280 1067 1280 1120 c 2
 1280 1312 l 2
 1280 1365 1323 1408 1376 1408 c 2
 1696 1408 l 2
 1749 1408 1792 1365 1792 1312 c 2
EndSplineSet
EndChar

StartChar: th_list
Encoding: 61451 61451 24
Width: 1792
Flags: MW
VStem: 0 1792<96 288 69.5 314.5 608 800 69.5 826.5 1120 1312 69.5 1338.5>
LayerCount: 2
Fore
SplineSet
512 288 m 2
 512 96 l 2
 512 43 469 0 416 0 c 2
 96 0 l 2
 43 0 0 43 0 96 c 2
 0 288 l 2
 0 341 43 384 96 384 c 2
 416 384 l 2
 469 384 512 341 512 288 c 2
512 800 m 2
 512 608 l 2
 512 555 469 512 416 512 c 2
 96 512 l 2
 43 512 0 555 0 608 c 2
 0 800 l 2
 0 853 43 896 96 896 c 2
 416 896 l 2
 469 896 512 853 512 800 c 2
1792 288 m 2
 1792 96 l 2
 1792 43 1749 0 1696 0 c 2
 736 0 l 2
 683 0 640 43 640 96 c 2
 640 288 l 2
 640 341 683 384 736 384 c 2
 1696 384 l 2
 1749 384 1792 341 1792 288 c 2
512 1312 m 2
 512 1120 l 2
 512 1067 469 1024 416 1024 c 2
 96 1024 l 2
 43 1024 0 1067 0 1120 c 2
 0 1312 l 2
 0 1365 43 1408 96 1408 c 2
 416 1408 l 2
 469 1408 512 1365 512 1312 c 2
1792 800 m 2
 1792 608 l 2
 1792 555 1749 512 1696 512 c 2
 736 512 l 2
 683 512 640 555 640 608 c 2
 640 800 l 2
 640 853 683 896 736 896 c 2
 1696 896 l 2
 1749 896 1792 853 1792 800 c 2
1792 1312 m 2
 1792 1120 l 2
 1792 1067 1749 1024 1696 1024 c 2
 736 1024 l 2
 683 1024 640 1067 640 1120 c 2
 640 1312 l 2
 640 1365 683 1408 736 1408 c 2
 1696 1408 l 2
 1749 1408 1792 1365 1792 1312 c 2
EndSplineSet
EndChar

StartChar: ok
Encoding: 61452 61452 25
Width: 1792
Flags: MW
VStem: 121 1550<595.5 982.5>
LayerCount: 2
Fore
SplineSet
1671 970 m 0
 1671 945 1661 920 1643 902 c 2
 919 178 l 1
 783 42 l 2
 765 24 740 14 715 14 c 0
 690 14 665 24 647 42 c 2
 511 178 l 1
 149 540 l 2
 131 558 121 583 121 608 c 0
 121 633 131 658 149 676 c 2
 285 812 l 2
 303 830 328 840 353 840 c 0
 378 840 403 830 421 812 c 2
 715 517 l 1
 1371 1174 l 2
 1389 1192 1414 1202 1439 1202 c 0
 1464 1202 1489 1192 1507 1174 c 2
 1643 1038 l 2
 1661 1020 1671 995 1671 970 c 0
EndSplineSet
EndChar

StartChar: remove
Encoding: 61453 61453 26
Width: 1408
Flags: MW
VStem: 110 1188<201.5 226.5 925.5 950.5>
LayerCount: 2
Fore
SplineSet
1298 214 m 0
 1298 189 1288 164 1270 146 c 2
 1134 10 l 2
 1116 -8 1091 -18 1066 -18 c 0
 1041 -18 1016 -8 998 10 c 2
 704 304 l 1
 410 10 l 2
 392 -8 367 -18 342 -18 c 0
 317 -18 292 -8 274 10 c 2
 138 146 l 2
 120 164 110 189 110 214 c 0
 110 239 120 264 138 282 c 2
 432 576 l 1
 138 870 l 2
 120 888 110 913 110 938 c 0
 110 963 120 988 138 1006 c 2
 274 1142 l 2
 292 1160 317 1170 342 1170 c 0
 367 1170 392 1160 410 1142 c 2
 704 848 l 1
 998 1142 l 2
 1016 1160 1041 1170 1066 1170 c 0
 1091 1170 1116 1160 1134 1142 c 2
 1270 1006 l 2
 1288 988 1298 963 1298 938 c 0
 1298 913 1288 888 1270 870 c 2
 976 576 l 1
 1270 282 l 2
 1288 264 1298 239 1298 214 c 0
EndSplineSet
EndChar

StartChar: zoom_in
Encoding: 61454 61454 27
Width: 1664
Flags: MW
VStem: 0 256<580.5 827.5 580.5 898.5> 640 128<416 640 768 992> 1152 256<633 827.5>
CounterMasks: 1 e0
LayerCount: 2
Fore
SplineSet
1024 736 m 2
 1024 672 l 2
 1024 655 1009 640 992 640 c 2
 768 640 l 1
 768 416 l 2
 768 399 753 384 736 384 c 2
 672 384 l 2
 655 384 640 399 640 416 c 2
 640 640 l 1
 416 640 l 2
 399 640 384 655 384 672 c 2
 384 736 l 2
 384 753 399 768 416 768 c 2
 640 768 l 1
 640 992 l 2
 640 1009 655 1024 672 1024 c 2
 736 1024 l 2
 753 1024 768 1009 768 992 c 2
 768 768 l 1
 992 768 l 2
 1009 768 1024 753 1024 736 c 2
1152 704 m 0
 1152 951 951 1152 704 1152 c 0
 457 1152 256 951 256 704 c 0
 256 457 457 256 704 256 c 0
 951 256 1152 457 1152 704 c 0
1664 -128 m 0
 1664 -199 1607 -256 1536 -256 c 0
 1502 -256 1469 -242 1446 -218 c 2
 1103 124 l 1
 986 43 846 0 704 0 c 0
 315 0 0 315 0 704 c 0
 0 1093 315 1408 704 1408 c 0
 1093 1408 1408 1093 1408 704 c 0
 1408 562 1365 422 1284 305 c 1
 1627 -38 l 2
 1650 -61 1664 -94 1664 -128 c 0
EndSplineSet
EndChar

StartChar: zoom_out
Encoding: 61456 61456 28
Width: 1664
Flags: MW
VStem: 0 256<580.5 827.5 580.5 898.5> 1152 256<633 827.5>
LayerCount: 2
Fore
SplineSet
1024 736 m 2
 1024 672 l 2
 1024 655 1009 640 992 640 c 2
 416 640 l 2
 399 640 384 655 384 672 c 2
 384 736 l 2
 384 753 399 768 416 768 c 2
 992 768 l 2
 1009 768 1024 753 1024 736 c 2
1152 704 m 0
 1152 951 951 1152 704 1152 c 0
 457 1152 256 951 256 704 c 0
 256 457 457 256 704 256 c 0
 951 256 1152 457 1152 704 c 0
1664 -128 m 0
 1664 -199 1607 -256 1536 -256 c 0
 1502 -256 1469 -242 1446 -218 c 2
 1103 124 l 1
 986 43 846 0 704 0 c 0
 315 0 0 315 0 704 c 0
 0 1093 315 1408 704 1408 c 0
 1093 1408 1408 1093 1408 704 c 0
 1408 562 1365 422 1284 305 c 1
 1627 -38 l 2
 1650 -61 1664 -94 1664 -128 c 0
EndSplineSet
EndChar

StartChar: off
Encoding: 61457 61457 29
Width: 1536
Flags: MW
VStem: 0 256<499 721 499 761.5> 640 256<768 1408> 1280 256<499 721>
CounterMasks: 1 e0
LayerCount: 2
Fore
SplineSet
1536 640 m 0
 1536 217 1191 -128 768 -128 c 0
 345 -128 0 217 0 640 c 0
 0 883 112 1107 307 1253 c 0
 364 1296 444 1285 486 1228 c 0
 529 1172 517 1091 461 1049 c 0
 331 951 256 802 256 640 c 0
 256 358 486 128 768 128 c 0
 1050 128 1280 358 1280 640 c 0
 1280 802 1205 951 1075 1049 c 0
 1019 1091 1007 1172 1050 1228 c 0
 1092 1285 1173 1296 1229 1253 c 0
 1424 1107 1536 883 1536 640 c 0
896 1408 m 2
 896 768 l 2
 896 698 838 640 768 640 c 0
 698 640 640 698 640 768 c 2
 640 1408 l 2
 640 1478 698 1536 768 1536 c 0
 838 1536 896 1478 896 1408 c 2
EndSplineSet
EndChar

StartChar: signal
Encoding: 61458 61458 30
Width: 1792
Flags: MW
VStem: 0 256<-96 96 -105 105> 384 256<-96 224> 768 256<-96 480> 1152 256<-96 864> 1536 256<-96 1376>
LayerCount: 2
Fore
SplineSet
256 96 m 2
 256 -96 l 2
 256 -114 242 -128 224 -128 c 2
 32 -128 l 2
 14 -128 0 -114 0 -96 c 2
 0 96 l 2
 0 114 14 128 32 128 c 2
 224 128 l 2
 242 128 256 114 256 96 c 2
640 224 m 2
 640 -96 l 2
 640 -114 626 -128 608 -128 c 2
 416 -128 l 2
 398 -128 384 -114 384 -96 c 2
 384 224 l 2
 384 242 398 256 416 256 c 2
 608 256 l 2
 626 256 640 242 640 224 c 2
1024 480 m 2
 1024 -96 l 2
 1024 -114 1010 -128 992 -128 c 2
 800 -128 l 2
 782 -128 768 -114 768 -96 c 2
 768 480 l 2
 768 498 782 512 800 512 c 2
 992 512 l 2
 1010 512 1024 498 1024 480 c 2
1408 864 m 2
 1408 -96 l 2
 1408 -114 1394 -128 1376 -128 c 2
 1184 -128 l 2
 1166 -128 1152 -114 1152 -96 c 2
 1152 864 l 2
 1152 882 1166 896 1184 896 c 2
 1376 896 l 2
 1394 896 1408 882 1408 864 c 2
1792 1376 m 2
 1792 -96 l 2
 1792 -114 1778 -128 1760 -128 c 2
 1568 -128 l 2
 1550 -128 1536 -114 1536 -96 c 2
 1536 1376 l 2
 1536 1394 1550 1408 1568 1408 c 2
 1760 1408 l 2
 1778 1408 1792 1394 1792 1376 c 2
EndSplineSet
EndChar

StartChar: cog
Encoding: 61459 61459 31
Width: 1536
Flags: MW
VStem: 0 1536<531 749 519.5 753 519.5 760.5>
LayerCount: 2
Fore
SplineSet
1024 640 m 0
 1024 781 909 896 768 896 c 0
 627 896 512 781 512 640 c 0
 512 499 627 384 768 384 c 0
 909 384 1024 499 1024 640 c 0
1536 749 m 2
 1536 527 l 2
 1536 512 1524 494 1508 491 c 2
 1323 463 l 1
 1312 431 1300 401 1284 372 c 1
 1318 323 1354 279 1391 234 c 0
 1397 227 1401 218 1401 209 c 0
 1401 200 1398 193 1392 186 c 0
 1368 154 1233 7 1199 7 c 0
 1190 7 1181 11 1173 16 c 2
 1035 124 l 1
 1006 109 975 96 944 86 c 1
 937 25 931 -40 915 -100 c 0
 911 -116 897 -128 879 -128 c 2
 657 -128 l 2
 639 -128 623 -115 621 -98 c 2
 593 86 l 1
 562 96 532 108 503 123 c 1
 362 16 l 2
 355 10 346 7 337 7 c 0
 328 7 319 11 312 18 c 0
 259 66 189 128 147 186 c 0
 142 193 140 201 140 209 c 0
 140 218 143 225 148 232 c 0
 182 278 219 322 253 369 c 1
 236 401 222 434 212 468 c 1
 29 495 l 2
 12 498 0 514 0 531 c 2
 0 753 l 2
 0 768 12 786 27 789 c 2
 213 817 l 1
 223 849 236 879 252 909 c 1
 218 957 182 1002 145 1047 c 0
 139 1054 135 1062 135 1071 c 0
 135 1080 139 1087 144 1094 c 0
 168 1127 303 1273 337 1273 c 0
 346 1273 355 1269 363 1263 c 2
 501 1156 l 1
 530 1171 561 1184 592 1194 c 1
 599 1255 605 1320 621 1380 c 0
 625 1396 639 1408 657 1408 c 2
 879 1408 l 2
 897 1408 913 1395 915 1378 c 2
 943 1194 l 1
 974 1184 1004 1172 1033 1157 c 1
 1175 1264 l 2
 1181 1270 1190 1273 1199 1273 c 0
 1208 1273 1217 1269 1224 1263 c 0
 1277 1214 1347 1152 1389 1093 c 0
 1394 1087 1396 1079 1396 1071 c 0
 1396 1062 1393 1055 1388 1048 c 0
 1354 1002 1317 958 1283 911 c 1
 1300 879 1314 846 1324 813 c 1
 1507 785 l 2
 1524 782 1536 766 1536 749 c 2
EndSplineSet
EndChar

StartChar: trash
Encoding: 61460 61460 32
Width: 1408
Flags: MW
VStem: 128 128<72 76 76 1024> 384 128<224 800> 640 128<224 800> 896 128<224 800> 1152 128<76 1024>
LayerCount: 2
Fore
SplineSet
512 800 m 2
 512 224 l 2
 512 206 498 192 480 192 c 2
 416 192 l 2
 398 192 384 206 384 224 c 2
 384 800 l 2
 384 818 398 832 416 832 c 2
 480 832 l 2
 498 832 512 818 512 800 c 2
768 800 m 2
 768 224 l 2
 768 206 754 192 736 192 c 2
 672 192 l 2
 654 192 640 206 640 224 c 2
 640 800 l 2
 640 818 654 832 672 832 c 2
 736 832 l 2
 754 832 768 818 768 800 c 2
1024 800 m 2
 1024 224 l 2
 1024 206 1010 192 992 192 c 2
 928 192 l 2
 910 192 896 206 896 224 c 2
 896 800 l 2
 896 818 910 832 928 832 c 2
 992 832 l 2
 1010 832 1024 818 1024 800 c 2
1152 76 m 2
 1152 1024 l 1
 256 1024 l 1
 256 76 l 2
 256 28 283 0 288 0 c 2
 1120 0 l 2
 1125 0 1152 28 1152 76 c 2
480 1152 m 1
 928 1152 l 1
 880 1269 l 2
 877 1273 868 1279 863 1280 c 2
 546 1280 l 2
 540 1279 532 1273 529 1269 c 2
 480 1152 l 1
1408 1120 m 2
 1408 1056 l 2
 1408 1038 1394 1024 1376 1024 c 2
 1280 1024 l 1
 1280 76 l 2
 1280 -34 1208 -128 1120 -128 c 2
 288 -128 l 2
 200 -128 128 -38 128 72 c 2
 128 1024 l 1
 32 1024 l 2
 14 1024 0 1038 0 1056 c 2
 0 1120 l 2
 0 1138 14 1152 32 1152 c 2
 341 1152 l 1
 411 1319 l 2
 431 1368 491 1408 544 1408 c 2
 864 1408 l 2
 917 1408 977 1368 997 1319 c 2
 1067 1152 l 1
 1376 1152 l 2
 1394 1152 1408 1138 1408 1120 c 2
EndSplineSet
EndChar

StartChar: home
Encoding: 61461 61461 33
Width: 1664
Flags: MW
VStem: 1152 256<1053 1248>
LayerCount: 2
Fore
SplineSet
1408 544 m 2
 1408 64 l 2
 1408 29 1379 0 1344 0 c 2
 960 0 l 1
 960 384 l 1
 704 384 l 1
 704 0 l 1
 320 0 l 2
 285 0 256 29 256 64 c 2
 256 544 l 2
 256 546 257 548 257 550 c 2
 832 1024 l 1
 1407 550 l 2
 1408 548 1408 546 1408 544 c 2
1631 613 m 2
 1569 539 l 2
 1564 533 1556 529 1548 528 c 0
 1547 528 1546 528 1545 528 c 0
 1537 528 1530 530 1524 535 c 2
 832 1112 l 1
 140 535 l 2
 133 530 125 527 116 528 c 0
 108 529 100 533 95 539 c 2
 33 613 l 2
 22 626 24 647 37 658 c 2
 756 1257 l 2
 798 1292 866 1292 908 1257 c 2
 1152 1053 l 1
 1152 1248 l 2
 1152 1266 1166 1280 1184 1280 c 2
 1376 1280 l 2
 1394 1280 1408 1266 1408 1248 c 2
 1408 840 l 1
 1627 658 l 2
 1640 647 1642 626 1631 613 c 2
EndSplineSet
EndChar

StartChar: file_alt
Encoding: 61462 61462 34
Width: 1536
Flags: MW
VStem: 0 128<-128 1408 -128 1440 -128 1466.5> 896 128<1024 1400 1024 1408 1024 1408> 1408 128<-128 896 896 896>
LayerCount: 2
Fore
SplineSet
1468 1156 m 2
 1505 1119 1536 1045 1536 992 c 2
 1536 -160 l 2
 1536 -213 1493 -256 1440 -256 c 2
 96 -256 l 2
 43 -256 0 -213 0 -160 c 2
 0 1440 l 2
 0 1493 43 1536 96 1536 c 2
 992 1536 l 2
 1045 1536 1119 1505 1156 1468 c 2
 1468 1156 l 2
1024 1400 m 1
 1024 1024 l 1
 1400 1024 l 1
 1394 1041 1385 1058 1378 1065 c 2
 1065 1378 l 2
 1058 1385 1041 1394 1024 1400 c 1
1408 -128 m 1
 1408 896 l 1
 992 896 l 2
 939 896 896 939 896 992 c 2
 896 1408 l 1
 128 1408 l 1
 128 -128 l 1
 1408 -128 l 1
EndSplineSet
EndChar

StartChar: time
Encoding: 61463 61463 35
Width: 1536
Flags: MW
VStem: 0 224<490 790 490 852> 768 128<640 992> 1312 224<490 790>
LayerCount: 2
Fore
SplineSet
896 992 m 2
 896 544 l 2
 896 526 882 512 864 512 c 2
 544 512 l 2
 526 512 512 526 512 544 c 2
 512 608 l 2
 512 626 526 640 544 640 c 2
 768 640 l 1
 768 992 l 2
 768 1010 782 1024 800 1024 c 2
 864 1024 l 2
 882 1024 896 1010 896 992 c 2
1312 640 m 0
 1312 940 1068 1184 768 1184 c 0
 468 1184 224 940 224 640 c 0
 224 340 468 96 768 96 c 0
 1068 96 1312 340 1312 640 c 0
1536 640 m 0
 1536 216 1192 -128 768 -128 c 0
 344 -128 0 216 0 640 c 0
 0 1064 344 1408 768 1408 c 0
 1192 1408 1536 1064 1536 640 c 0
EndSplineSet
EndChar

StartChar: road
Encoding: 61464 61464 36
Width: 1920
Flags: MW
VStem: 50 1820<58.5 93>
LayerCount: 2
Fore
SplineSet
1111 540 m 2
 1111 544 l 1
 1087 864 l 2
 1086 882 1070 896 1053 896 c 2
 867 896 l 2
 850 896 834 882 833 864 c 2
 809 544 l 1
 809 540 l 2
 808 524 823 512 838 512 c 2
 1082 512 l 2
 1097 512 1112 524 1111 540 c 2
1870 73 m 0
 1870 44 1862 0 1824 0 c 2
 1120 0 l 1
 1137 0 1151 14 1150 32 c 2
 1130 288 l 2
 1129 306 1113 320 1096 320 c 2
 824 320 l 2
 807 320 791 306 790 288 c 2
 770 32 l 2
 769 14 783 0 800 0 c 1
 96 0 l 2
 58 0 50 44 50 73 c 0
 50 113 61 153 76 189 c 2
 493 1233 l 2
 503 1258 530 1280 557 1280 c 2
 896 1280 l 1
 879 1280 863 1266 862 1248 c 2
 847 1056 l 2
 846 1038 859 1024 877 1024 c 2
 1043 1024 l 2
 1061 1024 1074 1038 1073 1056 c 2
 1058 1248 l 2
 1057 1266 1041 1280 1024 1280 c 1
 1363 1280 l 2
 1390 1280 1417 1258 1427 1233 c 2
 1844 189 l 2
 1859 153 1870 113 1870 73 c 0
EndSplineSet
EndChar

StartChar: download_alt
Encoding: 61465 61465 37
Width: 1664
Flags: MW
VStem: 1280 128<174.5 209.5> 1536 128<174.5 209.5>
LayerCount: 2
Fore
SplineSet
1280 192 m 0
 1280 227 1251 256 1216 256 c 0
 1181 256 1152 227 1152 192 c 0
 1152 157 1181 128 1216 128 c 0
 1251 128 1280 157 1280 192 c 0
1536 192 m 0
 1536 227 1507 256 1472 256 c 0
 1437 256 1408 227 1408 192 c 0
 1408 157 1437 128 1472 128 c 0
 1507 128 1536 157 1536 192 c 0
1664 416 m 2
 1664 96 l 2
 1664 43 1621 0 1568 0 c 2
 96 0 l 2
 43 0 0 43 0 96 c 2
 0 416 l 2
 0 469 43 512 96 512 c 2
 561 512 l 1
 696 376 l 2
 733 340 781 320 832 320 c 0
 883 320 931 340 968 376 c 2
 1104 512 l 1
 1568 512 l 2
 1621 512 1664 469 1664 416 c 2
1339 985 m 0
 1349 961 1344 933 1325 915 c 2
 877 467 l 2
 865 454 848 448 832 448 c 0
 816 448 799 454 787 467 c 2
 339 915 l 2
 320 933 315 961 325 985 c 0
 335 1008 358 1024 384 1024 c 2
 640 1024 l 1
 640 1472 l 2
 640 1507 669 1536 704 1536 c 2
 960 1536 l 2
 995 1536 1024 1507 1024 1472 c 2
 1024 1024 l 1
 1280 1024 l 2
 1306 1024 1329 1008 1339 985 c 0
EndSplineSet
EndChar

StartChar: download
Encoding: 61466 61466 38
Width: 1536
Flags: MW
VStem: 0 224<490 790 490 852> 640 256<640 992 640 1001> 1312 224<490 790>
CounterMasks: 1 e0
LayerCount: 2
Fore
SplineSet
1120 608 m 0
 1120 599 1116 591 1110 584 c 2
 791 265 l 2
 784 259 776 256 768 256 c 0
 760 256 752 259 745 265 c 2
 425 585 l 2
 416 595 413 608 418 620 c 0
 423 632 435 640 448 640 c 2
 640 640 l 1
 640 992 l 2
 640 1010 654 1024 672 1024 c 2
 864 1024 l 2
 882 1024 896 1010 896 992 c 2
 896 640 l 1
 1088 640 l 1
 1088 640 l 1
 1106 640 1120 626 1120 608 c 0
768 1184 m 0
 468 1184 224 940 224 640 c 0
 224 340 468 96 768 96 c 0
 1068 96 1312 340 1312 640 c 0
 1312 940 1068 1184 768 1184 c 0
1536 640 m 0
 1536 216 1192 -128 768 -128 c 0
 344 -128 0 216 0 640 c 0
 0 1064 344 1408 768 1408 c 1
 768 1408 l 1
 1192 1408 1536 1064 1536 640 c 0
EndSplineSet
EndChar

StartChar: upload
Encoding: 61467 61467 39
Width: 1536
Flags: MW
VStem: 0 224<490 790 490 852> 640 256<288 640> 1312 224<490 790>
CounterMasks: 1 e0
LayerCount: 2
Fore
SplineSet
1118 660 m 0
 1113 648 1101 640 1088 640 c 2
 896 640 l 1
 896 288 l 2
 896 270 882 256 864 256 c 2
 672 256 l 2
 654 256 640 270 640 288 c 2
 640 640 l 1
 448 640 l 1
 448 640 l 1
 430 640 416 654 416 672 c 0
 416 681 420 689 426 696 c 2
 745 1015 l 2
 752 1021 760 1024 768 1024 c 0
 776 1024 784 1021 791 1015 c 2
 1111 695 l 2
 1120 685 1123 672 1118 660 c 0
768 1184 m 0
 468 1184 224 940 224 640 c 0
 224 340 468 96 768 96 c 0
 1068 96 1312 340 1312 640 c 0
 1312 940 1068 1184 768 1184 c 0
1536 640 m 0
 1536 216 1192 -128 768 -128 c 0
 344 -128 0 216 0 640 c 0
 0 1064 344 1408 768 1408 c 1
 768 1408 l 1
 1192 1408 1536 1064 1536 640 c 0
EndSplineSet
EndChar

StartChar: inbox
Encoding: 61468 61468 40
Width: 1536
Flags: MW
VStem: 0 1536<64 546 46.5 564>
LayerCount: 2
Fore
SplineSet
1023 576 m 1
 1339 576 l 1
 1337 581 1336 587 1334 592 c 2
 1122 1088 l 1
 414 1088 l 1
 202 592 l 2
 200 587 199 581 197 576 c 1
 513 576 l 1
 608 384 l 1
 928 384 l 1
 1023 576 l 1
1536 546 m 2
 1536 64 l 2
 1536 29 1507 0 1472 0 c 2
 64 0 l 2
 29 0 0 29 0 64 c 2
 0 546 l 2
 0 582 11 635 25 669 c 2
 263 1221 l 2
 277 1254 317 1280 352 1280 c 2
 1184 1280 l 2
 1219 1280 1259 1254 1273 1221 c 2
 1511 669 l 2
 1525 635 1536 582 1536 546 c 2
EndSplineSet
EndChar

StartChar: play_circle
Encoding: 61469 61469 41
Width: 1536
Flags: MW
VStem: 0 224<490 790 490 852> 1312 224<490 790>
LayerCount: 2
Fore
SplineSet
1184 640 m 0
 1184 617 1172 596 1152 585 c 2
 608 265 l 2
 598 259 587 256 576 256 c 0
 565 256 554 259 544 264 c 0
 524 276 512 297 512 320 c 2
 512 960 l 2
 512 983 524 1004 544 1016 c 0
 564 1027 589 1027 608 1015 c 2
 1152 695 l 2
 1172 684 1184 663 1184 640 c 0
1312 640 m 0
 1312 940 1068 1184 768 1184 c 0
 468 1184 224 940 224 640 c 0
 224 340 468 96 768 96 c 0
 1068 96 1312 340 1312 640 c 0
1536 640 m 0
 1536 216 1192 -128 768 -128 c 0
 344 -128 0 216 0 640 c 0
 0 1064 344 1408 768 1408 c 0
 1192 1408 1536 1064 1536 640 c 0
EndSplineSet
EndChar

StartChar: repeat
Encoding: 61470 61470 42
Width: 1536
Flags: MW
VStem: 0 256<499 781 499 851.5>
LayerCount: 2
Fore
SplineSet
1536 1280 m 2
 1536 832 l 2
 1536 797 1507 768 1472 768 c 2
 1024 768 l 2
 998 768 975 784 965 808 c 0
 955 831 960 859 979 877 c 2x80
 1117 1015 l 1
 1023 1102 899 1152 768 1152 c 0
 486 1152 256 922 256 640 c 0
 256 358 486 128 768 128 c 0
 927 128 1074 200 1172 327 c 0
 1177 334 1186 338 1195 339 c 0
 1204 339 1213 336 1220 330 c 2
 1357 192 l 2
 1369 181 1369 162 1359 149 c 0
 1213 -27 997 -128 768 -128 c 0
 345 -128 0 217 0 640 c 0
 0 1063 345 1408 768 1408 c 0
 965 1408 1156 1329 1297 1196 c 1
 1427 1325 l 2
 1445 1344 1473 1349 1497 1339 c 0
 1520 1329 1536 1306 1536 1280 c 2
EndSplineSet
EndChar

StartChar: refresh
Encoding: 61473 61473 43
Width: 1536
Flags: MW
VStem: 0 1536<0 832 448 832>
LayerCount: 2
Fore
SplineSet
1511 480 m 0
 1511 478 1511 475 1510 473 c 0
 1425 119 1133 -128 764 -128 c 0
 569 -128 380 -51 238 84 c 1
 109 -45 l 2
 97 -57 81 -64 64 -64 c 0x80
 29 -64 0 -35 0 0 c 2
 0 448 l 2
 0 483 29 512 64 512 c 2
 512 512 l 2
 547 512 576 483 576 448 c 0
 576 431 569 415 557 403 c 2
 420 266 l 1
 514 178 639 128 768 128 c 0
 946 128 1111 220 1204 372 c 0
 1228 411 1240 449 1257 489 c 0
 1262 503 1272 512 1287 512 c 2
 1479 512 l 2
 1497 512 1511 497 1511 480 c 0
1536 1280 m 2
 1536 832 l 2
 1536 797 1507 768 1472 768 c 2
 1024 768 l 2
 989 768 960 797 960 832 c 0
 960 849 967 865 979 877 c 2
 1117 1015 l 1
 1022 1103 897 1152 768 1152 c 0
 590 1152 425 1060 332 908 c 0
 308 869 296 831 279 791 c 0
 274 777 264 768 249 768 c 2
 50 768 l 2
 32 768 18 783 18 800 c 0
 18 802 18 805 18 807 c 0
 104 1162 399 1408 768 1408 c 0
 964 1408 1155 1330 1297 1196 c 1
 1427 1325 l 2
 1439 1337 1455 1344 1472 1344 c 0
 1507 1344 1536 1315 1536 1280 c 2
EndSplineSet
EndChar

StartChar: list_alt
Encoding: 61474 61474 44
Width: 1792
Flags: MW
VStem: 0 128<160 992> 256 128<288 352 279.5 360.5 544 608 800 864> 1664 128<160 992 992 1000.5>
LayerCount: 2
Fore
SplineSet
384 352 m 2
 384 288 l 2
 384 271 369 256 352 256 c 2
 288 256 l 2
 271 256 256 271 256 288 c 2
 256 352 l 2
 256 369 271 384 288 384 c 2
 352 384 l 2
 369 384 384 369 384 352 c 2
384 608 m 2
 384 544 l 2
 384 527 369 512 352 512 c 2
 288 512 l 2
 271 512 256 527 256 544 c 2
 256 608 l 2
 256 625 271 640 288 640 c 2
 352 640 l 2
 369 640 384 625 384 608 c 2
384 864 m 2
 384 800 l 2
 384 783 369 768 352 768 c 2
 288 768 l 2
 271 768 256 783 256 800 c 2
 256 864 l 2
 256 881 271 896 288 896 c 2
 352 896 l 2
 369 896 384 881 384 864 c 2
1536 352 m 2
 1536 288 l 2
 1536 271 1521 256 1504 256 c 2
 544 256 l 2
 527 256 512 271 512 288 c 2
 512 352 l 2
 512 369 527 384 544 384 c 2
 1504 384 l 2
 1521 384 1536 369 1536 352 c 2
1536 608 m 2
 1536 544 l 2
 1536 527 1521 512 1504 512 c 2
 544 512 l 2
 527 512 512 527 512 544 c 2
 512 608 l 2
 512 625 527 640 544 640 c 2
 1504 640 l 2
 1521 640 1536 625 1536 608 c 2
1536 864 m 2
 1536 800 l 2
 1536 783 1521 768 1504 768 c 2
 544 768 l 2
 527 768 512 783 512 800 c 2
 512 864 l 2
 512 881 527 896 544 896 c 2
 1504 896 l 2
 1521 896 1536 881 1536 864 c 2
1664 160 m 2
 1664 992 l 2
 1664 1009 1649 1024 1632 1024 c 2
 160 1024 l 2
 143 1024 128 1009 128 992 c 2
 128 160 l 2
 128 143 143 128 160 128 c 2
 1632 128 l 2
 1649 128 1664 143 1664 160 c 2
1792 1248 m 2
 1792 160 l 2
 1792 72 1720 0 1632 0 c 2
 160 0 l 2
 72 0 0 72 0 160 c 2
 0 1248 l 2
 0 1336 72 1408 160 1408 c 2
 1632 1408 l 2
 1720 1408 1792 1336 1792 1248 c 2
EndSplineSet
EndChar

StartChar: lock
Encoding: 61475 61475 45
Width: 1152
Flags: MW
VStem: 128 192<768 960> 832 192<768 960 768 1030.5>
LayerCount: 2
Fore
SplineSet
320 768 m 1
 832 768 l 1
 832 960 l 2
 832 1101 717 1216 576 1216 c 0
 435 1216 320 1101 320 960 c 2
 320 768 l 1
1152 672 m 2
 1152 96 l 2
 1152 43 1109 0 1056 0 c 2
 96 0 l 2
 43 0 0 43 0 96 c 2
 0 672 l 2
 0 725 43 768 96 768 c 2
 128 768 l 1
 128 960 l 2
 128 1206 330 1408 576 1408 c 0
 822 1408 1024 1206 1024 960 c 2
 1024 768 l 1
 1056 768 l 2
 1109 768 1152 725 1152 672 c 2
EndSplineSet
EndChar

StartChar: flag
Encoding: 61476 61476 46
Width: 1792
Flags: MW
VStem: 128 128<-96 1170>
LayerCount: 2
Fore
SplineSet
320 1280 m 0
 320 1234 295 1193 256 1170 c 1
 256 -96 l 2
 256 -113 241 -128 224 -128 c 2
 160 -128 l 2
 143 -128 128 -113 128 -96 c 2
 128 1170 l 1
 89 1193 64 1234 64 1280 c 0
 64 1351 121 1408 192 1408 c 0
 263 1408 320 1351 320 1280 c 0
1792 1216 m 2
 1792 453 l 2
 1792 416 1769 402 1740 387 c 0
 1627 326 1502 271 1371 271 c 0
 1187 271 1099 411 881 411 c 0
 722 411 555 339 417 265 c 0
 406 259 396 256 384 256 c 0
 349 256 320 285 320 320 c 2
 320 1062 l 2
 320 1086 332 1103 351 1117 c 0
 375 1133 404 1147 430 1160 c 0
 556 1224 709 1280 851 1280 c 0
 1008 1280 1131 1228 1270 1163 c 0
 1298 1149 1327 1144 1358 1144 c 0
 1515 1144 1684 1280 1728 1280 c 0
 1763 1280 1792 1251 1792 1216 c 2
EndSplineSet
EndChar

StartChar: headphones
Encoding: 61477 61477 47
Width: 1664
Flags: MW
VStem: 0 192<616.5 801 616.5 855.5> 512 128<32 64 64 64 576 608> 1024 128<32 64 576 608> 1472 192<616.5 801>
LayerCount: 2
Fore
SplineSet
1664 650 m 0
 1664 541 1644 435 1604 336 c 2
 1584 287 l 1
 1399 254 l 1
 1370 145 1271 64 1152 64 c 1
 1152 32 l 2
 1152 14 1138 0 1120 0 c 2
 1056 0 l 2
 1038 0 1024 14 1024 32 c 2
 1024 608 l 2
 1024 626 1038 640 1056 640 c 2
 1120 640 l 2
 1138 640 1152 626 1152 608 c 2
 1152 576 l 1
 1248 576 1331 523 1375 445 c 1
 1443 457 l 1
 1462 519 1472 583 1472 650 c 0
 1472 952 1173 1216 832 1216 c 0
 491 1216 192 952 192 650 c 0
 192 583 202 519 221 457 c 1
 289 445 l 1
 333 523 416 576 512 576 c 1
 512 608 l 2
 512 626 526 640 544 640 c 2
 608 640 l 2
 626 640 640 626 640 608 c 2
 640 32 l 2
 640 14 626 0 608 0 c 2
 544 0 l 2
 526 0 512 14 512 32 c 2
 512 64 l 1
 393 64 294 145 265 254 c 1
 80 287 l 1
 60 336 l 2
 20 435 0 541 0 650 c 0
 0 1061 381 1408 832 1408 c 0
 1283 1408 1664 1061 1664 650 c 0
EndSplineSet
EndChar

StartChar: volume_off
Encoding: 61478 61478 48
Width: 768
Flags: MW
VStem: 0 768<448 832 832 849.5>
LayerCount: 2
Fore
SplineSet
768 1184 m 2
 768 96 l 2
 768 61 739 32 704 32 c 0
 687 32 671 39 659 51 c 2
 326 384 l 1
 64 384 l 2
 29 384 0 413 0 448 c 2
 0 832 l 2
 0 867 29 896 64 896 c 2
 326 896 l 1
 659 1229 l 2
 671 1241 687 1248 704 1248 c 0
 739 1248 768 1219 768 1184 c 2
EndSplineSet
EndChar

StartChar: volume_down
Encoding: 61479 61479 49
Width: 1152
Flags: MW
VStem: 1024 128<590 690 590 700.5>
LayerCount: 2
Fore
SplineSet
768 1184 m 2
 768 96 l 2
 768 61 739 32 704 32 c 0
 687 32 671 39 659 51 c 2
 326 384 l 1
 64 384 l 2
 29 384 0 413 0 448 c 2
 0 832 l 2
 0 867 29 896 64 896 c 2
 326 896 l 1
 659 1229 l 2
 671 1241 687 1248 704 1248 c 0
 739 1248 768 1219 768 1184 c 2
1152 640 m 0
 1152 540 1091 443 997 405 c 0
 989 401 980 400 972 400 c 0
 937 400 908 428 908 464 c 0
 908 540 1024 519 1024 640 c 0
 1024 761 908 740 908 816 c 0
 908 852 937 880 972 880 c 0
 980 880 989 879 997 875 c 0
 1091 838 1152 740 1152 640 c 0
EndSplineSet
EndChar

StartChar: volume_up
Encoding: 61480 61480 50
Width: 1664
Flags: MW
VStem: 1024 128<590 690 590 700.5> 1280 128<579 701> 1536 128<538 742>
CounterMasks: 1 e0
LayerCount: 2
Fore
SplineSet
768 1184 m 2
 768 96 l 2
 768 61 739 32 704 32 c 0
 687 32 671 39 659 51 c 2
 326 384 l 1
 64 384 l 2
 29 384 0 413 0 448 c 2
 0 832 l 2
 0 867 29 896 64 896 c 2
 326 896 l 1
 659 1229 l 2
 671 1241 687 1248 704 1248 c 0
 739 1248 768 1219 768 1184 c 2
1152 640 m 0
 1152 540 1091 443 997 405 c 0
 989 401 980 400 972 400 c 0
 937 400 908 428 908 464 c 0
 908 540 1024 519 1024 640 c 0
 1024 761 908 740 908 816 c 0
 908 852 937 880 972 880 c 0
 980 880 989 879 997 875 c 0
 1091 838 1152 740 1152 640 c 0
1408 640 m 0
 1408 437 1286 248 1098 169 c 0
 1090 166 1081 164 1073 164 c 0
 1037 164 1008 193 1008 228 c 0
 1008 256 1024 275 1047 287 c 0
 1074 301 1099 313 1123 331 c 0
 1222 403 1280 518 1280 640 c 0
 1280 762 1222 877 1123 949 c 0
 1099 967 1074 979 1047 993 c 0
 1024 1005 1008 1024 1008 1052 c 0
 1008 1087 1037 1116 1072 1116 c 0
 1081 1116 1090 1114 1098 1111 c 0
 1286 1032 1408 843 1408 640 c 0
1664 640 m 0
 1664 333 1481 55 1199 -66 c 0
 1191 -69 1182 -71 1173 -71 c 0
 1138 -71 1109 -42 1109 -7 c 0
 1109 22 1124 38 1148 52 c 0
 1162 60 1178 65 1193 73 c 0
 1221 88 1249 105 1275 124 c 0
 1439 245 1536 436 1536 640 c 0
 1536 844 1439 1035 1275 1156 c 0
 1249 1175 1221 1192 1193 1207 c 0
 1178 1215 1162 1220 1148 1228 c 0
 1124 1242 1109 1258 1109 1287 c 0
 1109 1322 1138 1351 1173 1351 c 0
 1182 1351 1191 1349 1199 1346 c 0
 1481 1225 1664 947 1664 640 c 0
EndSplineSet
EndChar

StartChar: qrcode
Encoding: 61481 61481 51
Width: 1408
Flags: MW
VStem: 0 128<129 129 129 512 896 1280> 256 128<256 384 256 384 1024 1152> 512 128<129 512 512 512 896 1280 1280 1280> 768 128<0 384 0 640 896 1280> 1024 128<0 128 0 128 1024 1152> 1280 128<0 128 0 128 512 640 896 1280 1280 1280>
LayerCount: 2
Fore
SplineSet
384 384 m 1
 384 256 l 1
 256 256 l 1
 256 384 l 1
 384 384 l 1
384 1152 m 1
 384 1024 l 1
 256 1024 l 1
 256 1152 l 1
 384 1152 l 1
1152 1152 m 1
 1152 1024 l 1
 1024 1024 l 1
 1024 1152 l 1
 1152 1152 l 1
128 129 m 1
 512 129 l 1
 512 512 l 1
 128 512 l 1
 128 129 l 1
128 896 m 1
 512 896 l 1
 512 1280 l 1
 128 1280 l 1
 128 896 l 1
896 896 m 1
 1280 896 l 1
 1280 1280 l 1
 896 1280 l 1
 896 896 l 1
640 640 m 1
 640 0 l 1
 0 0 l 1
 0 640 l 1
 640 640 l 1
1152 128 m 1
 1152 0 l 1
 1024 0 l 1
 1024 128 l 1
 1152 128 l 1
1408 128 m 1
 1408 0 l 1x0c
 1280 0 l 1
 1280 128 l 1
 1408 128 l 1
1408 640 m 1
 1408 256 l 1
 1024 256 l 1
 1024 384 l 1xfc
 896 384 l 1
 896 0 l 1x1c
 768 0 l 1
 768 640 l 1
 1152 640 l 1
 1152 512 l 1x18
 1280 512 l 1
 1280 640 l 1
 1408 640 l 1
640 1408 m 1
 640 768 l 1
 0 768 l 1
 0 1408 l 1
 640 1408 l 1
1408 1408 m 1
 1408 768 l 1
 768 768 l 1
 768 1408 l 1
 1408 1408 l 1
EndSplineSet
EndChar

StartChar: barcode
Encoding: 61482 61482 52
Width: 1792
Flags: MW
VStem: 0 63<0 235.5 235.5 1408 1173.5 1408> 94 32<1 236 236 1408 1173.5 1408> 189 31<1 236 236 1408 1173.5 1408> 346 31<1 236 236 1408 1173.5 1408> 472 62<1 236 236 1408 1173.5 1408> 629 31<1 236 236 1408 1173.5 1408> 692 31<1 236 236 1408 1173.5 1408> 755 31<1 236 236 1408 1173.5 1408> 880 63<1 236 236 1408 1173.5 1408> 1037 63<1 236 236 1408 1173.5 1408> 1163 63<1 236 236 1408 1173.5 1408> 1289 63<1 236 236 1408 1173.5 1408> 1383 63<1 236 236 1408 1173.5 1408> 1541 94<1 236 236 1408 1173.5 1408> 1666 32<1 236 236 1408 1173.5 1408> 1729 63<0 234.5 234.5 1408 1173.5 1408>
LayerCount: 2
Fore
SplineSet
63 0 m 1
 41 0 21 0 0 0 c 1
 0 469 0 939 0 1408 c 1
 21 1408 42 1408 63 1408 c 1
 63 940 63 471 63 0 c 1
126 1 m 1
 115 1 106 1 94 1 c 1
 94 470 94 939 94 1408 c 1
 105 1408 115 1408 126 1408 c 1
 126 940 126 471 126 1 c 1
220 1 m 1
 210 1 200 1 189 1 c 1
 189 470 189 939 189 1408 c 1
 199 1408 210 1408 220 1408 c 1
 220 940 220 471 220 1 c 1
377 1 m 1
 367 1 358 1 346 1 c 1
 346 470 346 939 346 1408 c 1
 356 1408 367 1408 377 1408 c 1
 377 940 377 471 377 1 c 1
534 1 m 1
 514 1 494 1 472 1 c 1
 472 470 472 939 472 1408 c 1
 493 1408 514 1408 534 1408 c 1
 534 940 534 471 534 1 c 1
660 1 m 1
 650 1 640 1 629 1 c 1
 629 470 629 939 629 1408 c 1
 639 1408 650 1408 660 1408 c 1
 660 940 660 471 660 1 c 1
723 1 m 1
 713 1 703 1 692 1 c 1
 692 470 692 939 692 1408 c 1
 702 1408 713 1408 723 1408 c 1
 723 940 723 471 723 1 c 1
786 1 m 1
 776 1 766 1 755 1 c 1
 755 470 755 939 755 1408 c 1
 765 1408 776 1408 786 1408 c 1
 786 940 786 471 786 1 c 1
943 1 m 1
 922 1 903 1 880 1 c 1
 880 470 880 939 880 1408 c 1
 901 1408 922 1408 943 1408 c 1
 943 940 943 471 943 1 c 1
1100 1 m 1
 1080 1 1060 1 1037 1 c 1
 1037 470 1037 939 1037 1408 c 1
 1058 1408 1079 1408 1100 1408 c 1
 1100 940 1100 471 1100 1 c 1
1226 1 m 1
 1205 1 1185 1 1163 1 c 1
 1163 470 1163 939 1163 1408 c 1
 1184 1408 1205 1408 1226 1408 c 1
 1226 940 1226 471 1226 1 c 1
1352 1 m 1
 1331 1 1311 1 1289 1 c 1
 1289 470 1289 939 1289 1408 c 1
 1310 1408 1331 1408 1352 1408 c 1
 1352 940 1352 471 1352 1 c 1
1446 1 m 1
 1425 1 1406 1 1383 1 c 1
 1383 470 1383 939 1383 1408 c 1
 1404 1408 1425 1408 1446 1408 c 1
 1446 940 1446 471 1446 1 c 1
1635 1 m 1
 1604 1 1573 1 1541 1 c 1
 1541 470 1541 939 1541 1408 c 1
 1572 1408 1603 1408 1635 1408 c 1
 1635 940 1635 471 1635 1 c 1
1698 1 m 1
 1687 1 1678 1 1666 1 c 1
 1666 470 1666 939 1666 1408 c 1
 1677 1408 1687 1408 1698 1408 c 1
 1698 940 1698 471 1698 1 c 1
1792 0 m 1
 1772 0 1752 0 1729 0 c 1
 1729 470 1729 939 1729 1408 c 1
 1750 1408 1771 1408 1792 1408 c 1
 1792 939 1792 469 1792 0 c 1
EndSplineSet
EndChar

StartChar: tag
Encoding: 61483 61483 53
Width: 1536
Flags: MW
VStem: 0 192<1052.5 1123.5 1052.5 1280 1052.5 1315>
LayerCount: 2
Fore
SplineSet
448 1088 m 0
 448 1159 391 1216 320 1216 c 0
 249 1216 192 1159 192 1088 c 0
 192 1017 249 960 320 960 c 0
 391 960 448 1017 448 1088 c 0
1515 512 m 0
 1515 478 1501 445 1478 422 c 2
 987 -70 l 2
 963 -93 930 -107 896 -107 c 0
 862 -107 829 -93 806 -70 c 2
 91 646 l 2
 40 696 0 793 0 864 c 2
 0 1280 l 2
 0 1350 58 1408 128 1408 c 2
 544 1408 l 2
 615 1408 712 1368 763 1317 c 2
 1478 603 l 2
 1501 579 1515 546 1515 512 c 0
EndSplineSet
EndChar

StartChar: tags
Encoding: 61484 61484 54
Width: 1920
Flags: MW
VStem: 0 192<1052.5 1123.5 1052.5 1280 1052.5 1315>
LayerCount: 2
Fore
SplineSet
448 1088 m 0
 448 1159 391 1216 320 1216 c 0
 249 1216 192 1159 192 1088 c 0
 192 1017 249 960 320 960 c 0
 391 960 448 1017 448 1088 c 0
1515 512 m 0
 1515 478 1501 445 1478 422 c 2
 987 -70 l 2
 963 -93 930 -107 896 -107 c 0
 862 -107 829 -93 806 -70 c 2
 91 646 l 2
 40 696 0 793 0 864 c 2
 0 1280 l 2
 0 1350 58 1408 128 1408 c 2
 544 1408 l 2
 615 1408 712 1368 763 1317 c 2
 1478 603 l 2
 1501 579 1515 546 1515 512 c 0
1899 512 m 0
 1899 478 1885 445 1862 422 c 2
 1371 -70 l 2
 1347 -93 1314 -107 1280 -107 c 0
 1228 -107 1202 -83 1168 -48 c 1
 1638 422 l 2
 1661 445 1675 478 1675 512 c 0
 1675 546 1661 579 1638 603 c 2
 923 1317 l 2
 872 1368 775 1408 704 1408 c 1
 928 1408 l 2
 999 1408 1096 1368 1147 1317 c 2
 1862 603 l 2
 1885 579 1899 546 1899 512 c 0
EndSplineSet
EndChar

StartChar: book
Encoding: 61485 61485 55
Width: 1664
Flags: MW
VStem: 0 112 1580 84
LayerCount: 2
Fore
SplineSet
1639 1058 m 0
 1664 1022 1671 975 1657 929 c 2
 1382 23 l 2
 1357 -62 1269 -128 1183 -128 c 2
 260 -128 l 2
 158 -128 49 -47 12 57 c 0
 -4 102 -4 146 10 184 c 1
 12 204 16 224 17 248 c 0
 18 264 9 277 11 289 c 0
 15 313 36 330 52 357 c 0
 82 407 116 488 127 540 c 0
 132 559 122 581 127 598 c 0
 132 617 151 631 161 649 c 0
 188 695 223 784 228 831 c 0
 230 852 220 875 226 891 c 0
 233 914 255 924 270 944 c 0
 294 977 334 1072 340 1125 c 0
 342 1142 332 1159 335 1177 c 0
 339 1196 363 1216 379 1239 c 0
 421 1301 429 1438 556 1402 c 1
 555 1399 l 1
 572 1403 589 1408 606 1408 c 2
 1367 1408 l 2
 1414 1408 1456 1387 1481 1352 c 0
 1507 1316 1513 1269 1499 1222 c 2
 1225 316 l 2
 1178 162 1152 128 1025 128 c 2
 156 128 l 2
 143 128 127 125 118 113 c 0
 110 101 109 92 117 70 c 0
 137 12 206 0 261 0 c 2
 1184 0 l 2
 1221 0 1264 21 1275 57 c 2
 1575 1044 l 2
 1581 1063 1581 1083 1580 1101 c 1
 1603 1092 1624 1078 1639 1058 c 0
575 1056 m 2
 569 1038 579 1024 597 1024 c 2
 1205 1024 l 2
 1222 1024 1241 1038 1247 1056 c 2
 1268 1120 l 2
 1274 1138 1264 1152 1246 1152 c 2
 638 1152 l 2
 621 1152 602 1138 596 1120 c 2
 575 1056 l 2
492 800 m 2
 486 782 496 768 514 768 c 2
 1122 768 l 2
 1139 768 1158 782 1164 800 c 2
 1185 864 l 2
 1191 882 1181 896 1163 896 c 2
 555 896 l 2
 538 896 519 882 513 864 c 2
 492 800 l 2
EndSplineSet
EndChar

StartChar: bookmark
Encoding: 61486 61486 56
Width: 1280
Flags: MW
VStem: 0 1280<7 1296>
LayerCount: 2
Fore
SplineSet
1164 1408 m 0
 1179 1408 1194 1405 1208 1399 c 0
 1252 1382 1280 1341 1280 1296 c 2
 1280 7 l 2
 1280 -38 1252 -79 1208 -96 c 0
 1194 -102 1179 -104 1164 -104 c 0
 1133 -104 1104 -93 1081 -72 c 2
 640 352 l 1
 199 -72 l 2
 176 -93 147 -105 116 -105 c 0
 101 -105 86 -102 72 -96 c 0
 28 -79 0 -38 0 7 c 2
 0 1296 l 2
 0 1341 28 1382 72 1399 c 0
 86 1405 101 1408 116 1408 c 0
 147 1408 1133 1408 1164 1408 c 0
EndSplineSet
EndChar

StartChar: print
Encoding: 61487 61487 57
Width: 1664
Flags: MW
VStem: 256 128<0 0 0 128 128 128 768 1280> 1280 128<0 128 768 1024> 1536 128<558.5 576>
LayerCount: 2
Fore
SplineSet
384 0 m 1
 1280 0 l 1
 1280 256 l 1
 384 256 l 1
 384 0 l 1
384 640 m 1
 1280 640 l 1
 1280 1024 l 1
 1120 1024 l 2
 1067 1024 1024 1067 1024 1120 c 2
 1024 1280 l 1
 384 1280 l 1
 384 640 l 1
1536 576 m 0
 1536 611 1507 640 1472 640 c 0
 1437 640 1408 611 1408 576 c 0
 1408 541 1437 512 1472 512 c 0
 1507 512 1536 541 1536 576 c 0
1664 576 m 2
 1664 160 l 2
 1664 143 1649 128 1632 128 c 2
 1408 128 l 1
 1408 -32 l 2
 1408 -85 1365 -128 1312 -128 c 2
 352 -128 l 2
 299 -128 256 -85 256 -32 c 2
 256 128 l 1
 32 128 l 2
 15 128 0 143 0 160 c 2
 0 576 l 2
 0 681 87 768 192 768 c 2
 256 768 l 1
 256 1312 l 2
 256 1365 299 1408 352 1408 c 2
 1024 1408 l 2
 1077 1408 1150 1378 1188 1340 c 2
 1340 1188 l 2
 1378 1150 1408 1077 1408 1024 c 2
 1408 768 l 1
 1472 768 l 2
 1577 768 1664 681 1664 576 c 2
EndSplineSet
EndChar

StartChar: camera
Encoding: 61488 61488 58
Width: 1920
Flags: MW
VStem: 0 1920<128 1024 57.5 1094.5>
LayerCount: 2
Fore
SplineSet
960 864 m 0
 1119 864 1248 735 1248 576 c 0
 1248 417 1119 288 960 288 c 0
 801 288 672 417 672 576 c 0
 672 735 801 864 960 864 c 0
1664 1280 m 2
 1805 1280 1920 1165 1920 1024 c 2
 1920 128 l 2
 1920 -13 1805 -128 1664 -128 c 2
 256 -128 l 2
 115 -128 0 -13 0 128 c 2
 0 1024 l 2
 0 1165 115 1280 256 1280 c 2
 480 1280 l 1
 531 1416 l 2
 556 1482 634 1536 704 1536 c 2
 1216 1536 l 2
 1286 1536 1364 1482 1389 1416 c 2
 1440 1280 l 1
 1664 1280 l 2
960 128 m 0
 1207 128 1408 329 1408 576 c 0
 1408 823 1207 1024 960 1024 c 0
 713 1024 512 823 512 576 c 0
 512 329 713 128 960 128 c 0
EndSplineSet
EndChar

StartChar: font
Encoding: 61489 61489 59
Width: 1664
Flags: MW
VStem: 0 1664<-128 -92.5>
LayerCount: 2
Fore
SplineSet
725 977 m 1
 555 527 l 1
 654 526 753 523 852 523 c 0
 871 523 890 524 909 525 c 1x80
 857 677 796 832 725 977 c 1
0 -128 m 1
 2 -49 l 1
 96 -20 198 -40 240 68 c 2
 477 684 l 1
 757 1408 l 1
 832 1408 l 1
 885 1408 l 1
 889 1401 893 1394 896 1387 c 2
 1101 907 l 2
 1176 730 1245 551 1321 375 c 0
 1366 271 1401 164 1451 62 c 0
 1458 46 1472 16 1486 5 c 0
 1519 -21 1611 -27 1658 -45 c 1
 1661 -64 1664 -83 1664 -102 c 0
 1664 -111 1663 -119 1663 -128 c 1
 1536 -128 1409 -112 1282 -112 c 0
 1151 -112 1020 -123 889 -127 c 1
 889 -101 890 -75 893 -49 c 1
 1024 -21 l 2
 1051 -15 1104 -8 1104 29 c 0
 1104 65 975 362 959 403 c 1
 509 405 l 1
 483 347 382 85 382 47 c 0
 382 -30 529 -33 586 -41 c 1
 587 -60 587 -79 587 -99 c 0
 587 -108 586 -117 585 -126 c 1
 469 -126 352 -106 236 -106 c 0
 222 -106 202 -112 188 -114 c 0
 125 -125 63 -128 0 -128 c 1
EndSplineSet
EndChar

StartChar: bold
Encoding: 61490 61490 60
Width: 1408
Flags: MW
VStem: 223 317<205.5 381.5> 1003 323<949.5 1140.5> 1071 337<196 349>
LayerCount: 2
Fore
SplineSet
555 15 m 1xc0
 599 -4 647 -17 695 -17 c 0
 923 -17 1071 74 1071 318 c 0
 1071 380 1063 445 1030 498 c 0
 937 648 803 656 642 656 c 0
 612 656 569 656 541 646 c 1
 541 540 540 434 540 329 c 0
 540 260 531 73 555 15 c 1xc0
541 761 m 1
 577 755 614 754 650 754 c 0
 856 754 1003 812 1003 1043 c 0
 1003 1238 830 1305 663 1305 c 0
 619 1305 576 1299 533 1292 c 1xc0
 533 1191 541 1090 541 989 c 0
 541 936 540 883 540 830 c 0xa0
 540 807 540 784 541 761 c 1
0 -128 m 1
 2 -34 l 1
 66 -18 131 -17 193 9 c 1
 228 68 223 172 223 239 c 0
 223 261 225 1217 201 1264 c 0xc0
 186 1293 39 1300 6 1304 c 1
 2 1387 l 1
 240 1391 478 1408 715 1408 c 0xa0
 760 1408 806 1407 851 1407 c 0
 1077 1407 1326 1299 1326 1039 c 0
 1326 860 1190 793 1049 729 c 1
 1239 686 1408 557 1408 347 c 0
 1408 3 1095 -111 802 -111 c 0
 714 -111 626 -105 538 -105 c 0
 359 -105 178 -121 0 -128 c 1
EndSplineSet
EndChar

StartChar: italic
Encoding: 61491 61491 61
Width: 1024
Flags: MW
VStem: 0 1024
LayerCount: 2
Fore
SplineSet
0 -126 m 1
 17 -41 l 1
 81 -21 150 -13 210 18 c 1
 233 47 244 84 251 119 c 0
 264 187 482 1168 479 1248 c 2
 479 1273 l 1
 424 1303 357 1295 297 1305 c 1
 316 1408 l 1
 445 1402 576 1392 706 1392 c 0
 812 1392 918 1402 1024 1408 c 1
 1020 1378 1013 1348 1005 1319 c 1
 936 1295 863 1284 795 1257 c 1
 773 1203 768 1144 758 1087 c 0
 710 828 646 569 593 312 c 0
 583 264 534 65 538 23 c 2
 539 5 l 1
 600 -9 662 -16 724 -26 c 1
 722 -59 716 -92 708 -125 c 1
 686 -125 665 -128 643 -128 c 0
 586 -128 527 -109 470 -108 c 0x80
 401 -107 332 -106 264 -106 c 0
 175 -106 88 -121 0 -126 c 1
EndSplineSet
EndChar

StartChar: text_height
Encoding: 61492 61492 62
Width: 1792
Flags: MW
VStem: 0 119 507 258 1536 128<128 1152 128 1152>
LayerCount: 2
Fore
SplineSet
1744 128 m 2
 1788 128 1802 100 1775 65 c 2
 1649 -97 l 2
 1622 -132 1578 -132 1551 -97 c 2
 1425 65 l 2
 1398 100 1412 128 1456 128 c 2
 1536 128 l 1
 1536 1152 l 1
 1456 1152 l 2
 1412 1152 1398 1180 1425 1215 c 2
 1551 1377 l 2
 1578 1412 1622 1412 1649 1377 c 2xe0
 1775 1215 l 2
 1802 1180 1788 1152 1744 1152 c 2
 1664 1152 l 1
 1664 128 l 1
 1744 128 l 2
81 1407 m 1
 135 1380 l 2
 142 1377 325 1375 346 1375 c 0
 434 1375 522 1379 610 1379 c 0
 682 1379 753 1378 825 1378 c 2
 1118 1378 l 2
 1158 1378 1181 1369 1208 1407 c 1
 1250 1408 l 2
 1259 1408 1269 1407 1278 1407 c 1
 1280 1295 1280 1183 1280 1071 c 0
 1280 1036 1281 997 1275 962 c 1
 1253 954 1230 947 1207 944 c 1
 1184 984 1168 1028 1153 1072 c 0
 1146 1092 1122 1227 1120 1229 c 0
 1099 1255 1076 1250 1045 1250 c 0
 954 1250 859 1254 769 1243 c 1
 764 1199 760 1152 761 1107 c 0
 762 826 765 545 765 264 c 0
 765 187 753 106 775 32 c 1
 851 -7 941 -13 1019 -48 c 1
 1021 -64 1024 -81 1024 -98 c 0
 1024 -107 1023 -117 1021 -127 c 1
 987 -128 l 2
 845 -132 705 -110 562 -110 c 0
 461 -110 360 -128 259 -128 c 1
 258 -111 256 -93 256 -76 c 2
 256 -67 l 1
 294 -6 431 -5 494 32 c 1
 516 81 513 352 513 415 c 0
 513 617 507 819 507 1021 c 2
 507 1138 l 2
 507 1156 511 1228 499 1242 c 0
 485 1257 354 1254 337 1254 c 0
 300 1254 193 1237 164 1216 c 0
 116 1183 116 983 56 979 c 1
 38 990 13 1006 0 1023 c 1
 0 1406 l 1
 81 1407 l 1
EndSplineSet
EndChar

StartChar: text_width
Encoding: 61493 61493 63
Width: 1536
Flags: MW
VStem: 0 119 640 253
LayerCount: 2
Fore
SplineSet
81 1407 m 1
 135 1380 l 2
 142 1377 325 1375 346 1375 c 0
 434 1375 522 1379 610 1379 c 0
 875 1379 1143 1385 1408 1376 c 0
 1430 1375 1451 1389 1464 1407 c 1
 1506 1408 l 2
 1515 1408 1525 1407 1534 1407 c 1
 1536 1295 1536 1183 1536 1071 c 0
 1536 1035 1537 997 1531 962 c 1
 1509 954 1486 947 1463 944 c 1
 1440 984 1424 1028 1409 1072 c 0
 1402 1092 1377 1227 1376 1229 c 0
 1369 1238 1360 1244 1349 1248 c 0
 1341 1251 1293 1250 1283 1250 c 0
 1160 1250 1018 1257 897 1243 c 1
 892 1199 888 1152 889 1107 c 2
 890 955 l 1
 890 1007 l 1
 891 844 893 682 893 520 c 0
 893 443 881 362 903 288 c 1
 979 249 1069 243 1147 208 c 1
 1149 192 1152 175 1152 158 c 0
 1152 149 1151 139 1149 129 c 1
 1115 128 l 2
 973 124 833 146 690 146 c 0
 589 146 488 128 387 128 c 1
 386 145 384 163 384 180 c 2
 384 189 l 1
 422 250 559 251 622 288 c 1
 647 344 640 817 640 905 c 0
 640 919 635 934 635 949 c 0
 635 990 642 1225 627 1242 c 0
 613 1257 482 1254 465 1254 c 0
 423 1254 188 1232 164 1216 c 0
 117 1185 116 984 56 979 c 1
 38 990 13 1006 0 1023 c 1
 0 1406 l 1
 81 1407 l 1
1310 125 m 0
 1345 125 1478 6 1505 -15 c 0
 1520 -27 1531 -44 1531 -64 c 0
 1531 -84 1520 -101 1505 -113 c 0
 1478 -134 1345 -253 1310 -253 c 0
 1264 -253 1280 -146 1280 -128 c 1
 256 -128 l 1
 256 -146 272 -253 226 -253 c 0
 191 -253 58 -134 31 -113 c 0
 16 -101 5 -84 5 -64 c 0
 5 -44 16 -27 31 -15 c 0
 58 6 191 125 226 125 c 0
 272 125 256 18 256 0 c 1
 1280 0 l 1
 1280 18 1264 125 1310 125 c 0
EndSplineSet
EndChar

StartChar: align_left
Encoding: 61494 61494 64
Width: 1792
Flags: MW
VStem: 0 1792<64 192 46.5 209.5 46.5 576 46.5 593.5 46.5 960 46.5 977.5 46.5 1344 46.5 1361.5>
LayerCount: 2
Fore
SplineSet
1792 192 m 2
 1792 64 l 2
 1792 29 1763 0 1728 0 c 2
 64 0 l 2
 29 0 0 29 0 64 c 2
 0 192 l 2
 0 227 29 256 64 256 c 2
 1728 256 l 2
 1763 256 1792 227 1792 192 c 2
1408 576 m 2
 1408 448 l 2
 1408 413 1379 384 1344 384 c 2
 64 384 l 2
 29 384 0 413 0 448 c 2
 0 576 l 2
 0 611 29 640 64 640 c 2
 1344 640 l 2
 1379 640 1408 611 1408 576 c 2
1664 960 m 2
 1664 832 l 2
 1664 797 1635 768 1600 768 c 2
 64 768 l 2
 29 768 0 797 0 832 c 2
 0 960 l 2
 0 995 29 1024 64 1024 c 2
 1600 1024 l 2
 1635 1024 1664 995 1664 960 c 2
1280 1344 m 2
 1280 1216 l 2
 1280 1181 1251 1152 1216 1152 c 2
 64 1152 l 2
 29 1152 0 1181 0 1216 c 2
 0 1344 l 2
 0 1379 29 1408 64 1408 c 2
 1216 1408 l 2
 1251 1408 1280 1379 1280 1344 c 2
EndSplineSet
EndChar

StartChar: align_center
Encoding: 61495 61495 65
Width: 1792
Flags: MW
VStem: 0 1792<64 192 46.5 209.5>
LayerCount: 2
Fore
SplineSet
1792 192 m 2
 1792 64 l 2
 1792 29 1763 0 1728 0 c 2
 64 0 l 2
 29 0 0 29 0 64 c 2
 0 192 l 2
 0 227 29 256 64 256 c 2
 1728 256 l 2
 1763 256 1792 227 1792 192 c 2
1408 576 m 2
 1408 448 l 2
 1408 413 1379 384 1344 384 c 2
 448 384 l 2
 413 384 384 413 384 448 c 2
 384 576 l 2
 384 611 413 640 448 640 c 2
 1344 640 l 2
 1379 640 1408 611 1408 576 c 2
1664 960 m 2
 1664 832 l 2
 1664 797 1635 768 1600 768 c 2
 192 768 l 2
 157 768 128 797 128 832 c 2
 128 960 l 2
 128 995 157 1024 192 1024 c 2
 1600 1024 l 2
 1635 1024 1664 995 1664 960 c 2
1280 1344 m 2
 1280 1216 l 2
 1280 1181 1251 1152 1216 1152 c 2
 576 1152 l 2
 541 1152 512 1181 512 1216 c 2
 512 1344 l 2
 512 1379 541 1408 576 1408 c 2
 1216 1408 l 2
 1251 1408 1280 1379 1280 1344 c 2
EndSplineSet
EndChar

StartChar: align_right
Encoding: 61496 61496 66
Width: 1792
Flags: MW
VStem: 0 1792<64 192 46.5 209.5>
LayerCount: 2
Fore
SplineSet
1792 192 m 2
 1792 64 l 2
 1792 29 1763 0 1728 0 c 2
 64 0 l 2
 29 0 0 29 0 64 c 2
 0 192 l 2
 0 227 29 256 64 256 c 2
 1728 256 l 2
 1763 256 1792 227 1792 192 c 2
1792 576 m 2
 1792 448 l 2
 1792 413 1763 384 1728 384 c 2
 448 384 l 2
 413 384 384 413 384 448 c 2
 384 576 l 2
 384 611 413 640 448 640 c 2
 1728 640 l 2
 1763 640 1792 611 1792 576 c 2
1792 960 m 2
 1792 832 l 2
 1792 797 1763 768 1728 768 c 2
 192 768 l 2
 157 768 128 797 128 832 c 2
 128 960 l 2
 128 995 157 1024 192 1024 c 2
 1728 1024 l 2
 1763 1024 1792 995 1792 960 c 2
1792 1344 m 2
 1792 1216 l 2
 1792 1181 1763 1152 1728 1152 c 2
 576 1152 l 2
 541 1152 512 1181 512 1216 c 2
 512 1344 l 2
 512 1379 541 1408 576 1408 c 2
 1728 1408 l 2
 1763 1408 1792 1379 1792 1344 c 2
EndSplineSet
EndChar

StartChar: align_justify
Encoding: 61497 61497 67
Width: 1792
Flags: MW
VStem: 0 1792<64 192 46.5 209.5 448 576 46.5 593.5 832 960 46.5 977.5 1216 1344 46.5 1361.5>
LayerCount: 2
Fore
SplineSet
1792 192 m 2
 1792 64 l 2
 1792 29 1763 0 1728 0 c 2
 64 0 l 2
 29 0 0 29 0 64 c 2
 0 192 l 2
 0 227 29 256 64 256 c 2
 1728 256 l 2
 1763 256 1792 227 1792 192 c 2
1792 576 m 2
 1792 448 l 2
 1792 413 1763 384 1728 384 c 2
 64 384 l 2
 29 384 0 413 0 448 c 2
 0 576 l 2
 0 611 29 640 64 640 c 2
 1728 640 l 2
 1763 640 1792 611 1792 576 c 2
1792 960 m 2
 1792 832 l 2
 1792 797 1763 768 1728 768 c 2
 64 768 l 2
 29 768 0 797 0 832 c 2
 0 960 l 2
 0 995 29 1024 64 1024 c 2
 1728 1024 l 2
 1763 1024 1792 995 1792 960 c 2
1792 1344 m 2
 1792 1216 l 2
 1792 1181 1763 1152 1728 1152 c 2
 64 1152 l 2
 29 1152 0 1181 0 1216 c 2
 0 1344 l 2
 0 1379 29 1408 64 1408 c 2
 1728 1408 l 2
 1763 1408 1792 1379 1792 1344 c 2
EndSplineSet
EndChar

StartChar: list
Encoding: 61498 61498 68
Width: 1792
Flags: MW
VStem: 0 256<32 224 23.5 232.5 416 608 800 992 1184 1376>
LayerCount: 2
Fore
SplineSet
256 224 m 2
 256 32 l 2
 256 15 241 0 224 0 c 2
 32 0 l 2
 15 0 0 15 0 32 c 2
 0 224 l 2
 0 241 15 256 32 256 c 2
 224 256 l 2
 241 256 256 241 256 224 c 2
256 608 m 2
 256 416 l 2
 256 399 241 384 224 384 c 2
 32 384 l 2
 15 384 0 399 0 416 c 2
 0 608 l 2
 0 625 15 640 32 640 c 2
 224 640 l 2
 241 640 256 625 256 608 c 2
256 992 m 2
 256 800 l 2
 256 783 241 768 224 768 c 2
 32 768 l 2
 15 768 0 783 0 800 c 2
 0 992 l 2
 0 1009 15 1024 32 1024 c 2
 224 1024 l 2
 241 1024 256 1009 256 992 c 2
1792 224 m 2
 1792 32 l 2
 1792 15 1777 0 1760 0 c 2
 416 0 l 2
 399 0 384 15 384 32 c 2
 384 224 l 2
 384 241 399 256 416 256 c 2
 1760 256 l 2
 1777 256 1792 241 1792 224 c 2
256 1376 m 2
 256 1184 l 2
 256 1167 241 1152 224 1152 c 2
 32 1152 l 2
 15 1152 0 1167 0 1184 c 2
 0 1376 l 2
 0 1393 15 1408 32 1408 c 2
 224 1408 l 2
 241 1408 256 1393 256 1376 c 2
1792 608 m 2
 1792 416 l 2
 1792 399 1777 384 1760 384 c 2
 416 384 l 2
 399 384 384 399 384 416 c 2
 384 608 l 2
 384 625 399 640 416 640 c 2
 1760 640 l 2
 1777 640 1792 625 1792 608 c 2
1792 992 m 2
 1792 800 l 2
 1792 783 1777 768 1760 768 c 2
 416 768 l 2
 399 768 384 783 384 800 c 2
 384 992 l 2
 384 1009 399 1024 416 1024 c 2
 1760 1024 l 2
 1777 1024 1792 1009 1792 992 c 2
1792 1376 m 2
 1792 1184 l 2
 1792 1167 1777 1152 1760 1152 c 2
 416 1152 l 2
 399 1152 384 1167 384 1184 c 2
 384 1376 l 2
 384 1393 399 1408 416 1408 c 2
 1760 1408 l 2
 1777 1408 1792 1393 1792 1376 c 2
EndSplineSet
EndChar

StartChar: indent_left
Encoding: 61499 61499 69
Width: 1792
Flags: MW
VStem: 0 1792<32 224 23.5 232.5 1184 1376 23.5 1384.5>
LayerCount: 2
Fore
SplineSet
384 992 m 2
 384 416 l 2
 384 399 369 384 352 384 c 0
 344 384 335 387 329 393 c 2
 41 681 l 2
 35 687 32 696 32 704 c 0
 32 712 35 721 41 727 c 2
 329 1015 l 2
 335 1021 344 1024 352 1024 c 0
 369 1024 384 1009 384 992 c 2
1792 224 m 2
 1792 32 l 2
 1792 15 1777 0 1760 0 c 2
 32 0 l 2
 15 0 0 15 0 32 c 2
 0 224 l 2
 0 241 15 256 32 256 c 2
 1760 256 l 2
 1777 256 1792 241 1792 224 c 2
1792 608 m 2
 1792 416 l 2
 1792 399 1777 384 1760 384 c 2
 672 384 l 2
 655 384 640 399 640 416 c 2
 640 608 l 2
 640 625 655 640 672 640 c 2
 1760 640 l 2
 1777 640 1792 625 1792 608 c 2
1792 992 m 2
 1792 800 l 2
 1792 783 1777 768 1760 768 c 2
 672 768 l 2
 655 768 640 783 640 800 c 2
 640 992 l 2
 640 1009 655 1024 672 1024 c 2
 1760 1024 l 2
 1777 1024 1792 1009 1792 992 c 2
1792 1376 m 2
 1792 1184 l 2
 1792 1167 1777 1152 1760 1152 c 2
 32 1152 l 2
 15 1152 0 1167 0 1184 c 2
 0 1376 l 2
 0 1393 15 1408 32 1408 c 2
 1760 1408 l 2
 1777 1408 1792 1393 1792 1376 c 2
EndSplineSet
EndChar

StartChar: indent_right
Encoding: 61500 61500 70
Width: 1792
Flags: MW
VStem: 0 1792<32 224 23.5 232.5 416 608 791.5 800 800 992 23.5 1000.5 1184 1376 23.5 1384.5>
LayerCount: 2
Fore
SplineSet
352 704 m 0
 352 696 349 687 343 681 c 2
 55 393 l 2
 49 387 40 384 32 384 c 0
 15 384 0 399 0 416 c 2
 0 992 l 2
 0 1009 15 1024 32 1024 c 0
 40 1024 49 1021 55 1015 c 2
 343 727 l 2
 349 721 352 712 352 704 c 0
1792 224 m 2
 1792 32 l 2
 1792 15 1777 0 1760 0 c 2
 32 0 l 2
 15 0 0 15 0 32 c 2
 0 224 l 2
 0 241 15 256 32 256 c 2
 1760 256 l 2
 1777 256 1792 241 1792 224 c 2
1792 608 m 2
 1792 416 l 2
 1792 399 1777 384 1760 384 c 2
 672 384 l 2
 655 384 640 399 640 416 c 2
 640 608 l 2
 640 625 655 640 672 640 c 2
 1760 640 l 2
 1777 640 1792 625 1792 608 c 2
1792 992 m 2
 1792 800 l 2
 1792 783 1777 768 1760 768 c 2
 672 768 l 2
 655 768 640 783 640 800 c 2
 640 992 l 2
 640 1009 655 1024 672 1024 c 2
 1760 1024 l 2
 1777 1024 1792 1009 1792 992 c 2
1792 1376 m 2
 1792 1184 l 2
 1792 1167 1777 1152 1760 1152 c 2
 32 1152 l 2
 15 1152 0 1167 0 1184 c 2
 0 1376 l 2
 0 1393 15 1408 32 1408 c 2
 1760 1408 l 2
 1777 1408 1792 1393 1792 1376 c 2
EndSplineSet
EndChar

StartChar: facetime_video
Encoding: 61501 61501 71
Width: 1792
Flags: MW
VStem: 0 1792<288 992 992 1071.5>
LayerCount: 2
Fore
SplineSet
1792 1184 m 2
 1792 96 l 2
 1792 70 1776 47 1753 37 c 0
 1745 34 1736 32 1728 32 c 0
 1711 32 1695 38 1683 51 c 2
 1280 454 l 1
 1280 288 l 2
 1280 129 1151 0 992 0 c 2
 288 0 l 2
 129 0 0 129 0 288 c 2
 0 992 l 2
 0 1151 129 1280 288 1280 c 2
 992 1280 l 2
 1151 1280 1280 1151 1280 992 c 2
 1280 827 l 1
 1683 1229 l 2
 1695 1242 1711 1248 1728 1248 c 0
 1736 1248 1745 1246 1753 1243 c 0
 1776 1233 1792 1210 1792 1184 c 2
EndSplineSet
EndChar

StartChar: picture
Encoding: 61502 61502 72
Width: 1920
Flags: MW
VStem: 0 128<32 1248> 1792 128<32 1248>
LayerCount: 2
Fore
SplineSet
640 960 m 0
 640 854 554 768 448 768 c 0
 342 768 256 854 256 960 c 0
 256 1066 342 1152 448 1152 c 0
 554 1152 640 1066 640 960 c 0
1664 576 m 1
 1664 128 l 1
 256 128 l 1
 256 320 l 1
 576 640 l 1
 736 480 l 1
 1248 992 l 1
 1664 576 l 1
1760 1280 m 2
 160 1280 l 2
 143 1280 128 1265 128 1248 c 2
 128 32 l 2
 128 15 143 0 160 0 c 2
 1760 0 l 2
 1777 0 1792 15 1792 32 c 2
 1792 1248 l 2
 1792 1265 1777 1280 1760 1280 c 2
1920 1248 m 2
 1920 32 l 2
 1920 -56 1848 -128 1760 -128 c 2
 160 -128 l 2
 72 -128 0 -56 0 32 c 2
 0 1248 l 2
 0 1336 72 1408 160 1408 c 2
 1760 1408 l 1
 1760 1408 l 1
 1848 1408 1920 1336 1920 1248 c 2
EndSplineSet
EndChar

StartChar: pencil
Encoding: 61504 61504 73
Width: 1536
Flags: MW
VStem: 0 128<128 235 128 288 128 288>
LayerCount: 2
Fore
SplineSet
363 0 m 1
 454 91 l 1
 219 326 l 1
 128 235 l 1
 128 128 l 1
 256 128 l 1
 256 0 l 1
 363 0 l 1
886 928 m 0
 886 941 877 950 864 950 c 0
 858 950 852 948 847 943 c 2
 305 401 l 2
 300 396 298 390 298 384 c 0
 298 371 307 362 320 362 c 0
 326 362 332 364 337 369 c 2
 879 911 l 2
 884 916 886 922 886 928 c 0
832 1120 m 1
 1248 704 l 1
 416 -128 l 1
 0 -128 l 1
 0 288 l 1
 832 1120 l 1
1515 1024 m 0
 1515 990 1501 957 1478 934 c 2
 1312 768 l 1
 896 1184 l 1
 1062 1349 l 2
 1085 1373 1118 1387 1152 1387 c 0
 1186 1387 1219 1373 1243 1349 c 2
 1478 1115 l 2
 1501 1091 1515 1058 1515 1024 c 0
EndSplineSet
EndChar

StartChar: map_marker
Encoding: 61505 61505 74
Width: 1024
Flags: MW
VStem: 0 256<865.5 966.5 825.5 1037.5> 768 256<865.5 966.5>
LayerCount: 2
Fore
SplineSet
768 896 m 0
 768 1037 653 1152 512 1152 c 0
 371 1152 256 1037 256 896 c 0
 256 755 371 640 512 640 c 0
 653 640 768 755 768 896 c 0
1024 896 m 0
 1024 835 1017 772 991 717 c 2
 627 -57 l 2
 606 -101 560 -128 512 -128 c 0
 464 -128 418 -101 398 -57 c 2
 33 717 l 2
 7 772 0 835 0 896 c 0
 0 1179 229 1408 512 1408 c 0
 795 1408 1024 1179 1024 896 c 0
EndSplineSet
EndChar

StartChar: adjust
Encoding: 61506 61506 75
Width: 1536
Flags: MW
VStem: 0 224<490 790 490 852>
LayerCount: 2
Fore
SplineSet
768 96 m 1
 768 1184 l 1
 468 1184 224 940 224 640 c 0
 224 340 468 96 768 96 c 1
1536 640 m 0
 1536 216 1192 -128 768 -128 c 0
 344 -128 0 216 0 640 c 0
 0 1064 344 1408 768 1408 c 0
 1192 1408 1536 1064 1536 640 c 0
EndSplineSet
EndChar

StartChar: tint
Encoding: 61507 61507 76
Width: 1024
Flags: MW
VStem: 0 256<370.5 396.5 348.5 562.5> 0 1024<370.5 562.5>
LayerCount: 2
Fore
SplineSet
512 384 m 0x40
 512 409 504 433 492 453 c 0
 479 473 426 541 405 608 c 0
 402 619 392 624 384 624 c 0
 376 624 366 619 363 608 c 0
 342 541 289 473 276 453 c 0x80
 264 433 256 409 256 384 c 0
 256 313 313 256 384 256 c 0
 455 256 512 313 512 384 c 0x40
1024 512 m 0x40
 1024 229 795 0 512 0 c 0x40
 229 0 0 229 0 512 c 0x80
 0 613 31 707 81 787 c 0
 132 867 346 1138 427 1408 c 0
 440 1451 480 1472 512 1472 c 0
 544 1472 585 1451 597 1408 c 0
 678 1138 892 867 943 787 c 0
 994 707 1024 613 1024 512 c 0x40
EndSplineSet
EndChar

StartChar: edit
Encoding: 61508 61508 77
Width: 1792
Flags: MW
VStem: 0 128<288 1120> 640 96<448 504 448 544 448 544> 1280 128<288 414 414 418>
LayerCount: 2
Fore
SplineSet
888 352 m 1
 1004 468 l 1
 852 620 l 1
 736 504 l 1
 736 448 l 1
 832 448 l 1
 832 352 l 1
 888 352 l 1
1328 1072 m 0
 1319 1081 1304 1080 1295 1071 c 2
 945 721 l 2
 936 712 935 697 944 688 c 0
 953 679 968 680 977 689 c 2
 1327 1039 l 2
 1336 1048 1337 1063 1328 1072 c 0
1408 478 m 2
 1408 288 l 2
 1408 129 1279 0 1120 0 c 2
 288 0 l 2
 129 0 0 129 0 288 c 2
 0 1120 l 2
 0 1279 129 1408 288 1408 c 2
 1120 1408 l 2
 1160 1408 1200 1400 1237 1383 c 0
 1246 1379 1253 1370 1255 1360 c 0
 1257 1349 1254 1339 1246 1331 c 2
 1197 1282 l 2
 1188 1273 1176 1270 1165 1274 c 0
 1150 1278 1135 1280 1120 1280 c 2
 288 1280 l 2
 200 1280 128 1208 128 1120 c 2
 128 288 l 2
 128 200 200 128 288 128 c 2
 1120 128 l 2
 1208 128 1280 200 1280 288 c 2
 1280 414 l 2
 1280 422 1283 430 1289 436 c 2
 1353 500 l 2
 1363 510 1376 512 1388 507 c 0
 1400 502 1408 491 1408 478 c 2
1312 1216 m 1
 1600 928 l 1
 928 256 l 1
 640 256 l 1
 640 544 l 1
 1312 1216 l 1
1756 1084 m 2
 1664 992 l 1
 1376 1280 l 1
 1468 1372 l 2
 1505 1409 1567 1409 1604 1372 c 2
 1756 1220 l 2
 1793 1183 1793 1121 1756 1084 c 2
EndSplineSet
EndChar

StartChar: share
Encoding: 61509 61509 78
Width: 1664
Flags: MW
VStem: 0 128<288 1120> 256 211 1280 128<288 502 502 508>
LayerCount: 2
Fore
SplineSet
1408 547 m 2
 1408 288 l 2
 1408 129 1279 0 1120 0 c 2
 288 0 l 2
 129 0 0 129 0 288 c 2
 0 1120 l 2
 0 1279 129 1408 288 1408 c 2
 543 1408 l 1
 543 1408 543 1408 543 1408 c 1
 543 1408 543 1408 543 1408 c 1
 560 1408 575 1394 575 1376 c 0
 575 1360 564 1347 549 1344 c 0
 499 1327 454 1307 416 1284 c 0
 411 1282 406 1280 400 1280 c 2
 288 1280 l 2
 200 1280 128 1208 128 1120 c 2
 128 288 l 2
 128 200 200 128 288 128 c 2
 1120 128 l 2
 1208 128 1280 200 1280 288 c 2
 1280 502 l 2
 1280 514 1287 525 1298 531 c 0
 1318 540 1336 553 1352 568 c 0
 1361 577 1375 581 1387 576 c 0
 1399 571 1408 560 1408 547 c 2
1645 1043 m 2
 1261 659 l 2
 1249 646 1233 640 1216 640 c 0
 1208 640 1199 642 1191 645 c 0
 1168 655 1152 678 1152 704 c 2
 1152 896 l 1
 992 896 l 2
 772 896 632 854 554 765 c 0
 473 672 449 522 480 292 c 0
 482 278 473 264 460 258 c 0
 456 257 452 256 448 256 c 0
 438 256 428 261 422 269 c 0
 415 279 256 504 256 704 c 0
 256 972 340 1280 992 1280 c 2
 1152 1280 l 1
 1152 1472 l 2
 1152 1498 1168 1521 1191 1531 c 0
 1199 1534 1208 1536 1216 1536 c 0
 1233 1536 1249 1529 1261 1517 c 2
 1645 1133 l 2
 1670 1108 1670 1068 1645 1043 c 2
EndSplineSet
EndChar

StartChar: check
Encoding: 61510 61510 79
Width: 1664
Flags: MW
VStem: 0 128<288 1120> 1280 128<288 542 542 546>
LayerCount: 2
Fore
SplineSet
1408 606 m 2
 1408 288 l 2
 1408 129 1279 0 1120 0 c 2
 288 0 l 2
 129 0 0 129 0 288 c 2
 0 1120 l 2
 0 1279 129 1408 288 1408 c 2
 1120 1408 l 2
 1160 1408 1200 1400 1237 1383 c 0
 1246 1379 1253 1370 1255 1360 c 0
 1257 1349 1254 1339 1246 1331 c 2
 1197 1282 l 2
 1191 1276 1182 1272 1174 1272 c 0
 1171 1272 1168 1273 1165 1274 c 0
 1150 1278 1135 1280 1120 1280 c 2
 288 1280 l 2
 200 1280 128 1208 128 1120 c 2
 128 288 l 2
 128 200 200 128 288 128 c 2
 1120 128 l 2
 1208 128 1280 200 1280 288 c 2
 1280 542 l 2
 1280 550 1283 558 1289 564 c 2
 1353 628 l 2
 1360 635 1368 638 1376 638 c 0
 1380 638 1384 637 1388 635 c 0
 1400 630 1408 619 1408 606 c 2
1639 1095 m 2
 825 281 l 2
 793 249 743 249 711 281 c 2
 281 711 l 2
 249 743 249 793 281 825 c 2
 391 935 l 2
 423 967 473 967 505 935 c 2
 768 672 l 1
 1415 1319 l 2
 1447 1351 1497 1351 1529 1319 c 2
 1639 1209 l 2
 1671 1177 1671 1127 1639 1095 c 2
EndSplineSet
EndChar

StartChar: move
Encoding: 61511 61511 80
Width: 1792
Flags: MW
VStem: 768 256<128 512 128 512 768 1152>
LayerCount: 2
Fore
SplineSet
1792 640 m 0
 1792 623 1785 607 1773 595 c 2
 1517 339 l 2
 1505 327 1489 320 1472 320 c 0
 1437 320 1408 349 1408 384 c 2
 1408 512 l 1
 1024 512 l 1
 1024 128 l 1
 1152 128 l 2
 1187 128 1216 99 1216 64 c 0
 1216 47 1209 31 1197 19 c 2
 941 -237 l 2
 929 -249 913 -256 896 -256 c 0
 879 -256 863 -249 851 -237 c 2
 595 19 l 2
 583 31 576 47 576 64 c 0
 576 99 605 128 640 128 c 2
 768 128 l 1
 768 512 l 1
 384 512 l 1
 384 384 l 2
 384 349 355 320 320 320 c 0
 303 320 287 327 275 339 c 2
 19 595 l 2
 7 607 0 623 0 640 c 0
 0 657 7 673 19 685 c 2
 275 941 l 2
 287 953 303 960 320 960 c 0
 355 960 384 931 384 896 c 2
 384 768 l 1
 768 768 l 1
 768 1152 l 1
 640 1152 l 2
 605 1152 576 1181 576 1216 c 0
 576 1233 583 1249 595 1261 c 2
 851 1517 l 2
 863 1529 879 1536 896 1536 c 0
 913 1536 929 1529 941 1517 c 2
 1197 1261 l 2
 1209 1249 1216 1233 1216 1216 c 0
 1216 1181 1187 1152 1152 1152 c 2
 1024 1152 l 1
 1024 768 l 1
 1408 768 l 1
 1408 896 l 2
 1408 931 1437 960 1472 960 c 0
 1489 960 1505 953 1517 941 c 2
 1773 685 l 2
 1785 673 1792 657 1792 640 c 0
EndSplineSet
EndChar

StartChar: step_backward
Encoding: 61512 61512 81
Width: 1024
Flags: MW
VStem: 0 256<-64 614 666 1344>
LayerCount: 2
Fore
SplineSet
979 1395 m 2
 1004 1420 1024 1411 1024 1376 c 2
 1024 -96 l 2
 1024 -131 1004 -140 979 -115 c 2
 269 595 l 2
 263 601 259 607 256 614 c 1
 256 -64 l 2
 256 -99 227 -128 192 -128 c 2
 64 -128 l 2
 29 -128 0 -99 0 -64 c 2
 0 1344 l 2
 0 1379 29 1408 64 1408 c 2
 192 1408 l 2
 227 1408 256 1379 256 1344 c 2
 256 666 l 1
 259 673 263 679 269 685 c 2
 979 1395 l 2
EndSplineSet
EndChar

StartChar: fast_backward
Encoding: 61513 61513 82
Width: 1792
Flags: MW
VStem: 0 256<-64 614 666 1344>
LayerCount: 2
Fore
SplineSet
1747 1395 m 2
 1772 1420 1792 1411 1792 1376 c 2
 1792 -96 l 2
 1792 -131 1772 -140 1747 -115 c 2
 1037 595 l 2
 1031 601 1027 607 1024 614 c 1
 1024 -96 l 2
 1024 -131 1004 -140 979 -115 c 2
 269 595 l 2
 263 601 259 607 256 614 c 1
 256 -64 l 2
 256 -99 227 -128 192 -128 c 2
 64 -128 l 2
 29 -128 0 -99 0 -64 c 2
 0 1344 l 2
 0 1379 29 1408 64 1408 c 2
 192 1408 l 2
 227 1408 256 1379 256 1344 c 2
 256 666 l 1
 259 673 263 679 269 685 c 2
 979 1395 l 2
 1004 1420 1024 1411 1024 1376 c 2
 1024 666 l 1
 1027 673 1031 679 1037 685 c 2
 1747 1395 l 2
EndSplineSet
EndChar

StartChar: backward
Encoding: 61514 61514 83
Width: 1664
Flags: MW
VStem: 122 1542
LayerCount: 2
Fore
SplineSet
1619 1395 m 2
 1644 1420 1664 1411 1664 1376 c 2
 1664 -96 l 2
 1664 -131 1644 -140 1619 -115 c 2
 909 595 l 2
 903 601 899 607 896 614 c 1
 896 -96 l 2
 896 -131 876 -140 851 -115 c 2
 141 595 l 2
 116 620 116 660 141 685 c 2
 851 1395 l 2
 876 1420 896 1411 896 1376 c 2
 896 666 l 1
 899 673 903 679 909 685 c 2
 1619 1395 l 2
EndSplineSet
EndChar

StartChar: play
Encoding: 61515 61515 84
Width: 1408
Flags: MW
VStem: 0 1407
LayerCount: 2
Fore
SplineSet
1384 609 m 2
 56 -129 l 2
 25 -146 0 -131 0 -96 c 2
 0 1376 l 2
 0 1411 25 1426 56 1409 c 2
 1384 671 l 2
 1415 654 1415 626 1384 609 c 2
EndSplineSet
EndChar

StartChar: pause
Encoding: 61516 61516 85
Width: 1536
Flags: MW
VStem: 0 1536<-64 1344 -81.5 1361.5>
LayerCount: 2
Fore
SplineSet
1536 1344 m 2
 1536 -64 l 2
 1536 -99 1507 -128 1472 -128 c 2
 960 -128 l 2
 925 -128 896 -99 896 -64 c 2
 896 1344 l 2
 896 1379 925 1408 960 1408 c 2
 1472 1408 l 2
 1507 1408 1536 1379 1536 1344 c 2
640 1344 m 2
 640 -64 l 2
 640 -99 611 -128 576 -128 c 2
 64 -128 l 2
 29 -128 0 -99 0 -64 c 2
 0 1344 l 2
 0 1379 29 1408 64 1408 c 2
 576 1408 l 2
 611 1408 640 1379 640 1344 c 2
EndSplineSet
EndChar

StartChar: stop
Encoding: 61517 61517 86
Width: 1536
Flags: MW
VStem: 0 1536<-64 1344 -81.5 1361.5>
LayerCount: 2
Fore
SplineSet
1536 1344 m 2
 1536 -64 l 2
 1536 -99 1507 -128 1472 -128 c 2
 64 -128 l 2
 29 -128 0 -99 0 -64 c 2
 0 1344 l 2
 0 1379 29 1408 64 1408 c 2
 1472 1408 l 2
 1507 1408 1536 1379 1536 1344 c 2
EndSplineSet
EndChar

StartChar: forward
Encoding: 61518 61518 87
Width: 1664
Flags: MW
VStem: 0 1542
LayerCount: 2
Fore
SplineSet
45 -115 m 2
 20 -140 0 -131 0 -96 c 2
 0 1376 l 2
 0 1411 20 1420 45 1395 c 2
 755 685 l 2
 761 679 765 673 768 666 c 1
 768 1376 l 2
 768 1411 788 1420 813 1395 c 2
 1523 685 l 2
 1548 660 1548 620 1523 595 c 2
 813 -115 l 2
 788 -140 768 -131 768 -96 c 2
 768 614 l 1
 765 607 761 601 755 595 c 2
 45 -115 l 2
EndSplineSet
EndChar

StartChar: fast_forward
Encoding: 61520 61520 88
Width: 1792
Flags: MW
VStem: 1536 256<-64 614 614 614 666 1344>
LayerCount: 2
Fore
SplineSet
45 -115 m 2
 20 -140 0 -131 0 -96 c 2
 0 1376 l 2
 0 1411 20 1420 45 1395 c 2
 755 685 l 2
 761 679 765 673 768 666 c 1
 768 1376 l 2
 768 1411 788 1420 813 1395 c 2
 1523 685 l 2
 1529 679 1533 673 1536 666 c 1
 1536 1344 l 2
 1536 1379 1565 1408 1600 1408 c 2
 1728 1408 l 2
 1763 1408 1792 1379 1792 1344 c 2
 1792 -64 l 2
 1792 -99 1763 -128 1728 -128 c 2
 1600 -128 l 2
 1565 -128 1536 -99 1536 -64 c 2
 1536 614 l 1
 1533 607 1529 601 1523 595 c 2
 813 -115 l 2
 788 -140 768 -131 768 -96 c 2
 768 614 l 1
 765 607 761 601 755 595 c 2
 45 -115 l 2
EndSplineSet
EndChar

StartChar: step_forward
Encoding: 61521 61521 89
Width: 1024
Flags: MW
VStem: 768 256<-64 614 614 614 666 1344>
LayerCount: 2
Fore
SplineSet
45 -115 m 2
 20 -140 0 -131 0 -96 c 2
 0 1376 l 2
 0 1411 20 1420 45 1395 c 2
 755 685 l 2
 761 679 765 673 768 666 c 1
 768 1344 l 2
 768 1379 797 1408 832 1408 c 2
 960 1408 l 2
 995 1408 1024 1379 1024 1344 c 2
 1024 -64 l 2
 1024 -99 995 -128 960 -128 c 2
 832 -128 l 2
 797 -128 768 -99 768 -64 c 2
 768 614 l 1
 765 607 761 601 755 595 c 2
 45 -115 l 2
EndSplineSet
EndChar

StartChar: eject
Encoding: 61522 61522 90
Width: 1538
Flags: MW
VStem: 0 1538
LayerCount: 2
Fore
SplineSet
14 557 m 2
 724 1267 l 2
 749 1292 789 1292 814 1267 c 2
 1524 557 l 2
 1549 532 1540 512 1505 512 c 2
 33 512 l 2
 -2 512 -11 532 14 557 c 2
1473 0 m 2
 65 0 l 2
 30 0 1 29 1 64 c 2
 1 320 l 2
 1 355 30 384 65 384 c 2
 1473 384 l 2
 1508 384 1537 355 1537 320 c 2
 1537 64 l 2
 1537 29 1508 0 1473 0 c 2
EndSplineSet
EndChar

StartChar: chevron_left
Encoding: 61523 61523 91
Width: 1280
Flags: MW
VStem: 154 1036
LayerCount: 2
Fore
SplineSet
1171 1235 m 2
 640 704 l 1
 1171 173 l 2
 1196 148 1196 108 1171 83 c 2
 1005 -83 l 2
 980 -108 940 -108 915 -83 c 2
 173 659 l 2
 148 684 148 724 173 749 c 2
 915 1491 l 2
 940 1516 980 1516 1005 1491 c 2
 1171 1325 l 2
 1196 1300 1196 1260 1171 1235 c 2
EndSplineSet
EndChar

StartChar: chevron_right
Encoding: 61524 61524 92
Width: 1280
Flags: MW
VStem: 90 1036
LayerCount: 2
Fore
SplineSet
1107 659 m 2
 365 -83 l 2
 340 -108 300 -108 275 -83 c 2
 109 83 l 2
 84 108 84 148 109 173 c 2
 640 704 l 1
 109 1235 l 2
 84 1260 84 1300 109 1325 c 2
 275 1491 l 2
 300 1516 340 1516 365 1491 c 2
 1107 749 l 2
 1132 724 1132 684 1107 659 c 2
EndSplineSet
EndChar

StartChar: plus_sign
Encoding: 61525 61525 93
Width: 1536
Flags: MW
VStem: 0 320<558.5 576 576 704 558.5 852> 1216 320<576 704 704 721.5>
LayerCount: 2
Fore
SplineSet
1216 576 m 2
 1216 704 l 2
 1216 739 1187 768 1152 768 c 2
 896 768 l 1
 896 1024 l 2
 896 1059 867 1088 832 1088 c 2
 704 1088 l 2
 669 1088 640 1059 640 1024 c 2
 640 768 l 1
 384 768 l 2
 349 768 320 739 320 704 c 2
 320 576 l 2
 320 541 349 512 384 512 c 2
 640 512 l 1
 640 256 l 2
 640 221 669 192 704 192 c 2
 832 192 l 2
 867 192 896 221 896 256 c 2
 896 512 l 1
 1152 512 l 2
 1187 512 1216 541 1216 576 c 2
1536 640 m 0
 1536 216 1192 -128 768 -128 c 0
 344 -128 0 216 0 640 c 0
 0 1064 344 1408 768 1408 c 0
 1192 1408 1536 1064 1536 640 c 0
EndSplineSet
EndChar

StartChar: minus_sign
Encoding: 61526 61526 94
Width: 1536
Flags: MW
VStem: 0 320<558.5 576 576 704 558.5 852> 1216 320<576 704 704 721.5>
LayerCount: 2
Fore
SplineSet
1216 576 m 2
 1216 704 l 2
 1216 739 1187 768 1152 768 c 2
 384 768 l 2
 349 768 320 739 320 704 c 2
 320 576 l 2
 320 541 349 512 384 512 c 2
 1152 512 l 2
 1187 512 1216 541 1216 576 c 2
1536 640 m 0
 1536 216 1192 -128 768 -128 c 0
 344 -128 0 216 0 640 c 0
 0 1064 344 1408 768 1408 c 0
 1192 1408 1536 1064 1536 640 c 0
EndSplineSet
EndChar

StartChar: remove_sign
Encoding: 61527 61527 95
Width: 1536
Flags: MW
VStem: 0 1536<428 852>
LayerCount: 2
Fore
SplineSet
1149 414 m 0
 1149 431 1142 447 1130 459 c 2
 949 640 l 1
 1130 821 l 2
 1142 833 1149 849 1149 866 c 0
 1149 883 1142 900 1130 912 c 2
 1040 1002 l 2
 1028 1014 1011 1021 994 1021 c 0
 977 1021 961 1014 949 1002 c 2
 768 821 l 1
 587 1002 l 2
 575 1014 559 1021 542 1021 c 0
 525 1021 508 1014 496 1002 c 2
 406 912 l 2
 394 900 387 883 387 866 c 0
 387 849 394 833 406 821 c 2
 587 640 l 1
 406 459 l 2
 394 447 387 431 387 414 c 0
 387 397 394 380 406 368 c 2
 496 278 l 2
 508 266 525 259 542 259 c 0
 559 259 575 266 587 278 c 2
 768 459 l 1
 949 278 l 2
 961 266 977 259 994 259 c 0
 1011 259 1028 266 1040 278 c 2
 1130 368 l 2
 1142 380 1149 397 1149 414 c 0
1536 640 m 0
 1536 216 1192 -128 768 -128 c 0
 344 -128 0 216 0 640 c 0
 0 1064 344 1408 768 1408 c 0
 1192 1408 1536 1064 1536 640 c 0
EndSplineSet
EndChar

StartChar: ok_sign
Encoding: 61528 61528 96
Width: 1536
Flags: MW
VStem: 0 252<612.5 629.5 612.5 852> 0 1536<428 852> 1284 252<793.5 810.5>
LayerCount: 2
Fore
SplineSet
1284 802 m 0x40
 1284 819 1278 836 1266 848 c 2
 1175 938 l 2
 1163 950 1147 957 1130 957 c 0
 1113 957 1097 950 1085 938 c 2
 677 531 l 1
 451 757 l 2
 439 769 423 776 406 776 c 0
 389 776 373 769 361 757 c 2
 270 667 l 2
 258 655 252 638 252 621 c 0
 252 604 258 588 270 576 c 2
 632 214 l 2
 644 202 661 195 677 195 c 0
 694 195 711 202 723 214 c 2
 1266 757 l 2
 1278 769 1284 785 1284 802 c 0x40
1536 640 m 0
 1536 216 1192 -128 768 -128 c 0
 344 -128 0 216 0 640 c 0
 0 1064 344 1408 768 1408 c 0
 1192 1408 1536 1064 1536 640 c 0
EndSplineSet
EndChar

StartChar: question_sign
Encoding: 61529 61529 97
Width: 1536
Flags: MW
VStem: 0 1536<428 852>
LayerCount: 2
Fore
SplineSet
896 160 m 2
 896 352 l 2
 896 370 882 384 864 384 c 2
 672 384 l 2
 654 384 640 370 640 352 c 2
 640 160 l 2
 640 142 654 128 672 128 c 2
 864 128 l 2
 882 128 896 142 896 160 c 2
1152 832 m 0
 1152 1015 960 1152 788 1152 c 0
 625 1152 503 1082 417 939 c 0
 408 925 412 907 425 897 c 2
 557 797 l 2
 562 793 569 791 576 791 c 0
 585 791 595 795 601 803 c 0
 648 863 668 881 687 895 c 0
 704 907 737 919 773 919 c 0
 837 919 896 878 896 834 c 0
 896 782 869 756 808 728 c 0
 737 696 640 613 640 516 c 2
 640 480 l 2
 640 462 654 448 672 448 c 2
 864 448 l 2
 882 448 896 462 896 480 c 1
 896 480 l 1
 896 503 925 552 972 579 c 0
 1048 622 1152 680 1152 832 c 0
1536 640 m 0
 1536 216 1192 -128 768 -128 c 0
 344 -128 0 216 0 640 c 0
 0 1064 344 1408 768 1408 c 0
 1192 1408 1536 1064 1536 640 c 0
EndSplineSet
EndChar

StartChar: info_sign
Encoding: 61530 61530 98
Width: 1536
Flags: MW
VStem: 0 1536<428 852>
LayerCount: 2
Fore
SplineSet
1024 160 m 2
 1024 320 l 2
 1024 338 1010 352 992 352 c 2
 896 352 l 1
 896 864 l 2
 896 882 882 896 864 896 c 2
 544 896 l 2
 526 896 512 882 512 864 c 2
 512 704 l 2
 512 686 526 672 544 672 c 2
 640 672 l 1
 640 352 l 1
 544 352 l 2
 526 352 512 338 512 320 c 2
 512 160 l 2
 512 142 526 128 544 128 c 2
 992 128 l 2
 1010 128 1024 142 1024 160 c 2
896 1056 m 2
 896 1216 l 2
 896 1234 882 1248 864 1248 c 2
 672 1248 l 2
 654 1248 640 1234 640 1216 c 2
 640 1056 l 2
 640 1038 654 1024 672 1024 c 2
 864 1024 l 2
 882 1024 896 1038 896 1056 c 2
1536 640 m 0
 1536 216 1192 -128 768 -128 c 0
 344 -128 0 216 0 640 c 0
 0 1064 344 1408 768 1408 c 0
 1192 1408 1536 1064 1536 640 c 0
EndSplineSet
EndChar

StartChar: screenshot
Encoding: 61531 61531 99
Width: 1536
Flags: MW
VStem: 640 256<-64 79 -81.5 79 211 320 960 1069 1201 1344>
LayerCount: 2
Fore
SplineSet
1197 512 m 1
 1088 512 l 2
 1053 512 1024 541 1024 576 c 2
 1024 704 l 2
 1024 739 1053 768 1088 768 c 2
 1197 768 l 1
 1154 912 1040 1026 896 1069 c 1
 896 960 l 2
 896 925 867 896 832 896 c 2
 704 896 l 2
 669 896 640 925 640 960 c 2
 640 1069 l 1
 496 1026 382 912 339 768 c 1
 448 768 l 2
 483 768 512 739 512 704 c 2
 512 576 l 2
 512 541 483 512 448 512 c 2
 339 512 l 1
 382 368 496 254 640 211 c 1
 640 320 l 2
 640 355 669 384 704 384 c 2
 832 384 l 2
 867 384 896 355 896 320 c 2
 896 211 l 1
 1040 254 1154 368 1197 512 c 1
1536 704 m 2
 1536 576 l 2
 1536 541 1507 512 1472 512 c 2
 1329 512 l 1
 1280 297 1111 128 896 79 c 1
 896 -64 l 2
 896 -99 867 -128 832 -128 c 2
 704 -128 l 2
 669 -128 640 -99 640 -64 c 2
 640 79 l 1
 425 128 256 297 207 512 c 1
 64 512 l 2
 29 512 0 541 0 576 c 2
 0 704 l 2
 0 739 29 768 64 768 c 2
 207 768 l 1
 256 983 425 1152 640 1201 c 1
 640 1344 l 2
 640 1379 669 1408 704 1408 c 2
 832 1408 l 2
 867 1408 896 1379 896 1344 c 2
 896 1201 l 1
 1111 1152 1280 983 1329 768 c 1
 1472 768 l 2
 1507 768 1536 739 1536 704 c 2
EndSplineSet
EndChar

StartChar: remove_circle
Encoding: 61532 61532 100
Width: 1536
Flags: MW
VStem: 0 224<490 790 490 852> 1312 224<490 790>
LayerCount: 2
Fore
SplineSet
1097 457 m 2
 951 311 l 2
 938 298 918 298 905 311 c 2
 768 448 l 1
 631 311 l 2
 618 298 598 298 585 311 c 2
 439 457 l 2
 426 470 426 490 439 503 c 2
 576 640 l 1
 439 777 l 2
 426 790 426 810 439 823 c 2
 585 969 l 2
 598 982 618 982 631 969 c 2
 768 832 l 1
 905 969 l 2
 918 982 938 982 951 969 c 2
 1097 823 l 2
 1110 810 1110 790 1097 777 c 2
 960 640 l 1
 1097 503 l 2
 1110 490 1110 470 1097 457 c 2
1312 640 m 0
 1312 940 1068 1184 768 1184 c 0
 468 1184 224 940 224 640 c 0
 224 340 468 96 768 96 c 0
 1068 96 1312 340 1312 640 c 0
1536 640 m 0
 1536 216 1192 -128 768 -128 c 0
 344 -128 0 216 0 640 c 0
 0 1064 344 1408 768 1408 c 0
 1192 1408 1536 1064 1536 640 c 0
EndSplineSet
EndChar

StartChar: ok_circle
Encoding: 61533 61533 101
Width: 1536
Flags: MW
VStem: 0 224<490 790 490 852> 1312 224<490 790>
LayerCount: 2
Fore
SplineSet
1171 723 m 2
 749 301 l 2
 724 276 684 276 659 301 c 2
 365 595 l 2
 340 620 340 660 365 685 c 2
 467 787 l 2
 492 812 532 812 557 787 c 2
 704 640 l 1
 979 915 l 2
 1004 940 1044 940 1069 915 c 2
 1171 813 l 2
 1196 788 1196 748 1171 723 c 2
1312 640 m 0
 1312 940 1068 1184 768 1184 c 0
 468 1184 224 940 224 640 c 0
 224 340 468 96 768 96 c 0
 1068 96 1312 340 1312 640 c 0
1536 640 m 0
 1536 216 1192 -128 768 -128 c 0
 344 -128 0 216 0 640 c 0
 0 1064 344 1408 768 1408 c 0
 1192 1408 1536 1064 1536 640 c 0
EndSplineSet
EndChar

StartChar: ban_circle
Encoding: 61534 61534 102
Width: 1536
Flags: MW
VStem: 0 224<587.5 793.5 587.5 855.5> 1312 224<492 697.5>
LayerCount: 2
Fore
SplineSet
1312 643 m 0
 1312 752 1280 853 1225 938 c 1
 471 185 l 1
 557 129 659 96 768 96 c 0
 1068 96 1312 341 1312 643 c 0
313 344 m 1
 1068 1098 l 1
 982 1156 879 1189 768 1189 c 0
 468 1189 224 944 224 643 c 0
 224 532 257 430 313 344 c 1
1536 643 m 0
 1536 217 1192 -128 768 -128 c 0
 344 -128 0 217 0 643 c 0
 0 1068 344 1413 768 1413 c 0
 1192 1413 1536 1068 1536 643 c 0
EndSplineSet
EndChar

StartChar: arrow_left
Encoding: 61536 61536 103
Width: 1536
Flags: MW
VStem: 64 1472<559 593>
LayerCount: 2
Fore
SplineSet
1536 640 m 2
 1536 512 l 2
 1536 444 1491 384 1419 384 c 2
 715 384 l 1
 1008 90 l 2
 1032 67 1046 34 1046 0 c 0
 1046 -34 1032 -67 1008 -90 c 2
 933 -166 l 2
 910 -189 877 -203 843 -203 c 0
 809 -203 776 -189 752 -166 c 2
 101 486 l 2
 78 509 64 542 64 576 c 0
 64 610 78 643 101 667 c 2
 752 1317 l 2
 776 1341 809 1355 843 1355 c 0
 877 1355 909 1341 933 1317 c 2
 1008 1243 l 2
 1032 1219 1046 1186 1046 1152 c 0
 1046 1118 1032 1085 1008 1061 c 2
 715 768 l 1
 1419 768 l 2
 1491 768 1536 708 1536 640 c 2
EndSplineSet
EndChar

StartChar: arrow_right
Encoding: 61537 61537 104
Width: 1536
Flags: MW
VStem: 0 1472<559 593 559 640 559 674>
LayerCount: 2
Fore
SplineSet
1472 576 m 0
 1472 542 1459 509 1435 485 c 2
 784 -166 l 2
 760 -189 727 -203 693 -203 c 0
 659 -203 627 -189 603 -166 c 2
 528 -91 l 2
 504 -67 490 -34 490 0 c 0
 490 34 504 67 528 91 c 2
 821 384 l 1
 117 384 l 2
 45 384 0 444 0 512 c 2
 0 640 l 2
 0 708 45 768 117 768 c 2
 821 768 l 1
 528 1062 l 2
 504 1085 490 1118 490 1152 c 0
 490 1186 504 1219 528 1242 c 2
 603 1317 l 2
 627 1341 659 1355 693 1355 c 0
 727 1355 760 1341 784 1317 c 2
 1435 666 l 2
 1459 643 1472 610 1472 576 c 0
EndSplineSet
EndChar

StartChar: arrow_up
Encoding: 61538 61538 105
Width: 1664
Flags: MW
VStem: 53 1558<548 582>
LayerCount: 2
Fore
SplineSet
1611 565 m 0
 1611 531 1597 499 1574 475 c 2
 1499 400 l 2
 1475 376 1442 362 1408 362 c 0
 1374 362 1341 376 1318 400 c 2
 1024 693 l 1
 1024 -11 l 2
 1024 -83 964 -128 896 -128 c 2
 768 -128 l 2
 700 -128 640 -83 640 -11 c 2
 640 693 l 1
 346 400 l 2
 323 376 290 362 256 362 c 0
 222 362 189 376 166 400 c 2
 91 475 l 2
 67 499 53 531 53 565 c 0
 53 599 67 632 91 656 c 2
 742 1307 l 2
 765 1331 798 1344 832 1344 c 0
 866 1344 899 1331 923 1307 c 2
 1574 656 l 2
 1597 632 1611 599 1611 565 c 0
EndSplineSet
EndChar

StartChar: arrow_down
Encoding: 61539 61539 106
Width: 1664
Flags: MW
VStem: 53 1558<687 721>
LayerCount: 2
Fore
SplineSet
1611 704 m 0
 1611 670 1597 637 1574 614 c 2
 923 -38 l 2
 899 -61 866 -75 832 -75 c 0
 798 -75 765 -61 742 -38 c 2
 91 614 l 2
 67 637 53 670 53 704 c 0
 53 738 67 771 91 795 c 2
 165 870 l 2
 189 893 222 907 256 907 c 0
 290 907 323 893 346 870 c 2
 640 576 l 1
 640 1280 l 2
 640 1350 698 1408 768 1408 c 2
 896 1408 l 2
 966 1408 1024 1350 1024 1280 c 2
 1024 576 l 1
 1318 870 l 2
 1341 893 1374 907 1408 907 c 0
 1442 907 1475 893 1499 870 c 2
 1574 795 l 2
 1597 771 1611 738 1611 704 c 0
EndSplineSet
EndChar

StartChar: share_alt
Encoding: 61540 61540 107
Width: 1792
Flags: MW
VStem: 0 214<59.5 472>
LayerCount: 2
Fore
SplineSet
1792 896 m 0
 1792 879 1785 863 1773 851 c 2
 1261 339 l 2
 1249 327 1233 320 1216 320 c 0
 1181 320 1152 349 1152 384 c 2
 1152 640 l 1
 928 640 l 2
 497 640 214 557 214 80 c 0
 214 39 216 -2 219 -43 c 0
 220 -59 224 -77 224 -93 c 0
 224 -112 212 -128 192 -128 c 0
 178 -128 171 -121 164 -111 c 0
 149 -90 138 -58 127 -35 c 0
 70 93 0 276 0 416 c 0
 0 528 11 643 53 749 c 0
 192 1094 600 1152 928 1152 c 2
 1152 1152 l 1
 1152 1408 l 2
 1152 1443 1181 1472 1216 1472 c 0
 1233 1472 1249 1465 1261 1453 c 2
 1773 941 l 2
 1785 929 1792 913 1792 896 c 0
EndSplineSet
EndChar

StartChar: resize_full
Encoding: 61541 61541 108
Width: 1536
Flags: MW
VStem: 0 1536<-64 896 384 896>
LayerCount: 2
Fore
SplineSet
755 480 m 0
 755 472 751 463 745 457 c 2
 413 125 l 1
 557 -19 l 2
 569 -31 576 -47 576 -64 c 0
 576 -99 547 -128 512 -128 c 2
 64 -128 l 2
 29 -128 0 -99 0 -64 c 2
 0 384 l 2
 0 419 29 448 64 448 c 0
 81 448 97 441 109 429 c 2
 253 285 l 1
 585 617 l 2
 591 623 600 627 608 627 c 0
 616 627 625 623 631 617 c 2
 745 503 l 2
 751 497 755 488 755 480 c 0
1536 1344 m 2
 1536 896 l 2
 1536 861 1507 832 1472 832 c 0
 1455 832 1439 839 1427 851 c 2
 1283 995 l 1
 951 663 l 2
 945 657 936 653 928 653 c 0
 920 653 911 657 905 663 c 2
 791 777 l 2
 785 783 781 792 781 800 c 0
 781 808 785 817 791 823 c 2
 1123 1155 l 1
 979 1299 l 2
 967 1311 960 1327 960 1344 c 0
 960 1379 989 1408 1024 1408 c 2
 1472 1408 l 2
 1507 1408 1536 1379 1536 1344 c 2
EndSplineSet
EndChar

StartChar: resize_small
Encoding: 61542 61542 109
Width: 1536
Flags: MW
VStem: 13 1510<28 1252>
LayerCount: 2
Fore
SplineSet
768 576 m 2
 768 128 l 2
 768 93 739 64 704 64 c 0
 687 64 671 71 659 83 c 2
 515 227 l 1
 183 -105 l 2
 177 -111 168 -115 160 -115 c 0
 152 -115 143 -111 137 -105 c 2
 23 9 l 2
 17 15 13 24 13 32 c 0
 13 40 17 49 23 55 c 2
 355 387 l 1
 211 531 l 2
 199 543 192 559 192 576 c 0
 192 611 221 640 256 640 c 2
 704 640 l 2
 739 640 768 611 768 576 c 2
1523 1248 m 0
 1523 1240 1519 1231 1513 1225 c 2
 1181 893 l 1
 1325 749 l 2
 1337 737 1344 721 1344 704 c 0
 1344 669 1315 640 1280 640 c 2
 832 640 l 2
 797 640 768 669 768 704 c 2
 768 1152 l 2
 768 1187 797 1216 832 1216 c 0
 849 1216 865 1209 877 1197 c 2
 1021 1053 l 1
 1353 1385 l 2
 1359 1391 1368 1395 1376 1395 c 0
 1384 1395 1393 1391 1399 1385 c 2
 1513 1271 l 2
 1519 1265 1523 1256 1523 1248 c 0
EndSplineSet
EndChar

StartChar: exclamation_sign
Encoding: 61546 61546 110
Width: 1536
Flags: MW
VStem: 0 1536<428 852>
LayerCount: 2
Fore
SplineSet
768 1408 m 0
 1192 1408 1536 1064 1536 640 c 0
 1536 216 1192 -128 768 -128 c 0
 344 -128 0 216 0 640 c 0
 0 1064 344 1408 768 1408 c 0
896 161 m 2
 896 351 l 2
 896 369 882 384 865 384 c 2
 673 384 l 2
 655 384 640 369 640 351 c 2
 640 161 l 2
 640 143 655 128 673 128 c 2
 865 128 l 2
 882 128 896 143 896 161 c 2
894 505 m 2
 912 1126 l 2
 912 1133 909 1140 902 1144 c 0
 896 1149 887 1152 878 1152 c 2
 658 1152 l 2
 649 1152 640 1149 634 1144 c 0
 627 1140 624 1133 624 1126 c 2
 641 505 l 2
 641 491 656 480 675 480 c 2
 860 480 l 2
 878 480 893 491 894 505 c 2
EndSplineSet
EndChar

StartChar: gift
Encoding: 61547 61547 111
Width: 1536
Flags: MW
VStem: 248 128<1093.5 1146.5 1093.5 1182> 472 136<896 896> 928 136<704 896 896 896> 1160 128<1093.5 1146.5>
LayerCount: 2
Fore
SplineSet
928 180 m 2
 928 236 l 1
 928 704 l 1
 928 896 l 1
 608 896 l 1
 608 704 l 1
 608 236 l 1
 608 180 l 2
 608 145 637 128 672 128 c 2
 864 128 l 2
 899 128 928 145 928 180 c 2
472 1024 m 2
 667 1024 l 1
 541 1185 l 2
 530 1198 506 1216 472 1216 c 0
 419 1216 376 1173 376 1120 c 0
 376 1067 419 1024 472 1024 c 2
1160 1120 m 0
 1160 1173 1117 1216 1064 1216 c 0
 1030 1216 1006 1198 995 1185 c 2
 870 1024 l 1
 1064 1024 l 2
 1117 1024 1160 1067 1160 1120 c 0
1536 864 m 2
 1536 544 l 2
 1536 526 1522 512 1504 512 c 2
 1408 512 l 1
 1408 96 l 2
 1408 43 1365 0 1312 0 c 2
 224 0 l 2
 171 0 128 43 128 96 c 2
 128 512 l 1
 32 512 l 2
 14 512 0 526 0 544 c 2
 0 864 l 2
 0 882 14 896 32 896 c 2
 472 896 l 1
 348 896 248 996 248 1120 c 0
 248 1244 348 1344 472 1344 c 0
 539 1344 601 1316 640 1267 c 2
 768 1102 l 1
 896 1267 l 2
 935 1316 997 1344 1064 1344 c 0
 1188 1344 1288 1244 1288 1120 c 0
 1288 996 1188 896 1064 896 c 1
 1504 896 l 2
 1522 896 1536 882 1536 864 c 2
EndSplineSet
EndChar

StartChar: leaf
Encoding: 61548 61548 112
Width: 1792
Flags: MW
VStem: 0 1792<110.5 1072.5>
LayerCount: 2
Fore
SplineSet
1280 832 m 0
 1280 867 1251 896 1216 896 c 0
 862 896 634 748 403 493 c 0
 391 480 384 466 384 448 c 0
 384 413 413 384 448 384 c 0
 466 384 480 391 493 403 c 0
 542 447 586 495 634 540 c 0
 815 703 970 768 1216 768 c 0
 1251 768 1280 797 1280 832 c 0
1792 1030 m 0
 1792 966 1785 901 1772 837 c 0
 1708 526 1508 324 1230 186 c 0
 1095 118 944 78 792 78 c 0
 696 78 597 94 506 125 c 0
 458 141 362 204 322 204 c 0
 272 204 212 0 125 0 c 0
 62 0 43 31 16 77 c 0
 7 94 0 100 0 121 c 0
 0 225 198 306 198 364 c 0
 198 373 172 426 168 446 c 0
 162 480 159 515 159 550 c 0
 159 868 412 1095 696 1189 c 0
 901 1257 1337 1178 1476 1310 c 0
 1531 1361 1558 1408 1642 1408 c 0
 1755 1408 1792 1115 1792 1030 c 0
EndSplineSet
EndChar

StartChar: fire
Encoding: 61549 61549 113
Width: 1408
Flags: MW
VStem: 0 1408<-224 -160 -232.5 -151.5>
LayerCount: 2
Fore
SplineSet
1408 -160 m 2
 1408 -224 l 2
 1408 -241 1393 -256 1376 -256 c 2
 32 -256 l 2
 15 -256 0 -241 0 -224 c 2
 0 -160 l 2
 0 -143 15 -128 32 -128 c 2
 1376 -128 l 2
 1393 -128 1408 -143 1408 -160 c 2
1152 896 m 0
 1152 513 704 479 704 224 c 0
 704 154 739 61 771 0 c 1
 767 1 l 1
 768 0 l 1
 492 127 256 302 256 640 c 0
 256 1023 704 1057 704 1312 c 0
 704 1382 669 1475 638 1536 c 1
 641 1535 l 1
 640 1536 l 1
 916 1409 1152 1234 1152 896 c 0
EndSplineSet
EndChar

StartChar: eye_open
Encoding: 61550 61550 114
Width: 1792
Flags: MW
VStem: 448 144<691 743.5>
LayerCount: 2
Fore
SplineSet
1664 576 m 1
 1569 723 1439 849 1283 929 c 1
 1323 861 1344 783 1344 704 c 0
 1344 457 1143 256 896 256 c 0
 649 256 448 457 448 704 c 0
 448 783 469 861 509 929 c 1
 353 849 223 723 128 576 c 1
 299 312 575 128 896 128 c 0
 1217 128 1493 312 1664 576 c 1
944 960 m 0
 944 986 922 1008 896 1008 c 0
 729 1008 592 871 592 704 c 0
 592 678 614 656 640 656 c 0
 666 656 688 678 688 704 c 0
 688 818 782 912 896 912 c 0
 922 912 944 934 944 960 c 0
1792 576 m 0
 1792 551 1784 528 1772 507 c 0
 1588 204 1251 0 896 0 c 0
 541 0 204 205 20 507 c 0
 8 528 0 551 0 576 c 0
 0 601 8 624 20 645 c 0
 204 947 541 1152 896 1152 c 0
 1251 1152 1588 947 1772 645 c 0
 1784 624 1792 601 1792 576 c 0
EndSplineSet
EndChar

StartChar: eye_close
Encoding: 61552 61552 115
Width: 1792
Flags: MW
VStem: 448 144<691 743.5>
LayerCount: 2
Fore
SplineSet
555 201 m 1
 633 342 l 1
 517 426 448 561 448 704 c 0
 448 783 469 861 509 929 c 1
 353 849 223 723 128 576 c 1
 232 415 379 280 555 201 c 1
944 960 m 0
 944 986 922 1008 896 1008 c 0
 729 1008 592 871 592 704 c 0
 592 678 614 656 640 656 c 0
 666 656 688 678 688 704 c 0
 688 819 782 912 896 912 c 0
 922 912 944 934 944 960 c 0
1307 1151 m 0
 1307 1149 1307 1144 1306 1142 c 0
 1095 765 886 386 675 9 c 2
 626 -80 l 2
 620 -90 609 -96 598 -96 c 0
 580 -96 485 -38 464 -26 c 0
 454 -20 448 -10 448 2 c 0
 448 18 482 72 492 89 c 1
 298 177 135 327 20 507 c 0
 7 527 0 551 0 576 c 0
 0 600 7 625 20 645 c 0
 218 949 527 1152 896 1152 c 0
 956 1152 1017 1146 1076 1135 c 1
 1130 1232 l 2
 1136 1242 1146 1248 1158 1248 c 0
 1176 1248 1270 1190 1291 1178 c 0
 1301 1172 1307 1162 1307 1151 c 0
1344 704 m 0
 1344 518 1229 352 1056 286 c 1
 1336 788 l 1
 1341 760 1344 732 1344 704 c 0
1792 576 m 0
 1792 550 1785 529 1772 507 c 0
 1741 456 1702 407 1663 362 c 0
 1467 137 1197 0 896 0 c 1
 970 132 l 1
 1261 157 1508 334 1664 576 c 1
 1590 691 1495 792 1382 870 c 1
 1445 982 l 1
 1569 899 1694 774 1772 645 c 0
 1785 623 1792 602 1792 576 c 0
EndSplineSet
EndChar

StartChar: warning_sign
Encoding: 61553 61553 116
Width: 1792
Flags: MW
VStem: 0 1792
LayerCount: 2
Fore
SplineSet
1024 161 m 2
 1024 351 l 2
 1024 369 1010 384 992 384 c 2
 800 384 l 2
 782 384 768 369 768 351 c 2
 768 161 l 2
 768 143 782 128 800 128 c 2
 992 128 l 2
 1010 128 1024 143 1024 161 c 2
1022 535 m 2
 1040 994 l 2
 1040 1000 1037 1008 1030 1013 c 0
 1024 1018 1015 1024 1006 1024 c 2
 786 1024 l 2
 777 1024 768 1018 762 1013 c 0
 755 1008 752 998 752 992 c 2
 769 535 l 2
 769 522 784 512 803 512 c 2
 988 512 l 2
 1006 512 1021 522 1022 535 c 2
1008 1469 m 2
 1776 61 l 2
 1798 22 1797 -26 1774 -65 c 0
 1751 -104 1709 -128 1664 -128 c 2
 128 -128 l 2
 83 -128 41 -104 18 -65 c 0
 -5 -26 -6 22 16 61 c 2
 784 1469 l 2
 806 1510 849 1536 896 1536 c 0
 943 1536 986 1510 1008 1469 c 2
EndSplineSet
EndChar

StartChar: plane
Encoding: 61554 61554 117
Width: 1408
Flags: MW
VStem: 0 1402
LayerCount: 2
Fore
SplineSet
1376 1376 m 0
 1440 1312 1376 1152 1280 1056 c 2
 1119 895 l 1
 1279 199 l 2
 1282 187 1277 174 1267 166 c 2
 1139 70 l 2
 1134 66 1127 64 1120 64 c 0
 1118 64 1116 64 1113 65 c 0
 1104 67 1096 72 1092 81 c 2
 813 589 l 1
 554 330 l 1
 607 136 l 2
 610 125 607 114 599 105 c 2
 503 9 l 2
 497 3 488 0 480 0 c 0
 479 0 479 0 478 0 c 0
 468 1 460 5 454 13 c 2
 265 265 l 1
 13 454 l 2
 5 459 1 468 0 477 c 0
 -1 486 3 495 9 502 c 2
 105 599 l 2
 111 605 120 608 128 608 c 0
 131 608 134 608 136 607 c 2
 330 554 l 1
 589 813 l 1
 81 1092 l 2
 72 1097 66 1106 64 1116 c 0
 63 1125 66 1136 73 1143 c 2
 201 1271 l 2
 209 1278 221 1282 231 1279 c 2
 896 1120 l 1
 1056 1280 l 2
 1152 1376 1312 1440 1376 1376 c 0
EndSplineSet
EndChar

StartChar: calendar
Encoding: 61555 61555 118
Width: 1664
Flags: MW
VStem: 0 128<-128 160 224 544 608 896> 256 128<1280 1376> 416 64<-128 160 224 544 608 896> 512 128<1280 1376 1280 1376 1280 1384.5> 800 64<-128 160 224 544 608 896> 1024 128<1280 1376> 1184 64<-128 160 224 544 608 896> 1280 128<1280 1376 1280 1376 1280 1384.5> 1536 128<-256 -128 -128 160 160 160 224 544 544 544 608 896 896 896>
LayerCount: 2
Fore
SplineSet
128 -128 m 1
 416 -128 l 1
 416 160 l 1
 128 160 l 1
 128 -128 l 1
480 -128 m 1
 800 -128 l 1
 800 160 l 1
 480 160 l 1
 480 -128 l 1
128 224 m 1
 416 224 l 1
 416 544 l 1
 128 544 l 1
 128 224 l 1
480 224 m 1
 800 224 l 1
 800 544 l 1
 480 544 l 1
 480 224 l 1
128 608 m 1
 416 608 l 1
 416 896 l 1
 128 896 l 1
 128 608 l 1
864 -128 m 1
 1184 -128 l 1
 1184 160 l 1
 864 160 l 1
 864 -128 l 1
480 608 m 1
 800 608 l 1
 800 896 l 1
 480 896 l 1
 480 608 l 1
1248 -128 m 1
 1536 -128 l 1
 1536 160 l 1
 1248 160 l 1
 1248 -128 l 1
864 224 m 1
 1184 224 l 1
 1184 544 l 1
 864 544 l 1
 864 224 l 1
512 1088 m 2
 512 1376 l 2
 512 1393 497 1408 480 1408 c 2
 416 1408 l 2
 399 1408 384 1393 384 1376 c 2
 384 1088 l 2
 384 1071 399 1056 416 1056 c 2
 480 1056 l 2
 497 1056 512 1071 512 1088 c 2
1248 224 m 1
 1536 224 l 1
 1536 544 l 1
 1248 544 l 1
 1248 224 l 1
864 608 m 1
 1184 608 l 1
 1184 896 l 1
 864 896 l 1
 864 608 l 1
1248 608 m 1
 1536 608 l 1
 1536 896 l 1
 1248 896 l 1
 1248 608 l 1
1280 1088 m 2
 1280 1376 l 2
 1280 1393 1265 1408 1248 1408 c 2
 1184 1408 l 2
 1167 1408 1152 1393 1152 1376 c 2
 1152 1088 l 2
 1152 1071 1167 1056 1184 1056 c 2
 1248 1056 l 2
 1265 1056 1280 1071 1280 1088 c 2
1664 1152 m 2
 1664 -128 l 2
 1664 -198 1606 -256 1536 -256 c 2
 128 -256 l 2
 58 -256 0 -198 0 -128 c 2
 0 1152 l 2
 0 1222 58 1280 128 1280 c 2
 256 1280 l 1
 256 1376 l 2
 256 1464 328 1536 416 1536 c 2
 480 1536 l 2
 568 1536 640 1464 640 1376 c 2
 640 1280 l 1
 1024 1280 l 1
 1024 1376 l 2
 1024 1464 1096 1536 1184 1536 c 2
 1248 1536 l 2
 1336 1536 1408 1464 1408 1376 c 2
 1408 1280 l 1
 1536 1280 l 2
 1606 1280 1664 1222 1664 1152 c 2
EndSplineSet
EndChar

StartChar: random
Encoding: 61556 61556 119
Width: 1792
Flags: MW
VStem: 0 1792<252 260 252 352 252 361 1148 1156 252 1248 252 1257>
LayerCount: 2
Fore
SplineSet
666 1055 m 1
 610 969 569 876 529 782 c 1
 471 903 407 1024 256 1024 c 2
 32 1024 l 2
 14 1024 0 1038 0 1056 c 2
 0 1248 l 2
 0 1266 14 1280 32 1280 c 2
 256 1280 l 2
 434 1280 565 1197 666 1055 c 1
1792 256 m 0
 1792 248 1789 239 1783 233 c 2
 1463 -87 l 2
 1457 -93 1448 -96 1440 -96 c 0
 1423 -96 1408 -81 1408 -64 c 2
 1408 128 l 1
 1111 128 928 93 743 353 c 1
 798 439 839 532 879 626 c 1
 937 505 1001 384 1152 384 c 2
 1408 384 l 1
 1408 576 l 2
 1408 594 1422 608 1440 608 c 0
 1449 608 1457 604 1464 598 c 2
 1783 279 l 2
 1789 273 1792 264 1792 256 c 0
1792 1152 m 0
 1792 1144 1789 1135 1783 1129 c 2
 1463 809 l 2
 1457 803 1448 800 1440 800 c 0
 1423 800 1408 814 1408 832 c 2
 1408 1024 l 1
 1152 1024 l 2
 1019 1024 956 933 900 825 c 0
 871 769 846 711 822 654 c 0
 711 396 581 128 256 128 c 2
 32 128 l 2
 14 128 0 142 0 160 c 2
 0 352 l 2
 0 370 14 384 32 384 c 2
 256 384 l 2
 389 384 452 475 508 583 c 0
 537 639 562 697 586 754 c 0
 697 1012 827 1280 1152 1280 c 2
 1408 1280 l 1
 1408 1472 l 2
 1408 1490 1422 1504 1440 1504 c 0
 1449 1504 1457 1500 1464 1494 c 2
 1783 1175 l 2
 1789 1169 1792 1160 1792 1152 c 0
EndSplineSet
EndChar

StartChar: comment
Encoding: 61557 61557 120
Width: 1792
Flags: MW
VStem: 0 1792<538.5 816.5>
LayerCount: 2
Fore
SplineSet
1792 640 m 0
 1792 286 1391 0 896 0 c 0
 847 0 798 3 751 8 c 1
 620 -108 464 -190 291 -234 c 0
 255 -244 216 -251 177 -256 c 0
 155 -258 134 -242 129 -218 c 0
 129 -217 129 -217 129 -217 c 1
 124 -192 141 -177 156 -159 c 0
 219 -88 291 -28 338 139 c 1
 132 256 0 437 0 640 c 0
 0 993 401 1280 896 1280 c 0
 1391 1280 1792 994 1792 640 c 0
EndSplineSet
EndChar

StartChar: magnet
Encoding: 61558 61558 121
Width: 1536
Flags: MW
VStem: 0 1536<576 704 372 721.5 960 1344 372 1361.5>
LayerCount: 2
Fore
SplineSet
1536 704 m 2
 1536 576 l 2
 1536 168 1213 -128 768 -128 c 0
 323 -128 0 168 0 576 c 2
 0 704 l 2
 0 739 29 768 64 768 c 2
 448 768 l 2
 483 768 512 739 512 704 c 2
 512 576 l 2
 512 393 725 384 768 384 c 0
 811 384 1024 393 1024 576 c 2
 1024 704 l 2
 1024 739 1053 768 1088 768 c 2
 1472 768 l 2
 1507 768 1536 739 1536 704 c 2
512 1344 m 2
 512 960 l 2
 512 925 483 896 448 896 c 2
 64 896 l 2
 29 896 0 925 0 960 c 2
 0 1344 l 2
 0 1379 29 1408 64 1408 c 2
 448 1408 l 2
 483 1408 512 1379 512 1344 c 2
1536 1344 m 2
 1536 960 l 2
 1536 925 1507 896 1472 896 c 2
 1088 896 l 2
 1053 896 1024 925 1024 960 c 2
 1024 1344 l 2
 1024 1379 1053 1408 1088 1408 c 2
 1472 1408 l 2
 1507 1408 1536 1379 1536 1344 c 2
EndSplineSet
EndChar

StartChar: chevron_up
Encoding: 61559 61559 122
Width: 1792
Flags: MW
VStem: 90 1612
LayerCount: 2
Fore
SplineSet
1683 205 m 2
 1517 40 l 2
 1492 15 1452 15 1427 40 c 2
 896 571 l 1
 365 40 l 2
 340 15 300 15 275 40 c 2
 109 205 l 2
 84 230 84 271 109 296 c 2
 851 1037 l 2
 876 1062 916 1062 941 1037 c 2
 1683 296 l 2
 1708 271 1708 230 1683 205 c 2
EndSplineSet
EndChar

StartChar: chevron_down
Encoding: 61560 61560 123
Width: 1792
Flags: MW
VStem: 90 1612
LayerCount: 2
Fore
SplineSet
1683 728 m 2
 941 -13 l 2
 916 -38 876 -38 851 -13 c 2
 109 728 l 2
 84 753 84 794 109 819 c 2
 275 984 l 2
 300 1009 340 1009 365 984 c 2
 896 453 l 1
 1427 984 l 2
 1452 1009 1492 1009 1517 984 c 2
 1683 819 l 2
 1708 794 1708 753 1683 728 c 2
EndSplineSet
EndChar

StartChar: retweet
Encoding: 61561 61561 124
Width: 1920
Flags: MW
VStem: 256 256<64 640 256 640 256 640 256 640> 1408 256<512 896 896 896>
LayerCount: 2
Fore
SplineSet
1280 32 m 0
 1280 15 1265 0 1248 0 c 2
 288 0 l 2
 251 0 256 39 256 64 c 2
 256 224 l 1
 256 640 l 1
 64 640 l 2
 29 640 0 669 0 704 c 0
 0 719 5 734 15 745 c 2
 335 1129 l 2
 347 1143 365 1151 384 1151 c 0
 403 1151 421 1143 433 1129 c 2
 753 745 l 2
 763 734 768 719 768 704 c 0
 768 669 739 640 704 640 c 2
 512 640 l 1
 512 256 l 1
 1088 256 l 2
 1097 256 1107 252 1113 245 c 2
 1273 53 l 2
 1277 47 1280 39 1280 32 c 0
1920 448 m 0
 1920 433 1915 418 1905 407 c 2
 1585 23 l 2
 1573 9 1555 0 1536 0 c 0
 1517 0 1499 9 1487 23 c 2
 1167 407 l 2
 1157 418 1152 433 1152 448 c 0
 1152 483 1181 512 1216 512 c 2
 1408 512 l 1
 1408 896 l 1
 832 896 l 2
 823 896 813 900 807 908 c 2
 647 1100 l 2
 643 1105 640 1113 640 1120 c 0
 640 1137 655 1152 672 1152 c 2
 1632 1152 l 2
 1669 1152 1664 1113 1664 1088 c 2
 1664 928 l 1
 1664 512 l 1
 1856 512 l 2
 1891 512 1920 483 1920 448 c 0
EndSplineSet
EndChar

StartChar: shopping_cart
Encoding: 61562 61562 125
Width: 1664
Flags: MW
VStem: 0 1664<560 1233.5> 384 256<-35.5 35.5 -35.5 207.5> 1280 256<-35.5 35.5>
LayerCount: 2
Fore
SplineSet
640 0 m 0x80
 640 -71 583 -128 512 -128 c 0
 441 -128 384 -71 384 0 c 0
 384 71 441 128 512 128 c 0
 583 128 640 71 640 0 c 0x80
1536 0 m 0
 1536 -71 1479 -128 1408 -128 c 0
 1337 -128 1280 -71 1280 0 c 0
 1280 71 1337 128 1408 128 c 0
 1479 128 1536 71 1536 0 c 0
1664 1088 m 2
 1664 576 l 2x40
 1664 544 1640 516 1607 512 c 2
 563 390 l 1
 567 368 576 343 576 320 c 0
 576 297 562 276 552 256 c 1
 1472 256 l 2
 1507 256 1536 227 1536 192 c 0
 1536 157 1507 128 1472 128 c 2
 448 128 l 2
 413 128 384 157 384 192 c 0
 384 223 431 300 445 329 c 1
 268 1152 l 1
 64 1152 l 2
 29 1152 0 1181 0 1216 c 0
 0 1251 29 1280 64 1280 c 2
 320 1280 l 2
 388 1280 389 1200 399 1152 c 1
 1600 1152 l 2
 1635 1152 1664 1123 1664 1088 c 2
EndSplineSet
EndChar

StartChar: folder_close
Encoding: 61563 61563 126
Width: 1664
Flags: MW
VStem: 0 1664<224 928 162.5 1184 162.5 1245.5>
LayerCount: 2
Fore
SplineSet
1664 928 m 2
 1664 224 l 2
 1664 101 1563 0 1440 0 c 2
 224 0 l 2
 101 0 0 101 0 224 c 2
 0 1184 l 2
 0 1307 101 1408 224 1408 c 2
 544 1408 l 2
 667 1408 768 1307 768 1184 c 2
 768 1152 l 1
 1440 1152 l 2
 1563 1152 1664 1051 1664 928 c 2
EndSplineSet
EndChar

StartChar: folder_open
Encoding: 61564 61564 127
Width: 1920
Flags: MW
VStem: 0 1879<572 606.5 572 1184 572 1245.5>
LayerCount: 2
Fore
SplineSet
1879 584 m 0
 1879 560 1864 536 1848 518 c 2
 1512 122 l 2
 1454 54 1336 0 1248 0 c 2
 160 0 l 2
 124 0 73 11 73 56 c 0
 73 80 88 104 104 122 c 2
 440 518 l 2
 498 586 616 640 704 640 c 2
 1792 640 l 2
 1828 640 1879 629 1879 584 c 0
1536 928 m 2
 1536 768 l 1
 704 768 l 2
 579 768 424 697 343 601 c 2
 6 205 l 1
 1 199 l 1
 1 207 0 216 0 224 c 2
 0 1184 l 2
 0 1307 101 1408 224 1408 c 2
 544 1408 l 2
 667 1408 768 1307 768 1184 c 2
 768 1152 l 1
 1312 1152 l 2
 1435 1152 1536 1051 1536 928 c 2
EndSplineSet
EndChar

StartChar: resize_vertical
Encoding: 61565 61565 128
Width: 768
Flags: MW
VStem: 256 256<128 1152 128 1152>
LayerCount: 2
Fore
SplineSet
704 1216 m 0
 704 1181 675 1152 640 1152 c 2
 512 1152 l 1
 512 128 l 1
 640 128 l 2
 675 128 704 99 704 64 c 0
 704 47 697 31 685 19 c 2
 429 -237 l 2
 417 -249 401 -256 384 -256 c 0
 367 -256 351 -249 339 -237 c 2
 83 19 l 2
 71 31 64 47 64 64 c 0
 64 99 93 128 128 128 c 2
 256 128 l 1
 256 1152 l 1
 128 1152 l 2
 93 1152 64 1181 64 1216 c 0
 64 1233 71 1249 83 1261 c 2
 339 1517 l 2
 351 1529 367 1536 384 1536 c 0
 401 1536 417 1529 429 1517 c 2
 685 1261 l 2
 697 1249 704 1233 704 1216 c 0
EndSplineSet
EndChar

StartChar: resize_horizontal
Encoding: 61566 61566 129
Width: 1792
Flags: MW
VStem: 0 1792<631.5 648.5>
LayerCount: 2
Fore
SplineSet
1792 640 m 0
 1792 623 1785 607 1773 595 c 2
 1517 339 l 2
 1505 327 1489 320 1472 320 c 0
 1437 320 1408 349 1408 384 c 2
 1408 512 l 1
 384 512 l 1
 384 384 l 2
 384 349 355 320 320 320 c 0
 303 320 287 327 275 339 c 2
 19 595 l 2
 7 607 0 623 0 640 c 0
 0 657 7 673 19 685 c 2
 275 941 l 2
 287 953 303 960 320 960 c 0
 355 960 384 931 384 896 c 2
 384 768 l 1
 1408 768 l 1
 1408 896 l 2
 1408 931 1437 960 1472 960 c 0
 1489 960 1505 953 1517 941 c 2
 1773 685 l 2
 1785 673 1792 657 1792 640 c 0
EndSplineSet
EndChar

StartChar: bar_chart
Encoding: 61568 61568 130
Width: 1920
Flags: MW
VStem: 0 128<32 1248> 256 256<128 512 128 512> 640 256<128 1024 128 1024> 1024 256<128 768 128 768> 1408 256<128 1152 128 1152> 1792 128<32 1248>
LayerCount: 2
Fore
SplineSet
512 512 m 1
 512 128 l 1
 256 128 l 1
 256 512 l 1
 512 512 l 1
896 1024 m 1
 896 128 l 1
 640 128 l 1
 640 1024 l 1
 896 1024 l 1
1280 768 m 1
 1280 128 l 1
 1024 128 l 1
 1024 768 l 1
 1280 768 l 1
1664 1152 m 1
 1664 128 l 1
 1408 128 l 1
 1408 1152 l 1
 1664 1152 l 1
1792 32 m 2
 1792 1248 l 2
 1792 1265 1777 1280 1760 1280 c 2
 160 1280 l 2
 143 1280 128 1265 128 1248 c 2
 128 32 l 2
 128 15 143 0 160 0 c 2
 1760 0 l 2
 1777 0 1792 15 1792 32 c 2
1920 1248 m 2
 1920 32 l 2
 1920 -56 1848 -128 1760 -128 c 2
 160 -128 l 2
 72 -128 0 -56 0 32 c 2
 0 1248 l 2
 0 1336 72 1408 160 1408 c 2
 1760 1408 l 2
 1848 1408 1920 1336 1920 1248 c 2
EndSplineSet
EndChar

StartChar: twitter_sign
Encoding: 61569 61569 131
Width: 1536
Flags: MW
VStem: 0 288<678 729.5 729.5 731>
LayerCount: 2
Fore
SplineSet
1280 926 m 1
 1242 909 1202 898 1159 892 c 1
 1203 918 1236 960 1252 1009 c 1
 1211 985 1166 967 1118 958 c 1
 1080 999 1025 1024 965 1024 c 0
 849 1024 755 930 755 814 c 0
 755 798 756 781 760 766 c 1
 585 775 430 858 326 986 c 1
 308 955 297 918 297 880 c 0
 297 807 331 743 388 705 c 1
 353 706 320 716 288 731 c 1
 288 731 288 730 288 729 c 0
 288 627 365 542 461 523 c 1
 443 518 429 515 410 515 c 0
 397 515 384 517 371 519 c 1
 398 436 475 375 567 373 c 1
 495 317 405 283 306 283 c 0
 289 283 272 284 256 286 c 1
 349 227 459 192 578 192 c 0
 964 192 1176 512 1176 790 c 0
 1176 799 1176 808 1175 817 c 1
 1216 846 1252 883 1280 926 c 1
1536 1120 m 2
 1536 160 l 2
 1536 1 1407 -128 1248 -128 c 2
 288 -128 l 2
 129 -128 0 1 0 160 c 2
 0 1120 l 2
 0 1279 129 1408 288 1408 c 2
 1248 1408 l 2
 1407 1408 1536 1279 1536 1120 c 2
EndSplineSet
EndChar

StartChar: facebook_sign
Encoding: 61570 61570 132
Width: 1536
Flags: MW
VStem: 1312 224<960 1120>
LayerCount: 2
Fore
SplineSet
1536 160 m 2
 1536 1 1407 -128 1248 -128 c 2
 1056 -128 l 1
 1056 480 l 1
 1259 480 l 1
 1289 704 l 1
 1056 704 l 1
 1056 847 l 2
 1056 914 1084 959 1180 959 c 2
 1312 960 l 1
 1312 1167 l 1
 1280 1170 1216 1176 1132 1176 c 0
 955 1176 832 1068 832 870 c 2
 832 704 l 1
 608 704 l 1
 608 480 l 1
 832 480 l 1
 832 -128 l 1
 288 -128 l 2
 129 -128 0 1 0 160 c 2
 0 1120 l 2
 0 1279 129 1408 288 1408 c 2
 1248 1408 l 2
 1407 1408 1536 1279 1536 1120 c 2
 1536 160 l 2
EndSplineSet
EndChar

StartChar: camera_retro
Encoding: 61571 61571 133
Width: 1792
Flags: MW
VStem: 0 128<0 128 1024 1152> 640 96<567 620 567 644.5> 1664 128<-128 0 0 128 128 128 1024 1142 1142 1280>
LayerCount: 2
Fore
SplineSet
928 704 m 0
 928 722 914 736 896 736 c 0
 808 736 736 664 736 576 c 0
 736 558 750 544 768 544 c 0
 786 544 800 558 800 576 c 0
 800 629 843 672 896 672 c 0
 914 672 928 686 928 704 c 0
1152 574 m 0
 1152 433 1037 318 896 318 c 0
 755 318 640 433 640 574 c 0
 640 715 755 830 896 830 c 0
 1037 830 1152 715 1152 574 c 0
128 0 m 1
 1664 0 l 1
 1664 128 l 1
 128 128 l 1
 128 0 l 1
1280 574 m 0
 1280 786 1108 958 896 958 c 0
 684 958 512 786 512 574 c 0
 512 362 684 190 896 190 c 0
 1108 190 1280 362 1280 574 c 0
256 1216 m 1
 640 1216 l 1
 640 1344 l 1
 256 1344 l 1
 256 1216 l 1
128 1024 m 1
 1664 1024 l 1
 1664 1142 l 1
 1664 1280 l 1
 836 1280 l 1
 772 1152 l 1
 128 1152 l 1
 128 1024 l 1
1792 1280 m 2
 1792 0 l 2
 1792 -71 1735 -128 1664 -128 c 2
 128 -128 l 2
 57 -128 0 -71 0 0 c 2
 0 1280 l 2
 0 1351 57 1408 128 1408 c 2
 1664 1408 l 2
 1735 1408 1792 1351 1792 1280 c 2
EndSplineSet
EndChar

StartChar: key
Encoding: 61572 61572 134
Width: 1792
Flags: MW
VStem: 0 192<715 821 715 916> 832 192<974 1077>
LayerCount: 2
Fore
SplineSet
832 1024 m 0
 832 1130 746 1216 640 1216 c 0
 534 1216 448 1130 448 1024 c 0
 448 995 455 967 467 941 c 1
 441 953 413 960 384 960 c 0
 278 960 192 874 192 768 c 0
 192 662 278 576 384 576 c 0
 490 576 576 662 576 768 c 0
 576 797 569 825 557 851 c 1
 583 839 611 832 640 832 c 0
 746 832 832 918 832 1024 c 0
1683 320 m 0
 1683 297 1591 205 1568 205 c 0
 1542 205 1461 299 1440 320 c 1
 1344 224 l 1
 1564 4 l 2
 1582 -14 1592 -39 1592 -64 c 0
 1592 -120 1528 -184 1472 -184 c 0
 1447 -184 1422 -174 1404 -156 c 2
 733 515 l 1
 628 437 500 384 368 384 c 0
 150 384 0 535 0 752 c 0
 0 1080 328 1408 656 1408 c 0
 873 1408 1024 1258 1024 1040 c 0
 1024 908 971 780 893 675 c 1
 1248 320 l 1
 1344 416 l 1
 1323 437 1229 518 1229 544 c 0
 1229 567 1321 659 1344 659 c 0
 1352 659 1361 655 1367 649 c 0
 1404 612 1683 349 1683 320 c 0
EndSplineSet
EndChar

StartChar: cogs
Encoding: 61573 61573 135
Width: 1920
Flags: MW
VStem: 1152 256<92.5 163 92.5 198 92.5 205.5 1116.5 1187>
LayerCount: 2
Fore
SplineSet
896 640 m 0
 896 781 781 896 640 896 c 0
 499 896 384 781 384 640 c 0
 384 499 499 384 640 384 c 0
 781 384 896 499 896 640 c 0
1664 128 m 0
 1664 198 1606 256 1536 256 c 0
 1466 256 1408 198 1408 128 c 0
 1408 57 1466 0 1536 0 c 0
 1607 0 1664 58 1664 128 c 0
1664 1152 m 0
 1664 1222 1606 1280 1536 1280 c 0
 1466 1280 1408 1222 1408 1152 c 0
 1408 1081 1466 1024 1536 1024 c 0
 1607 1024 1664 1082 1664 1152 c 0
1280 731 m 2
 1280 546 l 2
 1280 533 1270 518 1257 516 c 2
 1102 492 l 1
 1094 466 1083 441 1070 416 c 1
 1098 376 1128 339 1160 301 c 0
 1164 295 1167 289 1167 281 c 0
 1167 274 1165 267 1160 262 c 0
 1140 235 1028 113 999 113 c 0
 991 113 984 116 978 120 c 2
 863 210 l 1
 838 197 813 187 786 179 c 1
 781 128 776 73 763 24 c 0
 759 10 747 0 733 0 c 2
 547 0 l 2
 533 0 519 11 517 25 c 2
 494 178 l 1
 468 186 443 197 419 209 c 1
 301 120 l 2
 296 115 288 113 281 113 c 0
 273 113 266 116 260 121 c 0
 234 145 116 252 116 281 c 0
 116 288 119 294 123 300 c 0
 152 338 182 375 211 414 c 1
 197 441 185 468 176 496 c 1
 24 520 l 2
 10 522 0 535 0 549 c 2
 0 734 l 2
 0 747 10 762 23 764 c 2
 178 788 l 1
 186 814 197 839 210 864 c 1
 182 904 152 941 120 979 c 0
 116 985 113 992 113 999 c 0
 113 1006 115 1013 120 1019 c 0
 140 1046 252 1167 281 1167 c 0
 289 1167 296 1164 302 1160 c 2
 417 1070 l 1
 442 1083 467 1093 494 1102 c 1
 499 1152 504 1207 517 1256 c 0
 521 1270 533 1280 547 1280 c 2
 733 1280 l 2
 747 1280 761 1269 763 1255 c 2
 786 1102 l 1
 812 1094 837 1083 861 1071 c 1
 979 1160 l 2
 985 1165 992 1167 999 1167 c 0
 1007 1167 1014 1164 1020 1159 c 0
 1046 1135 1164 1027 1164 999 c 0
 1164 992 1161 986 1157 980 c 0
 1128 941 1098 905 1070 866 c 1
 1083 839 1095 812 1104 784 c 1
 1256 761 l 2
 1270 758 1280 745 1280 731 c 2
1920 198 m 2
 1920 58 l 2
 1920 43 1791 29 1771 27 c 1
 1763 8 1753 -9 1741 -25 c 1
 1750 -45 1792 -145 1792 -163 c 0
 1792 -166 1791 -168 1788 -170 c 0
 1776 -177 1669 -241 1664 -241 c 0
 1651 -241 1576 -141 1566 -126 c 1
 1556 -127 1546 -128 1536 -128 c 0
 1526 -128 1516 -127 1506 -126 c 1
 1496 -141 1421 -241 1408 -241 c 0
 1403 -241 1296 -177 1284 -170 c 0
 1281 -168 1280 -165 1280 -163 c 0
 1280 -146 1322 -45 1331 -25 c 1
 1319 -9 1309 8 1301 27 c 1
 1281 29 1152 43 1152 58 c 2
 1152 198 l 2
 1152 213 1281 227 1301 229 c 1
 1309 247 1319 265 1331 281 c 1
 1322 301 1280 402 1280 419 c 0
 1280 421 1281 424 1284 426 c 0
 1296 432 1403 496 1408 496 c 0
 1421 496 1496 397 1506 382 c 1
 1516 383 1526 384 1536 384 c 0
 1546 384 1556 383 1566 382 c 1
 1594 421 1624 460 1658 494 c 1
 1664 496 l 2
 1669 496 1776 433 1788 426 c 0
 1791 424 1792 421 1792 419 c 0
 1792 401 1750 301 1741 281 c 1
 1753 265 1763 247 1771 229 c 1
 1791 227 1920 213 1920 198 c 2
1920 1222 m 2
 1920 1082 l 2
 1920 1067 1791 1053 1771 1051 c 1
 1763 1032 1753 1015 1741 999 c 1
 1750 979 1792 879 1792 861 c 0
 1792 858 1791 856 1788 854 c 0
 1776 847 1669 783 1664 783 c 0
 1651 783 1576 883 1566 898 c 1
 1556 897 1546 896 1536 896 c 0
 1526 896 1516 897 1506 898 c 1
 1496 883 1421 783 1408 783 c 0
 1403 783 1296 847 1284 854 c 0
 1281 856 1280 859 1280 861 c 0
 1280 878 1322 979 1331 999 c 1
 1319 1015 1309 1032 1301 1051 c 1
 1281 1053 1152 1067 1152 1082 c 2
 1152 1222 l 2
 1152 1237 1281 1251 1301 1253 c 1
 1309 1271 1319 1289 1331 1305 c 1
 1322 1325 1280 1426 1280 1443 c 0
 1280 1445 1281 1448 1284 1450 c 0
 1296 1456 1403 1520 1408 1520 c 0
 1421 1520 1496 1421 1506 1406 c 1
 1516 1407 1526 1408 1536 1408 c 0
 1546 1408 1556 1407 1566 1406 c 1
 1594 1445 1624 1484 1658 1518 c 1
 1664 1520 l 2
 1669 1520 1776 1457 1788 1450 c 0
 1791 1448 1792 1445 1792 1443 c 0
 1792 1425 1750 1325 1741 1305 c 1
 1753 1289 1763 1271 1771 1253 c 1
 1791 1251 1920 1237 1920 1222 c 2
EndSplineSet
EndChar

StartChar: comments
Encoding: 61574 61574 136
Width: 1792
Flags: MW
VStem: 0 1792<430.5 909.5>
LayerCount: 2
Fore
SplineSet
1408 768 m 0
 1408 485 1093 256 704 256 c 0
 643 256 584 262 528 272 c 1
 445 213 351 170 250 144 c 0
 223 137 194 132 164 128 c 0
 163 128 162 128 161 128 c 0
 146 128 132 140 129 157 c 1
 129 157 129 157 129 157 c 1
 125 176 138 188 149 201 c 0
 188 245 232 284 266 367 c 1
 104 461 0 606 0 768 c 0
 0 1051 315 1280 704 1280 c 0
 1093 1280 1408 1051 1408 768 c 0
1792 512 m 0
 1792 349 1688 205 1526 111 c 1
 1560 28 1604 -11 1643 -55 c 0
 1654 -68 1667 -80 1663 -99 c 1
 1663 -99 1663 -99 1663 -99 c 1
 1659 -117 1644 -130 1628 -128 c 0
 1598 -124 1569 -119 1542 -112 c 0
 1441 -86 1347 -43 1264 16 c 1
 1208 6 1149 0 1088 0 c 0
 907 0 741 50 616 132 c 1
 645 130 675 128 704 128 c 0
 919 128 1122 190 1277 302 c 0
 1444 424 1536 589 1536 768 c 0
 1536 820 1528 871 1513 920 c 1
 1682 827 1792 679 1792 512 c 0
EndSplineSet
EndChar

StartChar: thumbs_up_alt
Encoding: 61575 61575 137
Width: 1536
Flags: MW
VStem: 0 128<174.5 209.5> 256 128<174.5 209.5> 691 125 1024 128<1181 1249.5 1181 1274.5> 1333 128<326 357 318 361> 1368 128<513.5 548.5 512 553> 1408 128<749.5 802>
LayerCount: 2
Fore
SplineSet
256 192 m 0xf4
 256 227 227 256 192 256 c 0
 157 256 128 227 128 192 c 0xf8
 128 157 157 128 192 128 c 0
 227 128 256 157 256 192 c 0xf4
1408 768 m 0
 1408 836 1347 896 1280 896 c 2
 928 896 l 1
 928 1013 1024 1098 1024 1216 c 0
 1024 1333 1001 1408 864 1408 c 1
 800 1343 833 1190 736 1088 c 0
 708 1059 684 1028 659 997 c 0
 614 939 495 768 416 768 c 2
 384 768 l 1
 384 128 l 1
 416 128 l 2
 472 128 564 92 618 73 c 0
 728 35 842 0 960 0 c 2
 1081 0 l 2
 1194 0 1273 45 1273 167 c 0
 1273 186 1271 205 1268 223 c 1
 1310 246 1333 303 1333 349 c 0
 1333 373 1327 397 1315 418 c 1xf2
 1349 450 1368 490 1368 537 c 0
 1368 569 1354 616 1333 640 c 1
 1380 641 1408 731 1408 768 c 0
1536 769 m 0
 1536 711 1519 654 1487 606 c 1
 1493 584 1496 560 1496 537 c 0
 1496 487 1483 437 1458 393 c 1
 1460 379 1461 364 1461 350 c 0
 1461 286 1440 222 1401 172 c 1
 1403 -17 1274 -128 1089 -128 c 2
 1053 -128 l 1xf2
 960 -128 l 2
 818 -128 686 -86 554 -40 c 0xf4
 525 -30 444 0 416 0 c 2
 128 0 l 2
 57 0 0 57 0 128 c 2
 0 768 l 2
 0 839 57 896 128 896 c 2
 402 896 l 1xf8
 441 922 509 1012 539 1051 c 0
 573 1095 608 1138 646 1179 c 0
 706 1243 674 1401 774 1499 c 0
 798 1522 830 1536 864 1536 c 0
 968 1536 1068 1499 1117 1402 c 0
 1148 1341 1152 1283 1152 1216 c 0
 1152 1146 1134 1086 1104 1024 c 1
 1280 1024 l 2
 1418 1024 1536 907 1536 769 c 0
EndSplineSet
EndChar

StartChar: thumbs_down_alt
Encoding: 61576 61576 138
Width: 1536
Flags: MW
VStem: 0 128<1070.5 1105.5> 256 128<1070.5 1105.5> 690 125 1024 128<31 99 31 123> 1273 128<1108 1113 1108 1171.5> 1333 128<923 954> 1368 128<731.5 766.5> 1408 128<478 530.5>
LayerCount: 2
Fore
SplineSet
256 1088 m 0xf1
 256 1123 227 1152 192 1152 c 0
 157 1152 128 1123 128 1088 c 0xf8
 128 1053 157 1024 192 1024 c 0
 227 1024 256 1053 256 1088 c 0xf1
1408 512 m 0
 1408 549 1380 639 1333 640 c 1
 1354 664 1368 711 1368 743 c 0
 1368 790 1349 830 1315 862 c 1xf1
 1327 883 1333 907 1333 931 c 0
 1333 977 1310 1034 1268 1057 c 1xf2
 1271 1075 1273 1094 1273 1113 c 0xf4
 1273 1230 1199 1280 1088 1280 c 2
 960 1280 l 2
 842 1280 728 1245 618 1207 c 0
 564 1188 472 1152 416 1152 c 2
 384 1152 l 1
 384 512 l 1
 416 512 l 2
 495 512 614 341 659 283 c 0
 684 252 708 221 736 192 c 0
 833 90 800 -63 864 -128 c 1
 1001 -128 1024 -53 1024 64 c 0
 1024 182 928 267 928 384 c 1
 1280 384 l 2
 1347 384 1408 444 1408 512 c 0
1536 511 m 0
 1536 373 1418 256 1280 256 c 2
 1104 256 l 1
 1134 194 1152 134 1152 64 c 0
 1152 -2 1148 -62 1117 -122 c 0
 1068 -219 968 -256 864 -256 c 0
 830 -256 798 -242 774 -219 c 0
 674 -121 705 37 646 102 c 0
 608 142 573 185 539 229 c 0
 509 268 441 358 402 384 c 1
 128 384 l 2
 57 384 0 441 0 512 c 2
 0 1152 l 2
 0 1223 57 1280 128 1280 c 2
 416 1280 l 2
 444 1280 525 1310 554 1320 c 0
 698 1370 823 1408 977 1408 c 2
 1089 1408 l 2
 1271 1408 1402 1300 1401 1113 c 2
 1401 1108 l 1
 1440 1058 1461 994 1461 930 c 0
 1461 916 1460 901 1458 887 c 1xf8
 1483 843 1496 793 1496 743 c 0
 1496 720 1493 696 1487 674 c 1xf4
 1519 626 1536 569 1536 511 c 0
EndSplineSet
EndChar

StartChar: star_half
Encoding: 61577 61577 139
Width: 896
Flags: MW
VStem: 0 832<880 904>
LayerCount: 2
Fore
SplineSet
832 1504 m 1
 832 165 l 1
 832 165 l 1
 383 -71 l 2
 370 -78 357 -83 343 -83 c 0
 314 -83 301 -59 301 -33 c 0
 301 -26 302 -20 303 -13 c 2
 389 487 l 1
 25 841 l 2
 13 854 0 871 0 889 c 0
 0 919 31 931 56 935 c 2
 558 1008 l 1
 783 1463 l 2
 792 1482 809 1504 832 1504 c 1
 832 1504 l 1
EndSplineSet
EndChar

StartChar: heart_empty
Encoding: 61578 61578 140
Width: 1792
Flags: MW
VStem: 0 128<848.5 1080.5 848.5 1086.5> 1664 128<848.5 1080.5>
LayerCount: 2
Fore
SplineSet
1664 940 m 0
 1664 1221 1474 1280 1314 1280 c 0
 1165 1280 997 1119 945 1057 c 0
 921 1028 871 1028 847 1057 c 0
 795 1119 627 1280 478 1280 c 0
 318 1280 128 1221 128 940 c 0
 128 757 313 587 315 585 c 2
 896 25 l 1
 1476 584 l 2
 1479 587 1664 757 1664 940 c 0
1792 940 m 0
 1792 700 1572 499 1563 490 c 2
 940 -110 l 2
 928 -122 912 -128 896 -128 c 0
 880 -128 864 -122 852 -110 c 2
 228 492 l 2
 220 499 0 700 0 940 c 0
 0 1233 179 1408 478 1408 c 0
 653 1408 817 1270 896 1192 c 1
 975 1270 1139 1408 1314 1408 c 0
 1613 1408 1792 1233 1792 940 c 0
EndSplineSet
EndChar

StartChar: signout
Encoding: 61579 61579 141
Width: 1664
Flags: MW
VStem: 0 128<288 992>
LayerCount: 2
Fore
SplineSet
640 96 m 0
 640 68 653 0 608 0 c 2
 288 0 l 2
 129 0 0 129 0 288 c 2
 0 992 l 2
 0 1151 129 1280 288 1280 c 2
 608 1280 l 2
 625 1280 640 1265 640 1248 c 0
 640 1220 653 1152 608 1152 c 2
 288 1152 l 2
 200 1152 128 1080 128 992 c 2
 128 288 l 2
 128 200 200 128 288 128 c 2
 576 128 l 2
 601 128 640 133 640 96 c 0
1568 640 m 0
 1568 623 1561 607 1549 595 c 2
 1005 51 l 2
 993 39 977 32 960 32 c 0
 925 32 896 61 896 96 c 2
 896 384 l 1
 448 384 l 2
 413 384 384 413 384 448 c 2
 384 832 l 2
 384 867 413 896 448 896 c 2
 896 896 l 1
 896 1184 l 2
 896 1219 925 1248 960 1248 c 0
 977 1248 993 1241 1005 1229 c 2
 1549 685 l 2
 1561 673 1568 657 1568 640 c 0
EndSplineSet
EndChar

StartChar: linkedin_sign
Encoding: 61580 61580 142
Width: 1536
Flags: MW
VStem: 0 237<160 816> 468 127<122 816 122 816> 826 242<122 493> 1299 237<122 160 160 520 520 626.5>
LayerCount: 2
Fore
SplineSet
237 122 m 1
 468 122 l 1
 468 816 l 1
 237 816 l 1
 237 122 l 1
483 1030 m 0
 482 1098 433 1150 354 1150 c 0
 275 1150 223 1098 223 1030 c 0
 223 964 273 910 351 910 c 2
 352 910 l 1
 352 910 l 1
 433 910 483 964 483 1030 c 0
1068 122 m 1
 1299 122 l 1
 1299 520 l 2
 1299 733 1185 832 1033 832 c 0
 909 832 854 763 824 715 c 1
 826 715 l 1
 826 816 l 1
 595 816 l 1
 595 816 598 751 595 122 c 1
 595 122 l 1
 826 122 l 1
 826 510 l 2
 826 530 827 551 833 566 c 0
 850 607 888 650 952 650 c 0
 1035 650 1068 587 1068 493 c 2
 1068 122 l 1
1536 1120 m 2
 1536 160 l 2
 1536 1 1407 -128 1248 -128 c 2
 288 -128 l 2
 129 -128 0 1 0 160 c 2
 0 1120 l 2
 0 1279 129 1408 288 1408 c 2
 1248 1408 l 2
 1407 1408 1536 1279 1536 1120 c 2
EndSplineSet
EndChar

StartChar: pushpin
Encoding: 61581 61581 143
Width: 1152
Flags: MW
VStem: 256 160<663 672 672 1120>
LayerCount: 2
Fore
SplineSet
480 672 m 2
 480 1120 l 2
 480 1138 466 1152 448 1152 c 0
 430 1152 416 1138 416 1120 c 2
 416 672 l 2
 416 654 430 640 448 640 c 0
 466 640 480 654 480 672 c 2
1152 320 m 0
 1152 285 1123 256 1088 256 c 2
 659 256 l 1
 608 -227 l 2
 606 -243 593 -256 577 -256 c 2
 577 -256 576 -256 576 -256 c 2
 560 -256 547 -245 544 -229 c 2
 468 256 l 1
 64 256 l 2
 29 256 0 285 0 320 c 0
 0 484 124 640 256 640 c 1
 256 1152 l 1
 186 1152 128 1210 128 1280 c 0
 128 1350 186 1408 256 1408 c 2
 896 1408 l 2
 966 1408 1024 1350 1024 1280 c 0
 1024 1210 966 1152 896 1152 c 1
 896 640 l 1
 1028 640 1152 484 1152 320 c 0
EndSplineSet
EndChar

StartChar: external_link
Encoding: 61582 61582 144
Width: 1792
Flags: MW
VStem: 0 128<288 1120> 1280 128<288 608>
LayerCount: 2
Fore
SplineSet
1408 608 m 2
 1408 288 l 2
 1408 129 1279 0 1120 0 c 2
 288 0 l 2
 129 0 0 129 0 288 c 2
 0 1120 l 2
 0 1279 129 1408 288 1408 c 2
 992 1408 l 2
 1010 1408 1024 1394 1024 1376 c 2
 1024 1312 l 2
 1024 1294 1010 1280 992 1280 c 2
 288 1280 l 2
 200 1280 128 1208 128 1120 c 2
 128 288 l 2
 128 200 200 128 288 128 c 2
 1120 128 l 2
 1208 128 1280 200 1280 288 c 2
 1280 608 l 2
 1280 626 1294 640 1312 640 c 2
 1376 640 l 2
 1394 640 1408 626 1408 608 c 2
1792 1472 m 2
 1792 960 l 2
 1792 925 1763 896 1728 896 c 0
 1711 896 1695 903 1683 915 c 2
 1507 1091 l 1
 855 439 l 2
 849 433 840 429 832 429 c 0
 824 429 815 433 809 439 c 2
 695 553 l 2
 689 559 685 568 685 576 c 0
 685 584 689 593 695 599 c 2
 1347 1251 l 1
 1171 1427 l 2
 1159 1439 1152 1455 1152 1472 c 0
 1152 1507 1181 1536 1216 1536 c 2
 1728 1536 l 2
 1763 1536 1792 1507 1792 1472 c 2
EndSplineSet
EndChar

StartChar: signin
Encoding: 61584 61584 145
Width: 1536
Flags: MW
VStem: 1408 128<288 992>
LayerCount: 2
Fore
SplineSet
1184 640 m 0
 1184 623 1177 607 1165 595 c 2
 621 51 l 2
 609 39 593 32 576 32 c 0
 541 32 512 61 512 96 c 2
 512 384 l 1
 64 384 l 2
 29 384 0 413 0 448 c 2
 0 832 l 2
 0 867 29 896 64 896 c 2
 512 896 l 1
 512 1184 l 2
 512 1219 541 1248 576 1248 c 0
 593 1248 609 1241 621 1229 c 2
 1165 685 l 2
 1177 673 1184 657 1184 640 c 0
1536 992 m 2
 1536 288 l 2
 1536 129 1407 0 1248 0 c 2
 928 0 l 2
 911 0 896 15 896 32 c 0
 896 60 883 128 928 128 c 2
 1248 128 l 2
 1336 128 1408 200 1408 288 c 2
 1408 992 l 2
 1408 1080 1336 1152 1248 1152 c 2
 960 1152 l 2
 935 1152 896 1147 896 1184 c 0
 896 1212 883 1280 928 1280 c 2
 1248 1280 l 2
 1407 1280 1536 1151 1536 992 c 2
EndSplineSet
EndChar

StartChar: trophy
Encoding: 61585 61585 146
Width: 1664
Flags: MW
VStem: 0 128<928 1024 879 1056> 704 256<224 288> 1536 128<928 1024 1024 1024>
CounterMasks: 1 e0
LayerCount: 2
Fore
SplineSet
458 653 m 1
 416 745 384 867 384 1024 c 1
 128 1024 l 1
 128 928 l 2
 128 830 261 694 458 653 c 1
1536 928 m 2
 1536 1024 l 1
 1280 1024 l 1
 1280 867 1248 745 1206 653 c 1
 1403 694 1536 830 1536 928 c 2
1664 1056 m 2
 1664 928 l 2
 1664 738 1434 528 1122 513 c 1
 1082 462 1045 432 1027 418 c 0
 974 370 960 320 960 256 c 0
 960 192 992 128 1088 128 c 0
 1184 128 1280 64 1280 -32 c 2
 1280 -96 l 2
 1280 -114 1266 -128 1248 -128 c 2
 416 -128 l 2
 398 -128 384 -114 384 -96 c 2
 384 -32 l 2
 384 64 480 128 576 128 c 0
 672 128 704 192 704 256 c 0
 704 320 690 370 637 418 c 0
 619 432 582 462 542 513 c 1
 230 528 0 738 0 928 c 2
 0 1056 l 2
 0 1109 43 1152 96 1152 c 2
 384 1152 l 1
 384 1248 l 2
 384 1336 456 1408 544 1408 c 2
 1120 1408 l 2
 1208 1408 1280 1336 1280 1248 c 2
 1280 1152 l 1
 1568 1152 l 2
 1621 1152 1664 1109 1664 1056 c 2
EndSplineSet
EndChar

StartChar: github_sign
Encoding: 61586 61586 147
Width: 1536
Flags: MW
VStem: 0 203 331 25 540 38 1258 278<532.5 722>
LayerCount: 2
Fore
SplineSet
394 184 m 0
 390 179 381 180 374 187 c 0
 367 193 365 202 370 206 c 0
 374 211 383 210 390 203 c 0
 396 197 398 188 394 184 c 0
352 245 m 0x20
 357 238 357 230 352 226 c 1
 352 226 l 1
 348 223 340 226 335 233 c 0
 330 240 330 248 335 251 c 0
 340 255 348 252 352 245 c 0x20
291 305 m 0
 289 302 283 300 278 303 c 0
 272 306 269 311 271 315 c 0
 273 318 278 319 284 317 c 0
 290 314 293 309 291 305 c 0
322 271 m 0
 318 267 311 269 306 274 c 0
 301 280 300 287 304 290 c 0
 308 294 315 292 320 287 c 0
 325 281 326 274 322 271 c 0
451 159 m 0
 449 153 440 150 432 153 c 0
 423 155 417 162 419 168 c 0
 421 174 430 177 438 175 c 0
 447 172 453 165 451 159 c 0
514 154 m 0
 514 148 507 143 498 143 c 0
 488 142 481 147 481 154 c 0
 481 160 488 165 497 165 c 0
 506 166 514 161 514 154 c 0
572 164 m 0
 573 158 567 152 558 150 c 0
 549 148 541 152 540 158 c 0
 539 165 545 171 554 173 c 0
 563 174 571 170 572 164 c 0
1536 1120 m 2
 1536 160 l 2
 1536 1 1407 -128 1248 -128 c 2
 1024 -128 l 2
 992 -128 959 -128 959 -80 c 0
 959 -55 959 56 959 159 c 0
 959 231 935 277 907 301 c 1
 1078 320 1258 385 1258 680 c 0
 1258 764 1228 833 1179 886 c 1
 1187 906 1213 984 1171 1090 c 1
 1107 1110 960 1011 960 1011 c 1
 899 1028 833 1037 768 1037 c 0
 703 1037 637 1028 576 1011 c 1
 576 1011 429 1110 364 1090 c 1
 323 984 349 906 357 886 c 1
 308 833 278 764 278 680 c 0
 278 386 457 320 628 301 c 1
 606 281 586 248 579 198 c 1
 535 178 423 144 356 262 c 0
 314 335 238 341 238 341 c 1
 163 342 233 294 233 294 c 1
 283 271 318 182 318 182 c 1
 363 45 577 91 577 91 c 1
 577 27 578 -62 578 -80 c 0
 578 -128 544 -128 512 -128 c 2
 288 -128 l 2
 129 -128 0 1 0 160 c 2
 0 1120 l 2
 0 1279 129 1408 288 1408 c 2
 1248 1408 l 2
 1407 1408 1536 1279 1536 1120 c 2
EndSplineSet
EndChar

StartChar: upload_alt
Encoding: 61587 61587 148
Width: 1664
Flags: MW
VStem: 1280 128<46.5 81.5> 1536 128<46.5 81.5>
LayerCount: 2
Fore
SplineSet
1280 64 m 0
 1280 99 1251 128 1216 128 c 0
 1181 128 1152 99 1152 64 c 0
 1152 29 1181 0 1216 0 c 0
 1251 0 1280 29 1280 64 c 0
1536 64 m 0
 1536 99 1507 128 1472 128 c 0
 1437 128 1408 99 1408 64 c 0
 1408 29 1437 0 1472 0 c 0
 1507 0 1536 29 1536 64 c 0
1664 288 m 2
 1664 -32 l 2
 1664 -85 1621 -128 1568 -128 c 2
 96 -128 l 2
 43 -128 0 -85 0 -32 c 2
 0 288 l 2
 0 341 43 384 96 384 c 2
 523 384 l 1
 550 310 621 256 704 256 c 2
 960 256 l 2
 1043 256 1114 310 1141 384 c 1
 1568 384 l 2
 1621 384 1664 341 1664 288 c 2
1339 936 m 0
 1329 912 1306 896 1280 896 c 2
 1024 896 l 1
 1024 448 l 2
 1024 413 995 384 960 384 c 2
 704 384 l 2
 669 384 640 413 640 448 c 2
 640 896 l 1
 384 896 l 2
 358 896 335 912 325 936 c 0
 315 959 320 987 339 1005 c 2
 787 1453 l 2
 799 1466 816 1472 832 1472 c 0
 848 1472 865 1466 877 1453 c 2
 1325 1005 l 2
 1344 987 1349 959 1339 936 c 0
EndSplineSet
EndChar

StartChar: lemon
Encoding: 61588 61588 149
Width: 1536
Flags: MW
VStem: 0 128<393.5 554.5 393.5 575> 3 128<47 79.5> 25 128<170 231.5> 1362 128<1162.5 1194.5> 1407 128<572 733.5>
LayerCount: 2
Fore
SplineSet
1407 710 m 0x88
 1407 757 1398 880 1382 920 c 0
 1363 968 1352 995 1352 1049 c 0
 1352 1095 1362 1140 1362 1185 c 0x90
 1362 1204 1361 1224 1352 1240 c 0
 1348 1241 1343 1241 1339 1241 c 0
 1300 1241 1261 1232 1222 1232 c 0x88
 1103 1232 990 1280 871 1280 c 0
 778 1280 688 1245 602 1211 c 0
 534 1184 459 1152 400 1108 c 0
 198 955 128 675 128 434 c 0x28
 128 353 153 274 153 193 c 0
 153 147 131 105 131 61 c 0x48
 131 33 147 10 177 10 c 0
 226 10 273 32 323 32 c 0
 437 32 548 1 662 1 c 0
 751 1 863 8 946 37 c 0
 1209 130 1407 434 1407 710 c 0x88
1535 712 m 0
 1535 379 1304 28 988 -84 c 0
 889 -119 766 -128 662 -128 c 0
 548 -128 436 -99 323 -99 c 0
 275 -99 227 -128 177 -128 c 0x48
 78 -128 3 -39 3 56 c 0
 3 103 25 145 25 191 c 0
 25 272 0 351 0 433 c 0
 0 717 87 1031 323 1210 c 0x88
 391 1262 476 1299 555 1330 c 0x90
 657 1371 760 1408 871 1408 c 0
 990 1408 1103 1360 1220 1360 c 0
 1258 1360 1296 1370 1335 1370 c 0
 1449 1370 1490 1289 1490 1185 c 0
 1490 1140 1480 1094 1480 1049 c 0x88
 1480 1013 1489 999 1501 967 c 0
 1524 909 1535 776 1535 712 c 0
EndSplineSet
EndChar

StartChar: phone
Encoding: 61589 61589 150
Width: 1408
Flags: MW
VStem: 0 1408<278 1102.5>
LayerCount: 2
Fore
SplineSet
1408 296 m 0
 1408 260 1392 190 1377 157 c 0
 1356 108 1300 76 1255 51 c 0
 1196 19 1136 0 1069 0 c 0
 976 0 892 38 807 69 c 0
 746 91 687 118 632 152 c 0
 462 257 257 462 152 632 c 0
 118 687 91 746 69 807 c 0
 38 892 0 976 0 1069 c 0
 0 1136 19 1196 51 1255 c 0
 76 1300 108 1356 157 1377 c 0
 190 1392 260 1408 296 1408 c 0
 303 1408 310 1408 317 1405 c 0
 338 1398 360 1349 370 1329 c 0
 402 1272 433 1214 466 1158 c 0
 482 1132 512 1100 512 1069 c 0
 512 1008 331 919 331 865 c 0
 331 838 356 803 370 779 c 0
 471 597 597 471 779 370 c 0
 803 356 838 331 865 331 c 0
 919 331 1008 512 1069 512 c 0
 1100 512 1132 482 1158 466 c 0
 1214 433 1272 402 1329 370 c 0
 1349 360 1398 338 1405 317 c 0
 1408 310 1408 303 1408 296 c 0
EndSplineSet
EndChar

StartChar: check_empty
Encoding: 61590 61590 151
Width: 1408
Flags: MW
VStem: 0 128<288 1120> 1280 128<288 1120>
LayerCount: 2
Fore
SplineSet
1120 1280 m 2
 288 1280 l 2
 200 1280 128 1208 128 1120 c 2
 128 288 l 2
 128 200 200 128 288 128 c 2
 1120 128 l 2
 1208 128 1280 200 1280 288 c 2
 1280 1120 l 2
 1280 1208 1208 1280 1120 1280 c 2
1408 1120 m 2
 1408 288 l 2
 1408 129 1279 0 1120 0 c 2
 288 0 l 2
 129 0 0 129 0 288 c 2
 0 1120 l 2
 0 1279 129 1408 288 1408 c 2
 1120 1408 l 1
 1120 1408 l 1
 1279 1408 1408 1279 1408 1120 c 2
EndSplineSet
EndChar

StartChar: bookmark_empty
Encoding: 61591 61591 152
Width: 1280
Flags: MW
VStem: 0 128<38 1280 38 1296 38 1318.5> 1152 128<38 1280 1280 1280>
LayerCount: 2
Fore
SplineSet
1152 1280 m 1
 128 1280 l 1
 128 38 l 1
 551 444 l 1
 640 529 l 1
 729 444 l 1
 1152 38 l 1
 1152 1280 l 1
1164 1408 m 0
 1179 1408 1194 1405 1208 1399 c 0
 1252 1382 1280 1341 1280 1296 c 2
 1280 7 l 2
 1280 -38 1252 -79 1208 -96 c 0
 1194 -102 1179 -104 1164 -104 c 0
 1133 -104 1104 -93 1081 -72 c 2
 640 352 l 1
 199 -72 l 2
 176 -93 147 -105 116 -105 c 0
 101 -105 86 -102 72 -96 c 0
 28 -79 0 -38 0 7 c 2
 0 1296 l 2
 0 1341 28 1382 72 1399 c 0
 86 1405 101 1408 116 1408 c 0
 147 1408 1133 1408 1164 1408 c 0
EndSplineSet
EndChar

StartChar: phone_sign
Encoding: 61592 61592 153
Width: 1536
Flags: MW
VStem: 0 256<871.5 939.5 871.5 1120 871.5 1199.5> 1280 256<330 345.5>
LayerCount: 2
Fore
SplineSet
1280 343 m 0
 1280 348 1280 354 1278 359 c 0
 1272 377 1126 451 1098 467 c 0
 1079 478 1056 500 1033 500 c 0
 989 500 924 369 885 369 c 0
 865 369 840 387 822 397 c 0
 690 471 599 562 525 694 c 0
 515 712 497 737 497 757 c 0
 497 796 628 861 628 905 c 0
 628 928 606 951 595 970 c 0
 579 998 505 1144 487 1150 c 0
 482 1152 476 1152 471 1152 c 0
 445 1152 394 1140 370 1130 c 0
 304 1100 256 974 256 905 c 0
 256 838 283 777 306 715 c 0
 386 496 624 258 843 178 c 0
 905 155 966 128 1033 128 c 0
 1102 128 1228 176 1258 242 c 0
 1268 266 1280 317 1280 343 c 0
1536 1120 m 2
 1536 160 l 2
 1536 1 1407 -128 1248 -128 c 2
 288 -128 l 2
 129 -128 0 1 0 160 c 2
 0 1120 l 2
 0 1279 129 1408 288 1408 c 2
 1248 1408 l 2
 1407 1408 1536 1279 1536 1120 c 2
EndSplineSet
EndChar

StartChar: twitter
Encoding: 61593 61593 154
Width: 1664
Flags: MW
VStem: 44 1576
LayerCount: 2
Fore
SplineSet
1620 1128 m 1
 1576 1064 1521 1007 1458 961 c 1
 1459 947 1459 933 1459 919 c 0
 1459 492 1134 0 540 0 c 0
 357 0 187 53 44 145 c 1
 70 142 95 141 122 141 c 0
 273 141 412 192 523 279 c 1
 381 282 262 375 221 503 c 1
 241 500 261 498 282 498 c 0
 311 498 340 502 367 509 c 1
 219 539 108 669 108 826 c 0
 108 827 108 829 108 830 c 1
 151 806 201 791 254 789 c 1
 167 847 110 946 110 1058 c 0
 110 1118 126 1173 154 1221 c 1
 313 1025 552 897 820 883 c 1
 815 907 812 932 812 957 c 0
 812 1135 956 1280 1135 1280 c 0
 1228 1280 1312 1241 1371 1178 c 1
 1444 1192 1514 1219 1576 1256 c 1
 1552 1181 1501 1118 1434 1078 c 1
 1499 1085 1562 1103 1620 1128 c 1
EndSplineSet
EndChar

StartChar: facebook
Encoding: 61594 61594 155
Width: 1024
Flags: MW
VStem: 350 306<-128 631 -128 631 927 1116>
LayerCount: 2
Fore
SplineSet
959 1524 m 1
 959 1260 l 1
 802 1260 l 2
 679 1260 656 1201 656 1116 c 2
 656 927 l 1
 949 927 l 1
 910 631 l 1
 656 631 l 1
 656 -128 l 1
 350 -128 l 1
 350 631 l 1
 95 631 l 1
 95 927 l 1
 350 927 l 1
 350 1145 l 2
 350 1398 505 1536 731 1536 c 0
 839 1536 932 1528 959 1524 c 1
EndSplineSet
EndChar

StartChar: github
Encoding: 61595 61595 156
Width: 1536
Flags: MW
VStem: 0 278<533 722 533 852> 1258 278<532.5 722>
LayerCount: 2
Fore
SplineSet
1536 640 m 0
 1536 301 1316 13 1011 -89 c 1
 972 -96 959 -72 959 -52 c 0
 959 -27 959 56 959 159 c 0
 959 231 935 277 907 301 c 1
 1078 320 1258 385 1258 680 c 0
 1258 764 1228 833 1179 886 c 1
 1187 906 1213 984 1171 1090 c 1
 1107 1110 960 1011 960 1011 c 1
 899 1028 833 1037 768 1037 c 0
 703 1037 637 1028 576 1011 c 1
 576 1011 429 1110 364 1090 c 1
 323 984 349 906 357 886 c 1
 308 833 278 764 278 680 c 0
 278 386 457 320 628 301 c 1
 606 281 586 248 579 198 c 1
 535 178 423 144 356 262 c 0
 314 335 238 341 238 341 c 1
 163 342 233 294 233 294 c 1
 283 271 318 182 318 182 c 1
 363 45 577 91 577 91 c 1
 577 27 578 -34 578 -52 c 0
 578 -72 564 -96 525 -89 c 1
 220 13 0 301 0 640 c 0
 0 1064 344 1408 768 1408 c 0
 1192 1408 1536 1064 1536 640 c 0
EndSplineSet
EndChar

StartChar: unlock
Encoding: 61596 61596 157
Width: 1664
Flags: MW
VStem: 768 192<768 960 768 1083.5> 1472 192<704 960>
LayerCount: 2
Fore
SplineSet
1664 960 m 2
 1664 704 l 2
 1664 669 1635 640 1600 640 c 2
 1536 640 l 2
 1501 640 1472 669 1472 704 c 2
 1472 960 l 2
 1472 1101 1357 1216 1216 1216 c 0
 1075 1216 960 1101 960 960 c 2
 960 768 l 1
 1056 768 l 2
 1109 768 1152 725 1152 672 c 2
 1152 96 l 2
 1152 43 1109 0 1056 0 c 2
 96 0 l 2
 43 0 0 43 0 96 c 2
 0 672 l 2
 0 725 43 768 96 768 c 2
 768 768 l 1
 768 960 l 2
 768 1207 969 1408 1216 1408 c 0
 1463 1408 1664 1207 1664 960 c 2
EndSplineSet
EndChar

StartChar: credit_card
Encoding: 61597 61597 158
Width: 1920
Flags: MW
VStem: 0 128<32 640 1024 1248> 256 256<128 256 128 256> 1792 128<32 640 640 640 1024 1248>
LayerCount: 2
Fore
SplineSet
1760 1408 m 2
 1848 1408 1920 1336 1920 1248 c 2
 1920 32 l 2
 1920 -56 1848 -128 1760 -128 c 2
 160 -128 l 2
 72 -128 0 -56 0 32 c 2
 0 1248 l 2
 0 1336 72 1408 160 1408 c 2
 1760 1408 l 2
160 1280 m 2
 143 1280 128 1265 128 1248 c 2
 128 1024 l 1
 1792 1024 l 1
 1792 1248 l 2
 1792 1265 1777 1280 1760 1280 c 2
 160 1280 l 2
1760 0 m 2
 1777 0 1792 15 1792 32 c 2
 1792 640 l 1
 128 640 l 1
 128 32 l 2
 128 15 143 0 160 0 c 2
 1760 0 l 2
256 128 m 1
 256 256 l 1
 512 256 l 1
 512 128 l 1
 256 128 l 1
640 128 m 1
 640 256 l 1
 1024 256 l 1
 1024 128 l 1
 640 128 l 1
EndSplineSet
EndChar

StartChar: rss
Encoding: 61598 61598 159
Width: 1408
Flags: MW
VStem: 0 1408
LayerCount: 2
Fore
SplineSet
384 192 m 0
 384 86 298 0 192 0 c 0
 86 0 0 86 0 192 c 0
 0 298 86 384 192 384 c 0
 298 384 384 298 384 192 c 0
896 69 m 0
 897 51 891 34 879 21 c 0
 867 7 850 0 832 0 c 2
 697 0 l 2
 664 0 637 25 634 58 c 0
 605 363 363 605 58 634 c 0
 25 637 0 664 0 697 c 2
 0 832 l 2
 0 850 7 867 21 879 c 0
 32 890 48 896 64 896 c 0
 66 896 67 896 69 896 c 0
 282 879 483 786 634 634 c 0
 786 483 879 282 896 69 c 0
1408 67 m 0
 1409 50 1403 33 1390 20 c 0
 1378 7 1362 0 1344 0 c 2
 1201 0 l 2
 1167 0 1139 26 1137 60 c 0
 1104 641 641 1104 60 1138 c 0
 26 1140 0 1168 0 1201 c 2
 0 1344 l 2
 0 1362 7 1378 20 1390 c 0
 32 1402 48 1408 64 1408 c 0
 65 1408 66 1408 67 1408 c 0
 417 1390 746 1243 994 994 c 0
 1243 746 1390 417 1408 67 c 0
EndSplineSet
EndChar

StartChar: hdd
Encoding: 61600 61600 160
Width: 1536
Flags: MW
VStem: 0 128<160 480> 880 160<298 342> 1136 160<298 342> 1408 128<160 480>
LayerCount: 2
Fore
SplineSet
1040 320 m 0
 1040 276 1004 240 960 240 c 0
 916 240 880 276 880 320 c 0
 880 364 916 400 960 400 c 0
 1004 400 1040 364 1040 320 c 0
1296 320 m 0
 1296 276 1260 240 1216 240 c 0
 1172 240 1136 276 1136 320 c 0
 1136 364 1172 400 1216 400 c 0
 1260 400 1296 364 1296 320 c 0
1408 160 m 2
 1408 480 l 2
 1408 497 1393 512 1376 512 c 2
 160 512 l 2
 143 512 128 497 128 480 c 2
 128 160 l 2
 128 143 143 128 160 128 c 2
 1376 128 l 2
 1393 128 1408 143 1408 160 c 2
178 640 m 1
 1358 640 l 1
 1201 1122 l 2
 1196 1139 1177 1152 1159 1152 c 2
 377 1152 l 2
 359 1152 340 1139 335 1122 c 2
 178 640 l 1
1536 480 m 2
 1536 160 l 2
 1536 72 1464 0 1376 0 c 2
 160 0 l 2
 72 0 0 72 0 160 c 2
 0 480 l 2
 0 507 8 530 16 555 c 2
 213 1161 l 2
 236 1231 303 1280 377 1280 c 2
 1159 1280 l 2
 1233 1280 1300 1231 1323 1161 c 2
 1520 555 l 2
 1528 530 1536 507 1536 480 c 2
EndSplineSet
EndChar

StartChar: bullhorn
Encoding: 61601 61601 161
Width: 1792
Flags: MW
VStem: 1536 128<292 640 896 1246 1246 1246>
LayerCount: 2
Fore
SplineSet
1664 896 m 1
 1735 896 1792 839 1792 768 c 0
 1792 697 1735 640 1664 640 c 1
 1664 256 l 2
 1664 186 1606 128 1536 128 c 1
 1358 276 1071 479 724 508 c 1
 605 468 564 329 642 249 c 1
 572 134 662 53 768 -30 c 1
 706 -152 448 -154 356 -69 c 1
 298 109 212 287 282 512 c 1
 160 512 l 2
 72 512 0 584 0 672 c 2
 0 864 l 2
 0 952 72 1024 160 1024 c 2
 640 1024 l 2
 1024 1024 1344 1248 1536 1408 c 1
 1606 1408 1664 1350 1664 1280 c 2
 1664 896 l 1
1536 292 m 1
 1536 1246 l 1
 1275 1046 1022 931 768 903 c 1
 768 633 l 1
 1022 605 1275 492 1536 292 c 1
EndSplineSet
EndChar

StartChar: bell
Encoding: 61602 61602 162
Width: 1664
Flags: MW
VStem: 384 128<858.5 1122.5 858.5 1136.5> 576 80<-48.5 0> 736 192<1433.5 1466.5> 1152 128<858.5 1122.5>
LayerCount: 2
Fore
SplineSet
848 -160 m 0
 848 -151 841 -144 832 -144 c 0
 753 -144 688 -79 688 0 c 0
 688 9 681 16 672 16 c 0
 663 16 656 9 656 0 c 0
 656 -97 735 -176 832 -176 c 0
 841 -176 848 -169 848 -160 c 0
183 128 m 1
 1481 128 l 1
 1257 375 1152 693 1152 1024 c 0
 1152 1221 1007 1280 832 1280 c 0
 657 1280 512 1221 512 1024 c 0
 512 693 407 375 183 128 c 1
1664 128 m 1
 1664 58 1606 0 1536 0 c 2
 1088 0 l 1
 1088 -141 973 -256 832 -256 c 0xf0
 691 -256 576 -141 576 0 c 1
 128 0 l 2
 58 0 0 58 0 128 c 1
 261 349 384 688 384 1024 c 0
 384 1249 526 1377 744 1403 c 1
 739 1414 736 1427 736 1440 c 0
 736 1493 779 1536 832 1536 c 0
 885 1536 928 1493 928 1440 c 0
 928 1427 925 1414 920 1403 c 1
 1138 1377 1280 1249 1280 1024 c 0
 1280 688 1403 349 1664 128 c 1
EndSplineSet
EndChar

StartChar: certificate
Encoding: 61603 61603 163
Width: 1536
Flags: MW
VStem: 0 1536
LayerCount: 2
Fore
SplineSet
1376 640 m 1
 1514 505 l 2
 1533 487 1540 460 1534 435 c 0
 1527 410 1507 390 1482 384 c 2
 1294 336 l 1
 1347 150 l 2
 1354 125 1347 98 1328 80 c 0
 1310 61 1283 54 1258 61 c 2
 1072 114 l 1
 1024 -74 l 2
 1018 -99 998 -119 973 -126 c 0
 967 -127 960 -128 954 -128 c 0
 935 -128 916 -120 903 -106 c 2
 768 32 l 1
 633 -106 l 2
 615 -125 588 -132 563 -126 c 0
 537 -119 518 -99 512 -74 c 2
 464 114 l 1
 278 61 l 2
 253 54 226 61 208 80 c 0
 189 98 182 125 189 150 c 2
 242 336 l 1
 54 384 l 2
 29 390 9 410 2 435 c 0
 -4 460 3 487 22 505 c 2
 160 640 l 1
 22 775 l 2
 3 793 -4 820 2 845 c 0
 9 870 29 890 54 896 c 2
 242 944 l 1
 189 1130 l 2
 182 1155 189 1182 208 1200 c 0
 226 1219 253 1226 278 1219 c 2
 464 1166 l 1
 512 1354 l 2
 518 1379 538 1399 563 1405 c 0
 588 1412 615 1405 633 1386 c 2
 768 1247 l 1
 903 1386 l 2
 921 1405 947 1412 973 1405 c 0
 998 1399 1018 1379 1024 1354 c 2
 1072 1166 l 1
 1258 1219 l 2
 1283 1226 1310 1219 1328 1200 c 0
 1347 1182 1354 1155 1347 1130 c 2
 1294 944 l 1
 1482 896 l 2
 1507 890 1527 870 1534 845 c 0
 1540 820 1533 793 1514 775 c 2
 1376 640 l 1
EndSplineSet
EndChar

StartChar: hand_right
Encoding: 61604 61604 164
Width: 1792
Flags: MW
VStem: 0 128<174.5 209.5> 256 128<174.5 209.5> 1056 128<1130 1200> 1205 128<326 357 318 361> 1240 127<512 553> 1664 128<733.5 802>
LayerCount: 2
Fore
SplineSet
256 192 m 0xec
 256 227 227 256 192 256 c 0
 157 256 128 227 128 192 c 0
 128 157 157 128 192 128 c 0xf4
 227 128 256 157 256 192 c 0xec
1664 768 m 0xec
 1664 836 1603 896 1536 896 c 2
 960 896 l 1
 960 959 1056 1024 1056 1152 c 0
 1056 1248 981 1280 896 1280 c 0
 868 1280 817 1164 806 1141 c 0
 794 1119 782 1097 769 1076 c 0
 736 1023 698 977 657 931 c 0
 593 858 522 768 416 768 c 2
 384 768 l 1
 384 128 l 1
 416 128 l 2
 591 128 762 0 956 0 c 0
 1068 0 1145 47 1145 167 c 0
 1145 186 1143 205 1140 223 c 1
 1182 246 1205 303 1205 349 c 0
 1205 373 1199 397 1187 418 c 1
 1221 450 1240 490 1240 537 c 0
 1240 569 1226 616 1205 640 c 1
 1536 640 l 2
 1605 640 1664 699 1664 768 c 0xec
1792 769 m 0
 1792 629 1676 512 1536 512 c 2
 1367 512 l 1
 1364 470 1351 430 1330 393 c 1
 1332 379 1333 364 1333 350 c 0
 1333 286 1312 222 1273 172 c 1
 1275 -17 1146 -128 961 -128 c 0
 849 -128 743 -97 639 -59 c 0
 578 -37 479 0 416 0 c 2
 128 0 l 2
 57 0 0 57 0 128 c 2xec
 0 768 l 2
 0 839 57 896 128 896 c 2
 416 896 l 2
 464 896 532 982 561 1015 c 0
 597 1056 631 1097 661 1144 c 0xf4
 719 1237 762 1408 896 1408 c 0
 1055 1408 1184 1321 1184 1152 c 0
 1184 1108 1177 1065 1162 1024 c 1
 1536 1024 l 2
 1674 1024 1792 907 1792 769 c 0
EndSplineSet
EndChar

StartChar: hand_left
Encoding: 61605 61605 165
Width: 1792
Flags: MW
VStem: 0 128<733.5 802 733.5 838> 425 127<512 553> 459 128<326 357> 519 129<167 167> 608 128<1130 1200 1088 1236.5> 1408 128<174.5 209.5 174.5 768> 1664 128<0 128 174.5 209.5>
LayerCount: 2
Fore
SplineSet
1376 128 m 2x8e
 1408 128 l 1
 1408 768 l 1
 1376 768 l 2
 1270 768 1199 858 1135 931 c 0
 1094 977 1056 1023 1023 1076 c 0
 1009 1098 997 1121 985 1144 c 0
 973 1167 923 1280 896 1280 c 0
 811 1280 736 1248 736 1152 c 0x8e
 736 1024 832 959 832 896 c 1
 256 896 l 2
 189 896 128 836 128 768 c 0
 128 699 187 640 256 640 c 2
 587 640 l 1
 566 616 552 569 552 537 c 0xce
 552 490 571 450 605 418 c 1
 593 397 587 373 587 349 c 0
 587 303 610 246 652 223 c 1xae
 649 205 648 186 648 167 c 0
 648 49 721 0 832 0 c 0x96
 1031 0 1201 128 1376 128 c 2x8e
1664 192 m 0
 1664 227 1635 256 1600 256 c 0
 1565 256 1536 227 1536 192 c 0
 1536 157 1565 128 1600 128 c 0
 1635 128 1664 157 1664 192 c 0
1792 768 m 2
 1792 128 l 2
 1792 57 1735 0 1664 0 c 2
 1376 0 l 2x8e
 1313 0 1214 -37 1153 -59 c 0
 1051 -96 946 -128 836 -128 c 0
 652 -128 518 -24 519 167 c 1x96
 520 172 l 1
 480 222 459 286 459 350 c 0xae
 459 364 460 379 462 393 c 1
 441 430 428 470 425 512 c 1
 256 512 l 2
 116 512 0 629 0 769 c 0
 0 907 118 1024 256 1024 c 2
 630 1024 l 1
 615 1065 608 1108 608 1152 c 0
 608 1321 737 1408 896 1408 c 0
 1030 1408 1073 1237 1131 1144 c 0
 1161 1097 1195 1056 1231 1015 c 0
 1260 982 1328 896 1376 896 c 2xce
 1664 896 l 2
 1735 896 1792 839 1792 768 c 2
EndSplineSet
EndChar

StartChar: hand_up
Encoding: 61606 61606 166
Width: 1536
Flags: MW
VStem: 0 128<626 682.5 626 719.5> 384 128<906 1280> 512 128<128 160> 768 128<1111 1280 1111 1280 1111 1314.5> 1280 128<-256 -128 -81.5 -46.5 128 160> 1408 128<649 756.5>
LayerCount: 2
Fore
SplineSet
1280 -64 m 0xd8
 1280 -29 1251 0 1216 0 c 0
 1181 0 1152 -29 1152 -64 c 0
 1152 -99 1181 -128 1216 -128 c 0
 1251 -128 1280 -99 1280 -64 c 0xd8
1408 700 m 0
 1408 813 1362 889 1241 889 c 0
 1222 889 1203 887 1185 884 c 1xd4
 1162 926 1105 949 1059 949 c 0
 1035 949 1011 943 990 931 c 1
 958 965 918 984 871 984 c 0
 839 984 792 970 768 949 c 1
 768 1280 l 2xd8
 768 1349 709 1408 640 1408 c 0
 572 1408 512 1347 512 1280 c 2
 512 704 l 1xb8
 449 704 384 800 256 800 c 0
 160 800 128 725 128 640 c 0
 128 612 244 561 267 550 c 0
 289 538 311 526 332 513 c 0
 385 480 431 442 477 401 c 0
 550 337 640 266 640 160 c 2
 640 128 l 1
 1280 128 l 1
 1280 160 l 2xd4
 1280 335 1408 506 1408 700 c 0
1536 705 m 0
 1536 593 1505 487 1467 383 c 0
 1445 322 1408 223 1408 160 c 2
 1408 -128 l 2
 1408 -199 1351 -256 1280 -256 c 2
 640 -256 l 2xb8
 569 -256 512 -199 512 -128 c 2
 512 160 l 2xd8
 512 208 426 276 393 305 c 0
 352 341 311 375 264 405 c 0
 171 463 0 506 0 640 c 0
 0 799 87 928 256 928 c 0
 300 928 343 921 384 906 c 1
 384 1280 l 2
 384 1418 501 1536 639 1536 c 0
 779 1536 896 1420 896 1280 c 2
 896 1111 l 1
 938 1108 978 1095 1015 1074 c 1
 1029 1076 1044 1077 1058 1077 c 0
 1122 1077 1186 1056 1236 1017 c 1
 1425 1019 1536 890 1536 705 c 0
EndSplineSet
EndChar

StartChar: hand_down
Encoding: 61607 61607 167
Width: 1536
Flags: MW
VStem: 0 128<597.5 653.5 597.5 707> 384 128<0 374 374 374> 512 128<1120 1152 1067 1408> 768 128<0 169> 1280 128<1120 1152 1152 1152 1326.5 1361.5> 1408 128<520.5 635 488 675.5>
LayerCount: 2
Fore
SplineSet
1408 576 m 0xd8
 1408 775 1280 945 1280 1120 c 2
 1280 1152 l 1
 640 1152 l 1
 640 1120 l 2
 640 1014 550 943 477 879 c 0
 431 838 385 800 332 767 c 0
 310 753 287 741 264 729 c 0
 241 717 128 667 128 640 c 0
 128 555 160 480 256 480 c 0
 384 480 449 576 512 576 c 1
 512 0 l 2
 512 -67 572 -128 640 -128 c 0xd8
 709 -128 768 -69 768 0 c 2
 768 331 l 1
 794 311 838 296 871 296 c 0
 918 296 958 315 990 349 c 1
 1011 337 1035 331 1059 331 c 0
 1105 331 1162 354 1185 396 c 1xd4
 1203 393 1222 392 1241 392 c 0
 1359 392 1408 465 1408 576 c 0xd8
1280 1344 m 0
 1280 1379 1251 1408 1216 1408 c 0
 1181 1408 1152 1379 1152 1344 c 0
 1152 1309 1181 1280 1216 1280 c 0
 1251 1280 1280 1309 1280 1344 c 0
1536 580 m 0xd8
 1536 396 1432 262 1241 263 c 1
 1236 264 l 1
 1186 224 1122 203 1058 203 c 0xd8
 1044 203 1029 204 1015 206 c 1
 981 187 935 173 896 169 c 1xb8
 896 0 l 2
 896 -140 779 -256 639 -256 c 0
 501 -256 384 -138 384 0 c 2
 384 374 l 1
 345 358 298 352 256 352 c 0
 88 352 0 481 0 640 c 0
 0 774 171 817 264 875 c 0
 311 905 352 939 393 975 c 0
 426 1004 512 1072 512 1120 c 2
 512 1408 l 2
 512 1479 569 1536 640 1536 c 2xd4
 1280 1536 l 2
 1351 1536 1408 1479 1408 1408 c 2
 1408 1120 l 2
 1408 1057 1445 958 1467 897 c 0
 1504 795 1536 690 1536 580 c 0xd8
EndSplineSet
EndChar

StartChar: circle_arrow_left
Encoding: 61608 61608 168
Width: 1536
Flags: MW
VStem: 0 251<631.5 648.5 631.5 852> 1280 256<576 704 704 721.5>
LayerCount: 2
Fore
SplineSet
1280 576 m 2
 1280 704 l 2xc0
 1280 739 1251 768 1216 768 c 2
 714 768 l 1
 903 957 l 2
 915 969 922 985 922 1002 c 0
 922 1019 915 1035 903 1047 c 2
 812 1138 l 2
 800 1150 784 1156 767 1156 c 0
 750 1156 734 1150 722 1138 c 2
 360 776 l 1
 269 685 l 2
 257 673 251 657 251 640 c 0
 251 623 257 607 269 595 c 2
 360 504 l 1
 722 142 l 2
 734 130 750 124 767 124 c 0
 784 124 800 130 812 142 c 2
 903 233 l 2x40
 915 245 921 261 921 278 c 0xc0
 921 295 915 311 903 323 c 2
 714 512 l 1
 1216 512 l 2
 1251 512 1280 541 1280 576 c 2
1536 640 m 0
 1536 216 1192 -128 768 -128 c 0
 344 -128 0 216 0 640 c 0
 0 1064 344 1408 768 1408 c 0
 1192 1408 1536 1064 1536 640 c 0
EndSplineSet
EndChar

StartChar: circle_arrow_right
Encoding: 61609 61609 169
Width: 1536
Flags: MW
VStem: 0 256<558.5 576 576 704 558.5 852> 1285 251<631.5 648.5>
LayerCount: 2
Fore
SplineSet
1285 640 m 0
 1285 657 1279 673 1267 685 c 2
 1176 776 l 1
 814 1138 l 2
 802 1150 786 1156 769 1156 c 0
 752 1156 736 1150 724 1138 c 2
 633 1047 l 2
 621 1035 615 1019 615 1002 c 0
 615 985 621 969 633 957 c 2
 822 768 l 1
 320 768 l 2
 285 768 256 739 256 704 c 2
 256 576 l 2
 256 541 285 512 320 512 c 2
 822 512 l 1
 633 323 l 2
 621 311 614 295 614 278 c 0
 614 261 621 245 633 233 c 2
 724 142 l 2
 736 130 752 124 769 124 c 0xc0
 786 124 802 130 814 142 c 2
 1176 504 l 1
 1267 595 l 2
 1279 607 1285 623 1285 640 c 0
1536 640 m 0
 1536 216 1192 -128 768 -128 c 0
 344 -128 0 216 0 640 c 0
 0 1064 344 1408 768 1408 c 0
 1192 1408 1536 1064 1536 640 c 0
EndSplineSet
EndChar

StartChar: circle_arrow_up
Encoding: 61610 61610 170
Width: 1536
Flags: MW
VStem: 0 252<632.5 649.5 632.5 852> 0 1536<428 852> 1284 252<632.5 649.5>
LayerCount: 2
Fore
SplineSet
1284 641 m 0x40
 1284 658 1278 674 1266 686 c 2
 904 1048 l 1
 813 1139 l 2
 801 1151 785 1157 768 1157 c 0
 751 1157 735 1151 723 1139 c 2
 632 1048 l 1
 270 686 l 2
 258 674 252 658 252 641 c 0
 252 624 258 608 270 596 c 2
 361 505 l 2
 373 493 389 487 406 487 c 0
 423 487 439 493 451 505 c 2
 640 694 l 1
 640 192 l 2
 640 157 669 128 704 128 c 2
 832 128 l 2
 867 128 896 157 896 192 c 2
 896 694 l 1
 1085 505 l 2
 1097 493 1113 486 1130 486 c 0
 1147 486 1163 493 1175 505 c 2
 1266 596 l 2
 1278 608 1284 624 1284 641 c 0x40
1536 640 m 0
 1536 216 1192 -128 768 -128 c 0
 344 -128 0 216 0 640 c 0
 0 1064 344 1408 768 1408 c 0
 1192 1408 1536 1064 1536 640 c 0
EndSplineSet
EndChar

StartChar: circle_arrow_down
Encoding: 61611 61611 171
Width: 1536
Flags: MW
VStem: 0 252<630.5 647.5 630.5 852> 0 1536<428 852> 1284 252<630.5 647.5>
LayerCount: 2
Fore
SplineSet
1284 639 m 0x40
 1284 656 1278 672 1266 684 c 2
 1175 775 l 2
 1163 787 1147 793 1130 793 c 0
 1113 793 1097 787 1085 775 c 2
 896 586 l 1
 896 1088 l 2
 896 1123 867 1152 832 1152 c 2
 704 1152 l 2
 669 1152 640 1123 640 1088 c 2
 640 586 l 1
 451 775 l 2
 439 787 423 794 406 794 c 0
 389 794 373 787 361 775 c 2
 270 684 l 2
 258 672 252 656 252 639 c 0
 252 622 258 606 270 594 c 2
 632 232 l 1
 723 141 l 2
 735 129 751 123 768 123 c 0
 785 123 801 129 813 141 c 2
 904 232 l 1
 1266 594 l 2
 1278 606 1284 622 1284 639 c 0x40
1536 640 m 0
 1536 216 1192 -128 768 -128 c 0
 344 -128 0 216 0 640 c 0
 0 1064 344 1408 768 1408 c 0
 1192 1408 1536 1064 1536 640 c 0
EndSplineSet
EndChar

StartChar: globe
Encoding: 61612 61612 172
Width: 1536
Flags: MW
VStem: 0 295<775.5 776 775.5 852> 472 33 584 82 657 22 726 28 780 9 837 20 865 52 896 20 1032 9
LayerCount: 2
Fore
SplineSet
768 1408 m 0xd6c0
 1192 1408 1536 1064 1536 640 c 0
 1536 216 1192 -128 768 -128 c 0
 344 -128 0 216 0 640 c 0
 0 1064 344 1408 768 1408 c 0xd6c0
1042 887 m 0
 1034 881 1029 870 1019 868 c 1
 1024 869 1029 887 1032 891 c 0
 1038 898 1046 902 1054 906 c 0
 1071 913 1088 915 1106 918 c 0
 1123 922 1144 922 1157 907 c 1
 1154 910 1178 931 1181 932 c 0
 1190 937 1205 935 1211 944 c 0
 1213 947 1213 966 1213 966 c 1
 1196 964 1190 980 1189 994 c 1
 1189 993 1187 990 1183 986 c 1
 1184 1001 1165 990 1158 992 c 0
 1135 998 1138 1014 1131 1031 c 0
 1127 1040 1116 1043 1112 1052 c 0
 1108 1058 1106 1071 1097 1072 c 0
 1091 1073 1080 1051 1078 1052 c 0
 1069 1057 1065 1050 1058 1046 c 0
 1052 1042 1047 1044 1041 1041 c 1
 1059 1047 1033 1057 1024 1055 c 1xd6c0
 1038 1059 1031 1074 1023 1081 c 1
 1025 1081 1026 1081 1028 1081 c 1
 1026 1090 998 1098 989 1104 c 0
 980 1110 932 1120 922 1114 c 0
 910 1107 925 1087 925 1077 c 0
 926 1065 913 1062 913 1052 c 0
 913 1035 945 1038 937 1015 c 0
 932 1001 913 998 905 987 c 0
 897 977 906 959 914 952 c 0
 922 946 900 936 897 934 c 0
 880 926 867 951 863 966 c 0
 860 977 859 990 847 996 c 0
 841 998 822 1001 818 995 c 1xd740
 812 1010 791 1016 777 1021 c 0
 757 1028 740 1028 719 1025 c 1
 726 1026 717 1057 700 1052 c 1
 705 1062 703 1073 705 1083 c 0
 707 1091 711 1099 717 1106 c 0
 719 1110 741 1133 734 1134 c 1
 751 1132 770 1131 784 1145 c 0xd6c0
 793 1154 797 1169 806 1179 c 0
 819 1194 835 1175 849 1174 c 0xd740
 869 1173 868 1195 857 1205 c 1
 870 1204 859 1228 852 1231 c 0
 843 1234 809 1225 827 1218 c 1
 823 1220 799 1170 785 1195 c 0
 781 1200 779 1221 770 1222 c 0
 762 1222 757 1213 754 1207 c 1
 759 1220 726 1229 719 1230 c 1xdf40
 734 1240 722 1251 711 1257 c 0
 703 1262 678 1266 671 1258 c 0
 652 1235 691 1232 701 1226 c 0
 704 1224 716 1217 709 1212 c 0
 703 1209 685 1204 683 1200 c 0
 677 1191 690 1181 681 1172 c 1
 672 1181 672 1196 665 1206 c 1
 674 1195 629 1201 630 1201 c 1
 615 1201 591 1191 580 1206 c 0
 578 1210 578 1233 584 1228 c 1
 575 1235 569 1242 563 1246 c 1xeec0
 530 1235 499 1221 469 1205 c 1
 473 1204 476 1204 481 1206 c 0
 489 1209 496 1214 504 1218 c 0
 514 1222 535 1234 546 1225 c 1
 547 1227 550 1229 551 1230 c 1
 558 1222 565 1214 571 1205 c 1
 563 1209 550 1207 541 1206 c 0
 534 1204 522 1202 519 1194 c 1
 522 1189 526 1181 524 1176 c 1
 511 1185 501 1200 483 1202 c 0
 475 1202 467 1202 461 1201 c 0
 365 1148 284 1071 226 979 c 1
 230 975 234 972 238 971 c 0
 248 968 238 939 257 954 c 1
 263 949 264 942 260 935 c 1
 261 936 301 910 304 908 c 0
 311 902 322 895 325 887 c 0
 327 880 321 872 315 869 c 1
 314 871 299 886 297 882 c 0
 294 877 297 850 308 851 c 1
 292 850 299 788 295 776 c 0
 295 775 297 775 297 775 c 1
 294 763 304 716 324 721 c 1
 311 718 347 672 352 669 c 0
 365 660 380 654 389 641 c 0
 399 627 399 606 413 595 c 1
 409 583 434 569 433 552 c 0
 431 551 430 551 428 550 c 0
 433 536 452 536 459 523 c 0
 463 515 459 496 472 500 c 1
 474 522 459 544 448 562 c 0
 442 572 436 581 431 591 c 0
 426 600 425 611 421 621 c 1
 425 620 447 612 445 609 c 0
 437 589 477 554 488 541 c 0
 491 538 514 508 502 508 c 1
 515 508 533 488 539 478 c 0
 548 463 546 444 552 428 c 0
 558 408 586 399 602 390 c 0
 616 383 628 373 642 368 c 0
 663 360 668 367 686 370 c 0
 712 374 715 345 736 334 c 0
 749 327 777 317 791 323 c 1
 785 321 812 280 814 277 c 0
 823 265 840 259 850 247 c 0
 853 249 856 252 857 256 c 1
 853 245 872 224 882 226 c 0
 893 228 896 250 896 258 c 1
 876 248 858 256 847 276 c 0
 845 281 829 309 843 309 c 0
 862 309 849 324 847 338 c 0
 845 352 831 361 824 373 c 1
 818 361 798 364 792 374 c 1
 792 371 789 366 789 362 c 1
 784 362 779 361 774 363 c 1
 776 375 777 390 780 403 c 0
 785 421 818 456 775 454 c 0
 760 453 754 447 749 434 c 0
 744 422 746 411 732 405 c 0
 723 401 693 403 684 408 c 0
 665 419 652 454 652 474 c 0
 651 501 665 525 652 550 c 1
 658 555 664 565 671 570 c 0
 677 574 684 567 687 579 c 0
 684 581 680 585 679 585 c 1
 694 578 722 595 735 585 c 0
 743 579 752 577 757 587 c 0
 758 590 750 602 754 610 c 1
 757 593 768 590 783 601 c 1
 789 595 805 597 816 591 c 0
 827 584 829 573 842 588 c 1
 850 576 851 576 854 564 c 0
 857 553 863 525 873 520 c 0
 894 507 889 542 887 554 c 0
 886 555 886 588 885 588 c 0
 853 595 865 620 883 637 c 0
 886 639 909 647 919 655 c 0
 928 663 939 677 934 690 c 1
 939 690 943 694 945 699 c 1
 942 700 930 710 928 709 c 1
 935 713 934 719 930 725 c 1
 940 731 935 742 945 746 c 1
 956 731 978 748 967 760 c 1
 977 774 1000 767 1006 780 c 1
 1021 776 1010 795 1018 806 c 0
 1025 815 1037 815 1046 820 c 1
 1046 819 1071 834 1063 835 c 1
 1080 833 1114 851 1088 866 c 1
 1092 875 1079 879 1070 881 c 1
 1077 883 1086 879 1092 883 c 0
 1105 892 1096 896 1085 899 c 0
 1071 903 1053 894 1042 887 c 0
879 10 m 1
 1016 34 1138 102 1230 199 c 1
 1224 205 1213 203 1205 207 c 0
 1197 210 1191 213 1181 215 c 1
 1183 235 1161 242 1147 252 c 0
 1134 262 1126 273 1107 269 c 0
 1105 268 1085 261 1089 257 c 1
 1076 268 1070 274 1053 279 c 0
 1037 284 1026 304 1010 286 c 0
 1002 278 1006 266 1002 258 c 1
 989 269 1014 282 1004 294 c 0
 992 308 971 285 961 279 c 0
 955 274 948 272 944 266 c 0
 939 259 937 250 933 243 c 1
 930 251 913 249 912 255 c 1
 916 231 916 206 921 182 c 0
 924 168 921 145 909 134 c 0
 897 123 882 111 880 94 c 0
 878 82 881 71 892 68 c 1
 893 53 876 42 877 26 c 0
 877 25 878 15 879 10 c 1
EndSplineSet
EndChar

StartChar: wrench
Encoding: 61613 61613 173
Width: 1664
Flags: MW
VStem: 21 1641<-17 929>
LayerCount: 2
Fore
SplineSet
384 64 m 0
 384 99 355 128 320 128 c 0
 285 128 256 99 256 64 c 0
 256 29 285 0 320 0 c 0
 355 0 384 29 384 64 c 0
1028 484 m 1
 346 -198 l 2
 323 -221 290 -235 256 -235 c 0
 222 -235 189 -221 165 -198 c 2
 59 -90 l 2
 35 -67 21 -34 21 0 c 0
 21 34 35 67 59 91 c 2
 740 772 l 1
 792 641 897 536 1028 484 c 1
1662 919 m 0
 1662 886 1650 845 1639 813 c 0
 1576 635 1405 512 1216 512 c 0
 969 512 768 713 768 960 c 0
 768 1207 969 1408 1216 1408 c 0
 1289 1408 1384 1386 1445 1345 c 0
 1455 1338 1461 1329 1461 1317 c 0
 1461 1306 1454 1295 1445 1289 c 2
 1152 1120 l 1
 1152 896 l 1
 1345 789 l 1
 1378 808 1610 954 1630 954 c 0
 1650 954 1662 939 1662 919 c 0
EndSplineSet
EndChar

StartChar: tasks
Encoding: 61614 61614 174
Width: 1792
Flags: MW
VStem: 1664 128<128 256 256 256 640 768 768 768 1152 1280 1280 1280>
LayerCount: 2
Fore
SplineSet
1024 128 m 1
 1664 128 l 1
 1664 256 l 1
 1024 256 l 1
 1024 128 l 1
640 640 m 1
 1664 640 l 1
 1664 768 l 1
 640 768 l 1
 640 640 l 1
1280 1152 m 1
 1664 1152 l 1
 1664 1280 l 1
 1280 1280 l 1
 1280 1152 l 1
1792 320 m 2
 1792 64 l 2
 1792 29 1763 0 1728 0 c 2
 64 0 l 2
 29 0 0 29 0 64 c 2
 0 320 l 2
 0 355 29 384 64 384 c 2
 1728 384 l 2
 1763 384 1792 355 1792 320 c 2
1792 832 m 2
 1792 576 l 2
 1792 541 1763 512 1728 512 c 2
 64 512 l 2
 29 512 0 541 0 576 c 2
 0 832 l 2
 0 867 29 896 64 896 c 2
 1728 896 l 2
 1763 896 1792 867 1792 832 c 2
1792 1344 m 2
 1792 1088 l 2
 1792 1053 1763 1024 1728 1024 c 2
 64 1024 l 2
 29 1024 0 1053 0 1088 c 2
 0 1344 l 2
 0 1379 29 1408 64 1408 c 2
 1728 1408 l 2
 1763 1408 1792 1379 1792 1344 c 2
EndSplineSet
EndChar

StartChar: filter
Encoding: 61616 61616 175
Width: 1408
Flags: MW
VStem: 0 1408
LayerCount: 2
Fore
SplineSet
1403 1241 m 0
 1413 1217 1408 1189 1389 1171 c 2
 896 678 l 1
 896 -64 l 2
 896 -90 880 -113 857 -123 c 0
 849 -126 840 -128 832 -128 c 0
 815 -128 799 -122 787 -109 c 2
 531 147 l 2
 519 159 512 175 512 192 c 2
 512 678 l 1
 19 1171 l 2
 0 1189 -5 1217 5 1241 c 0
 15 1264 38 1280 64 1280 c 2
 1344 1280 l 2
 1370 1280 1393 1264 1403 1241 c 0
EndSplineSet
EndChar

StartChar: briefcase
Encoding: 61617 61617 176
Width: 1792
Flags: MW
VStem: 512 128<1280 1408> 768 256<512 640 512 640> 1152 128<1280 1408 1408 1408>
CounterMasks: 1 e0
LayerCount: 2
Fore
SplineSet
640 1280 m 1
 1152 1280 l 1
 1152 1408 l 1
 640 1408 l 1
 640 1280 l 1
1792 640 m 1
 1792 160 l 2
 1792 72 1720 0 1632 0 c 2
 160 0 l 2
 72 0 0 72 0 160 c 2
 0 640 l 1
 672 640 l 1
 672 480 l 2
 672 445 701 416 736 416 c 2
 1056 416 l 2
 1091 416 1120 445 1120 480 c 2
 1120 640 l 1
 1792 640 l 1
1024 640 m 1
 1024 512 l 1
 768 512 l 1
 768 640 l 1
 1024 640 l 1
1792 1120 m 2
 1792 736 l 1
 0 736 l 1
 0 1120 l 2
 0 1208 72 1280 160 1280 c 2
 512 1280 l 1
 512 1440 l 2
 512 1493 555 1536 608 1536 c 2
 1184 1536 l 2
 1237 1536 1280 1493 1280 1440 c 2
 1280 1280 l 1
 1632 1280 l 2
 1720 1280 1792 1208 1792 1120 c 2
EndSplineSet
EndChar

StartChar: fullscreen
Encoding: 61618 61618 177
Width: 1536
Flags: MW
VStem: 0 1536<-64 384 -81.5 397 896 1344 -81.5 1361.5>
LayerCount: 2
Fore
SplineSet
1283 995 m 1
 928 640 l 1
 1283 285 l 1
 1427 429 l 2
 1445 448 1473 453 1497 443 c 0
 1520 433 1536 410 1536 384 c 2
 1536 -64 l 2
 1536 -99 1507 -128 1472 -128 c 2
 1024 -128 l 2
 998 -128 975 -112 965 -88 c 0
 955 -65 960 -37 979 -19 c 2
 1123 125 l 1
 768 480 l 1
 413 125 l 1
 557 -19 l 2
 576 -37 581 -65 571 -88 c 0
 561 -112 538 -128 512 -128 c 2
 64 -128 l 2
 29 -128 0 -99 0 -64 c 2
 0 384 l 2
 0 410 16 433 40 443 c 0
 63 453 91 448 109 429 c 2
 253 285 l 1
 608 640 l 1
 253 995 l 1
 109 851 l 2
 97 839 81 832 64 832 c 0
 56 832 47 834 40 837 c 0
 16 847 0 870 0 896 c 2
 0 1344 l 2
 0 1379 29 1408 64 1408 c 2
 512 1408 l 2
 538 1408 561 1392 571 1368 c 0
 581 1345 576 1317 557 1299 c 2
 413 1155 l 1
 768 800 l 1
 1123 1155 l 1
 979 1299 l 2
 960 1317 955 1345 965 1368 c 0
 975 1392 998 1408 1024 1408 c 2
 1472 1408 l 2
 1507 1408 1536 1379 1536 1344 c 2
 1536 896 l 2
 1536 870 1520 847 1497 837 c 0
 1489 834 1480 832 1472 832 c 0
 1455 832 1439 839 1427 851 c 2
 1283 995 l 1
EndSplineSet
EndChar

StartChar: group
Encoding: 61632 61632 181
Width: 1920
Flags: MW
VStem: 0 1920<615.5 711.5>
LayerCount: 2
Fore
SplineSet
593 640 m 1
 489 637 395 592 328 512 c 1
 194 512 l 2
 94 512 0 560 0 671 c 0
 0 752 -3 1024 124 1024 c 0
 145 1024 249 939 384 939 c 0
 430 939 474 947 517 962 c 1
 514 940 512 918 512 896 c 0
 512 805 541 715 593 640 c 1
1664 3 m 0
 1664 -159 1557 -256 1397 -256 c 2
 523 -256 l 2
 363 -256 256 -159 256 3 c 0
 256 229 309 576 602 576 c 0
 636 576 760 437 960 437 c 0
 1160 437 1284 576 1318 576 c 0
 1611 576 1664 229 1664 3 c 0
640 1280 m 0
 640 1139 525 1024 384 1024 c 0
 243 1024 128 1139 128 1280 c 0
 128 1421 243 1536 384 1536 c 0
 525 1536 640 1421 640 1280 c 0
1344 896 m 0
 1344 684 1172 512 960 512 c 0
 748 512 576 684 576 896 c 0
 576 1108 748 1280 960 1280 c 0
 1172 1280 1344 1108 1344 896 c 0
1920 671 m 0
 1920 560 1826 512 1726 512 c 2
 1592 512 l 1
 1525 592 1431 637 1327 640 c 1
 1379 715 1408 805 1408 896 c 0
 1408 918 1406 940 1403 962 c 1
 1446 947 1490 939 1536 939 c 0
 1671 939 1775 1024 1796 1024 c 0
 1923 1024 1920 752 1920 671 c 0
1792 1280 m 0
 1792 1139 1677 1024 1536 1024 c 0
 1395 1024 1280 1139 1280 1280 c 0
 1280 1421 1395 1536 1536 1536 c 0
 1677 1536 1792 1421 1792 1280 c 0
EndSplineSet
EndChar

StartChar: link
Encoding: 61633 61633 182
Width: 1664
Flags: MW
VStem: 16 192<1075 1100.5 1075 1126> 16 1632<282 1126> 720 191<370.5 398 370.5 422.5> 753 191<1010 1037.5>
LayerCount: 2
Fore
SplineSet
1456 320 m 0x40
 1456 346 1446 370 1428 388 c 2
 1220 596 l 2
 1202 614 1177 624 1152 624 c 0
 1123 624 1100 613 1080 592 c 1x20
 1113 559 1152 531 1152 480 c 0
 1152 427 1109 384 1056 384 c 0
 1005 384 977 423 944 456 c 1
 923 436 911 413 911 383 c 0
 911 358 921 333 939 315 c 2
 1145 108 l 2
 1163 90 1188 81 1213 81 c 0
 1238 81 1263 90 1281 107 c 2
 1428 253 l 2
 1446 271 1456 295 1456 320 c 0x40
753 1025 m 0
 753 1050 743 1075 725 1093 c 2
 519 1300 l 2
 501 1318 476 1328 451 1328 c 0
 426 1328 401 1318 383 1301 c 2
 236 1155 l 2
 218 1137 208 1113 208 1088 c 0
 208 1062 218 1038 236 1020 c 2x40
 444 812 l 2
 462 794 487 785 512 785 c 0
 541 785 564 795 584 816 c 1
 551 849 512 877 512 928 c 0
 512 981 555 1024 608 1024 c 0
 659 1024 687 985 720 952 c 1
 741 972 753 995 753 1025 c 0
1648 320 m 0
 1648 244 1617 170 1563 117 c 2
 1416 -29 l 2x90
 1362 -83 1289 -112 1213 -112 c 0
 1136 -112 1063 -82 1009 -27 c 2
 803 180 l 2x20
 749 234 720 307 720 383 c 0
 720 462 752 537 808 592 c 1
 720 680 l 1
 665 624 591 592 512 592 c 0
 436 592 362 622 308 676 c 2
 100 884 l 2
 45 939 16 1011 16 1088 c 0
 16 1164 47 1238 101 1291 c 2
 248 1437 l 2
 302 1491 375 1520 451 1520 c 0x90
 528 1520 601 1490 655 1435 c 2
 861 1228 l 2
 915 1174 944 1101 944 1025 c 0
 944 946 912 871 856 816 c 1
 944 728 l 1
 999 784 1073 816 1152 816 c 0
 1228 816 1302 786 1356 732 c 2
 1564 524 l 2
 1619 469 1648 397 1648 320 c 0
EndSplineSet
EndChar

StartChar: cloud
Encoding: 61634 61634 183
Width: 1920
Flags: MW
VStem: 0 1920<324.5 475 278 537.5>
LayerCount: 2
Fore
SplineSet
1920 384 m 0
 1920 172 1748 0 1536 0 c 2
 448 0 l 2
 201 0 0 201 0 448 c 0
 0 627 106 782 258 853 c 1
 257 867 256 882 256 896 c 0
 256 1179 485 1408 768 1408 c 0
 982 1408 1165 1277 1242 1090 c 1
 1286 1129 1344 1152 1408 1152 c 0
 1549 1152 1664 1037 1664 896 c 0
 1664 845 1649 798 1623 758 c 1
 1793 718 1920 566 1920 384 c 0
EndSplineSet
EndChar

StartChar: beaker
Encoding: 61635 61635 184
Width: 1664
Flags: MW
VStem: 640 128<881 1280> 896 128<844 1280 881 1280 881 1280>
LayerCount: 2
Fore
SplineSet
1527 88 m 2
 1602 -31 1549 -128 1408 -128 c 2
 256 -128 l 2
 115 -128 62 -31 137 88 c 2
 640 881 l 1
 640 1280 l 1
 576 1280 l 2
 541 1280 512 1309 512 1344 c 0
 512 1379 541 1408 576 1408 c 2
 1088 1408 l 2
 1123 1408 1152 1379 1152 1344 c 0
 1152 1309 1123 1280 1088 1280 c 2
 1024 1280 l 1
 1024 881 l 1
 1527 88 l 2
748 813 m 1
 476 384 l 1
 1188 384 l 1
 916 813 l 1
 896 844 l 1
 896 881 l 1
 896 1280 l 1
 768 1280 l 1
 768 881 l 1
 768 844 l 1
 748 813 l 1
EndSplineSet
EndChar

StartChar: cut
Encoding: 61636 61636 185
Width: 1792
Flags: MW
VStem: 1 159 608 159 768 64<646 657 544 668.5> 896 128<480 593.5 558.5 593.5>
LayerCount: 2
Fore
SplineSet
960 640 m 0
 995 640 1024 611 1024 576 c 0
 1024 541 995 512 960 512 c 0
 925 512 896 541 896 576 c 0
 896 611 925 640 960 640 c 0
1260 576 m 1
 1767 178 l 2
 1785 165 1794 143 1792 122 c 0
 1789 100 1776 81 1757 71 c 2
 1629 7 l 2
 1620 2 1610 0 1600 0 c 0
 1589 0 1578 3 1569 8 c 2
 879 395 l 1
 769 329 l 2
 765 327 761 325 757 324 c 1
 766 293 770 260 767 227 c 0
 758 124 689 26 579 -44 c 0
 494 -98 396 -128 302 -128 c 0
 212 -128 136 -101 80 -50 c 0
 23 3 -6 79 1 157 c 0
 10 259 79 358 188 428 c 0
 273 482 372 512 466 512 c 0
 522 512 573 501 617 481 c 1
 623 490 630 497 639 503 c 2xc0
 761 576 l 1
 639 649 l 2
 630 655 623 662 617 671 c 1
 573 651 522 640 466 640 c 0
 372 640 273 670 188 724 c 0
 79 794 10 893 1 995 c 0
 -6 1073 23 1149 80 1201 c 0
 136 1253 212 1280 302 1280 c 0
 396 1280 494 1250 579 1196 c 0
 689 1127 758 1028 767 925 c 0
 770 892 766 859 757 828 c 1
 761 827 765 825 769 823 c 2
 879 757 l 1
 1569 1144 l 2
 1578 1149 1589 1152 1600 1152 c 0
 1610 1152 1620 1150 1629 1145 c 2
 1757 1081 l 2
 1776 1071 1789 1052 1792 1030 c 0
 1794 1009 1785 987 1767 974 c 2
 1260 576 l 1
579 836 m 0
 640 892 602 993 494 1061 c 0
 433 1100 362 1120 302 1120 c 0
 256 1120 215 1108 189 1084 c 0
 128 1028 166 927 274 859 c 0
 335 820 405 800 466 800 c 0
 512 800 553 812 579 836 c 0
494 91 m 0
 602 159 640 260 579 316 c 0
 553 340 512 352 466 352 c 0
 405 352 335 332 274 293 c 0
 166 225 128 124 189 68 c 0x30
 215 44 256 32 302 32 c 0
 362 32 433 52 494 91 c 0
672 704 m 1
 768 646 l 1
 768 657 l 2
 768 680 781 701 801 713 c 2
 815 721 l 1
 736 768 l 1
 710 742 l 2
 702 734 696 726 688 719 c 0
 685 716 683 715 681 713 c 2
 672 704 l 1
896 480 m 1
 992 448 l 1
 1728 1024 l 1
 1600 1088 l 1
 832 657 l 1
 832 544 l 1
 672 448 l 1
 681 440 l 2
 683 437 685 436 688 434 c 0
 696 426 702 418 710 410 c 2
 736 384 l 1
 896 480 l 1
1600 64 m 1
 1728 128 l 1
 1208 536 l 1
 1031 398 l 2
 1028 394 1023 393 1018 391 c 1
 1600 64 l 1
EndSplineSet
EndChar

StartChar: copy
Encoding: 61637 61637 186
Width: 1792
Flags: MW
VStem: 0 128<256 896 256 896 256 922.5> 512 128<1024 1323 1323 1323> 640 128<-128 128 128 128 256 512 -128 538.5> 1024 128<1112 1408 1408 1408> 1152 128<640 939 939 939> 1664 128<-128 1024 1024 1024>
LayerCount: 2
Fore
SplineSet
1696 1152 m 2xac
 1749 1152 1792 1109 1792 1056 c 2
 1792 -160 l 2
 1792 -213 1749 -256 1696 -256 c 2
 736 -256 l 2
 683 -256 640 -213 640 -160 c 2
 640 128 l 1xac
 96 128 l 2
 43 128 0 171 0 224 c 2
 0 896 l 2
 0 949 31 1023 68 1060 c 2
 476 1468 l 2
 513 1505 587 1536 640 1536 c 2
 1056 1536 l 2xd4
 1109 1536 1152 1493 1152 1440 c 2
 1152 1112 l 1
 1191 1135 1241 1152 1280 1152 c 2
 1696 1152 l 2xac
1152 939 m 1
 853 640 l 1
 1152 640 l 1xb4
 1152 939 l 1
512 1323 m 1
 213 1024 l 1
 512 1024 l 1
 512 1323 l 1
708 676 m 2
 1024 992 l 1
 1024 1408 l 1
 640 1408 l 1
 640 992 l 2
 640 939 597 896 544 896 c 2
 128 896 l 1
 128 256 l 1
 640 256 l 1
 640 512 l 2
 640 565 671 639 708 676 c 2
1664 -128 m 1xac
 1664 1024 l 1
 1280 1024 l 1
 1280 608 l 2xcc
 1280 555 1237 512 1184 512 c 2
 768 512 l 1
 768 -128 l 1
 1664 -128 l 1xac
EndSplineSet
EndChar

StartChar: paper_clip
Encoding: 61638 61638 187
Width: 1408
Flags: MW
VStem: 4 128<990 1094.5 990 1129> 378 128<823 853.5 823 889> 1277 127<108.5 178.5>
LayerCount: 2
Fore
SplineSet
1404 151 m 0
 1404 -5 1285 -124 1129 -124 c 0
 1041 -124 956 -86 894 -24 c 2
 117 752 l 2
 46 824 4 922 4 1023 c 0
 4 1235 171 1404 383 1404 c 0
 485 1404 583 1363 656 1291 c 2
 1261 685 l 2
 1267 679 1271 671 1271 663 c 0
 1271 642 1215 586 1194 586 c 0
 1185 586 1177 590 1171 596 c 2
 565 1203 l 2
 517 1250 452 1280 384 1280 c 0
 242 1280 132 1165 132 1024 c 0
 132 956 160 891 208 843 c 2
 984 66 l 2
 1022 28 1075 3 1129 3 c 0
 1214 3 1277 66 1277 151 c 0
 1277 206 1252 258 1214 296 c 2
 633 877 l 2
 617 892 595 901 573 901 c 0
 535 901 506 873 506 834 c 0
 506 812 516 791 531 775 c 2
 941 365 l 2
 947 359 951 351 951 343 c 0
 951 322 894 265 873 265 c 0
 865 265 857 269 851 275 c 2
 441 685 l 2
 401 724 378 779 378 834 c 0
 378 944 464 1030 574 1030 c 0
 630 1030 684 1007 723 967 c 2
 1304 386 l 2
 1367 324 1404 239 1404 151 c 0
EndSplineSet
EndChar

StartChar: save
Encoding: 61639 61639 188
Width: 1536
Flags: MW
VStem: 0 128<0 1280 0 1312 0 1338.5> 256 128<0 384> 896 128<928 1248 1248 1256.5> 1152 128<0 384 384 384> 1408 128<0 896>
LayerCount: 2
Fore
SplineSet
384 0 m 1
 1152 0 l 1
 1152 384 l 1
 384 384 l 1
 384 0 l 1
1280 0 m 1
 1408 0 l 1
 1408 896 l 2
 1408 915 1391 956 1378 969 c 2
 1097 1250 l 2
 1083 1264 1044 1280 1024 1280 c 1
 1024 864 l 2
 1024 811 981 768 928 768 c 2
 352 768 l 2
 299 768 256 811 256 864 c 2
 256 1280 l 1
 128 1280 l 1
 128 0 l 1
 256 0 l 1
 256 416 l 2
 256 469 299 512 352 512 c 2
 1184 512 l 2
 1237 512 1280 469 1280 416 c 2
 1280 0 l 1
896 928 m 2
 896 1248 l 2
 896 1265 881 1280 864 1280 c 2
 672 1280 l 2
 655 1280 640 1265 640 1248 c 2
 640 928 l 2
 640 911 655 896 672 896 c 2
 864 896 l 2
 881 896 896 911 896 928 c 2
1536 896 m 2
 1536 -32 l 2
 1536 -85 1493 -128 1440 -128 c 2
 96 -128 l 2
 43 -128 0 -85 0 -32 c 2
 0 1312 l 2
 0 1365 43 1408 96 1408 c 2
 1024 1408 l 2
 1077 1408 1150 1378 1188 1340 c 2
 1468 1060 l 2
 1506 1022 1536 949 1536 896 c 2
EndSplineSet
EndChar

StartChar: sign_blank
Encoding: 61640 61640 189
Width: 1536
Flags: MW
VStem: 0 1536<160 1120 80.5 1199.5>
LayerCount: 2
Fore
SplineSet
1536 1120 m 2
 1536 160 l 2
 1536 1 1407 -128 1248 -128 c 2
 288 -128 l 2
 129 -128 0 1 0 160 c 2
 0 1120 l 2
 0 1279 129 1408 288 1408 c 2
 1248 1408 l 2
 1407 1408 1536 1279 1536 1120 c 2
EndSplineSet
EndChar

StartChar: reorder
Encoding: 61641 61641 190
Width: 1536
Flags: MW
VStem: 0 1536<64 192 46.5 209.5 576 704 46.5 721.5 1088 1216 46.5 1233.5>
LayerCount: 2
Fore
SplineSet
1536 192 m 2
 1536 64 l 2
 1536 29 1507 0 1472 0 c 2
 64 0 l 2
 29 0 0 29 0 64 c 2
 0 192 l 2
 0 227 29 256 64 256 c 2
 1472 256 l 2
 1507 256 1536 227 1536 192 c 2
1536 704 m 2
 1536 576 l 2
 1536 541 1507 512 1472 512 c 2
 64 512 l 2
 29 512 0 541 0 576 c 2
 0 704 l 2
 0 739 29 768 64 768 c 2
 1472 768 l 2
 1507 768 1536 739 1536 704 c 2
1536 1216 m 2
 1536 1088 l 2
 1536 1053 1507 1024 1472 1024 c 2
 64 1024 l 2
 29 1024 0 1053 0 1088 c 2
 0 1216 l 2
 0 1251 29 1280 64 1280 c 2
 1472 1280 l 2
 1507 1280 1536 1251 1536 1216 c 2
EndSplineSet
EndChar

StartChar: ul
Encoding: 61642 61642 191
Width: 1792
Flags: MW
VStem: 0 1792<75 181 587 693 1099 1205>
LayerCount: 2
Fore
SplineSet
384 128 m 0
 384 22 298 -64 192 -64 c 0
 86 -64 0 22 0 128 c 0
 0 234 86 320 192 320 c 0
 298 320 384 234 384 128 c 0
384 640 m 0
 384 534 298 448 192 448 c 0
 86 448 0 534 0 640 c 0
 0 746 86 832 192 832 c 0
 298 832 384 746 384 640 c 0
1792 224 m 2
 1792 32 l 2
 1792 15 1777 0 1760 0 c 2
 544 0 l 2
 527 0 512 15 512 32 c 2
 512 224 l 2
 512 241 527 256 544 256 c 2
 1760 256 l 2
 1777 256 1792 241 1792 224 c 2
384 1152 m 0
 384 1046 298 960 192 960 c 0
 86 960 0 1046 0 1152 c 0
 0 1258 86 1344 192 1344 c 0
 298 1344 384 1258 384 1152 c 0
1792 736 m 2
 1792 544 l 2
 1792 527 1777 512 1760 512 c 2
 544 512 l 2
 527 512 512 527 512 544 c 2
 512 736 l 2
 512 753 527 768 544 768 c 2
 1760 768 l 2
 1777 768 1792 753 1792 736 c 2
1792 1248 m 2
 1792 1056 l 2
 1792 1039 1777 1024 1760 1024 c 2
 544 1024 l 2
 527 1024 512 1039 512 1056 c 2
 512 1248 l 2
 512 1265 527 1280 544 1280 c 2
 1760 1280 l 2
 1777 1280 1792 1265 1792 1248 c 2
EndSplineSet
EndChar

StartChar: ol
Encoding: 61643 61643 192
Width: 1792
Flags: MW
VStem: 32 106<104 157 104 256 104 256> 157 119<1366 1378 1378 1378> 241 130<693 752> 254 127<-110 -62> 278 105<483 543 384 543>
LayerCount: 2
Fore
SplineSet
381 -84 m 0x40
 381 -194 295 -256 191 -256 c 0
 128 -256 64 -235 19 -190 c 1
 76 -102 l 1
 103 -127 144 -147 182 -147 c 0
 217 -147 254 -130 254 -90 c 0
 254 -34 190 -31 149 -34 c 1
 123 22 l 1
 159 68 192 119 235 158 c 1
 235 159 l 1
 203 159 170 157 138 157 c 1x90
 138 104 l 1
 32 104 l 1
 32 256 l 1
 365 256 l 1
 365 168 l 1
 270 53 l 1
 337 37 381 -15 381 -84 c 0x40
383 543 m 1
 383 384 l 1
 21 384 l 1
 18 402 15 420 15 438 c 0
 15 623 241 651 241 735 c 0
 241 769 220 787 187 787 c 0
 152 787 123 757 106 729 c 1
 21 788 l 1
 54 857 122 896 198 896 c 0
 291 896 371 841 371 742 c 0
 371 594 154 561 151 483 c 1
 278 483 l 1x10
 278 543 l 1
 383 543 l 1
1792 224 m 2
 1792 32 l 2
 1792 15 1777 0 1760 0 c 2
 544 0 l 2
 526 0 512 15 512 32 c 2
 512 224 l 2
 512 242 526 256 544 256 c 2
 1760 256 l 2
 1777 256 1792 242 1792 224 c 2
384 1123 m 1
 384 1024 l 1
 49 1024 l 1x20
 49 1123 l 1
 156 1123 l 1
 156 1204 157 1285 157 1366 c 2
 157 1378 l 1
 155 1378 l 1
 144 1356 124 1341 105 1324 c 1
 34 1400 l 1
 170 1527 l 1
 276 1527 l 1x08
 276 1123 l 1x40
 384 1123 l 1
1792 736 m 2
 1792 544 l 2
 1792 527 1777 512 1760 512 c 2
 544 512 l 2
 526 512 512 527 512 544 c 2
 512 736 l 2
 512 754 526 768 544 768 c 2
 1760 768 l 2
 1777 768 1792 754 1792 736 c 2
1792 1248 m 2
 1792 1056 l 2x40
 1792 1039 1777 1024 1760 1024 c 2
 544 1024 l 2
 526 1024 512 1039 512 1056 c 2
 512 1248 l 2
 512 1265 526 1280 544 1280 c 2x08
 1760 1280 l 2
 1777 1280 1792 1265 1792 1248 c 2
EndSplineSet
EndChar

StartChar: strikethrough
Encoding: 61644 61644 193
Width: 1792
Flags: MW
VStem: 0 1792<544 608 535 617>
LayerCount: 2
Fore
SplineSet
1760 640 m 2
 1778 640 1792 626 1792 608 c 2
 1792 544 l 2
 1792 526 1778 512 1760 512 c 2
 32 512 l 2
 14 512 0 526 0 544 c 2
 0 608 l 2
 0 626 14 640 32 640 c 2
 1760 640 l 2
483 704 m 1
 464 728 447 755 432 784 c 0
 400 849 384 912 384 972 c 0
 384 1094 429 1196 518 1281 c 0
 607 1366 738 1408 911 1408 c 0
 949 1408 1004 1401 1078 1389 c 0
 1122 1381 1181 1365 1255 1341 c 1
 1262 1315 1269 1275 1276 1223 c 0
 1285 1144 1290 1083 1290 1040 c 0
 1290 1026 1288 1011 1285 995 c 1
 1273 992 l 1
 1189 998 l 1
 1175 1000 l 1
 1141 1101 1106 1169 1072 1205 c 0
 1013 1266 942 1296 862 1296 c 0
 786 1296 725 1276 680 1237 c 0
 635 1198 613 1149 613 1091 c 0
 613 1042 635 996 679 951 c 0
 723 906 816 863 958 822 c 0
 1006 808 1063 786 1131 756 c 0
 1167 739 1199 722 1226 704 c 1
 483 704 l 1
990 448 m 1
 1401 448 l 1
 1406 420 1408 389 1408 356 c 0
 1408 284 1395 213 1367 144 c 0
 1352 107 1329 73 1296 40 c 0
 1272 17 1236 -10 1187 -41 c 0
 1137 -71 1087 -94 1034 -107 c 0
 981 -121 914 -128 831 -128 c 0
 776 -128 710 -126 636 -105 c 2
 496 -65 l 2
 457 -54 434 -45 424 -37 c 0
 420 -33 416 -26 416 -15 c 2
 416 -2 l 2
 416 6 418 58 414 154 c 0
 412 204 416 239 416 259 c 2
 416 303 l 1
 518 305 l 1
 555 220 572 169 583 151 c 0
 607 112 634 81 663 57 c 0
 692 33 727 14 768 0 c 0
 808 -15 853 -22 900 -22 c 0
 942 -22 989 -13 1039 5 c 0
 1090 22 1131 51 1161 91 c 0
 1192 131 1208 174 1208 220 c 0
 1208 276 1181 328 1127 377 c 0
 1105 396 1059 420 990 448 c 1
EndSplineSet
EndChar

StartChar: underline
Encoding: 61645 61645 194
Width: 1536
Flags: MW
VStem: 212 292<728 1101.5 1094 1101.5 1094 1124> 1242 112 1272 107
LayerCount: 2
Fore
SplineSet
48 1313 m 0xa0
 30 1314 15 1314 3 1317 c 1
 0 1405 l 1
 13 1406 26 1406 40 1406 c 0
 75 1406 113 1405 152 1402 c 0
 246 1397 302 1395 318 1395 c 0
 375 1395 431 1396 486 1398 c 0
 540 1400 589 1402 632 1403 c 0
 674 1403 703 1404 718 1405 c 1
 717 1391 l 1
 719 1327 l 1
 719 1318 l 1
 679 1312 638 1309 595 1309 c 0
 555 1309 529 1301 516 1284 c 0
 507 1274 503 1230 503 1152 c 0
 503 1128 504 1109 504 1094 c 2
 505 865 l 1
 519 585 l 2
 523 504 539 437 570 383 c 0
 593 344 625 313 666 291 c 0
 726 259 785 244 843 244 c 0
 911 244 975 253 1034 272 c 0
 1069 283 1102 299 1133 323 c 0
 1164 346 1186 367 1198 387 c 0
 1224 427 1241 466 1251 501 c 0
 1265 550 1272 626 1272 730 c 0xa0
 1272 909 1259 914 1244 1140 c 2
 1240 1199 l 2
 1237 1242 1230 1272 1216 1287 c 0
 1194 1310 1168 1322 1139 1321 c 2
 1039 1319 l 1
 1025 1322 l 1
 1027 1408 l 1
 1111 1408 l 1
 1316 1398 l 2
 1384 1395 1449 1401 1512 1408 c 1
 1530 1406 l 1
 1534 1381 1536 1364 1536 1355 c 0
 1536 1346 1534 1336 1532 1324 c 1
 1505 1317 1477 1312 1448 1311 c 0
 1401 1304 1374 1299 1369 1294 c 0
 1360 1285 1354 1272 1354 1253 c 0
 1354 1240 1356 1220 1357 1195 c 2xc0
 1357 1195 1365 1177 1379 799 c 0
 1384 648 1374 546 1364 495 c 0
 1354 444 1340 403 1323 373 c 0
 1297 329 1259 288 1211 250 c 0
 1162 213 1102 183 1029 161 c 0
 956 139 871 128 774 128 c 0
 664 128 569 143 490 174 c 0
 411 205 351 246 311 296 c 0
 271 346 243 411 228 491 c 0
 217 546 212 625 212 728 c 2
 212 1061 l 2
 212 1187 206 1258 195 1274 c 0
 179 1297 130 1311 48 1313 c 0xa0
1536 -96 m 2
 1536 -32 l 2
 1536 -14 1522 0 1504 0 c 2
 32 0 l 2
 14 0 0 -14 0 -32 c 2
 0 -96 l 2
 0 -114 14 -128 32 -128 c 2
 1504 -128 l 2
 1522 -128 1536 -114 1536 -96 c 2
EndSplineSet
EndChar

StartChar: table
Encoding: 61646 61646 195
Width: 1664
Flags: MW
VStem: 0 128<160 352 535 544 544 736 919 928 928 1120> 512 128<160 352 544 736 928 1120> 1024 128<160 352 544 736 928 1120> 1536 128<160 352 352 361 544 736 736 745 928 1120 1120 1129>
LayerCount: 2
Fore
SplineSet
512 160 m 2
 512 352 l 2
 512 370 498 384 480 384 c 2
 160 384 l 2
 142 384 128 370 128 352 c 2
 128 160 l 2
 128 142 142 128 160 128 c 2
 480 128 l 2
 498 128 512 142 512 160 c 2
512 544 m 2
 512 736 l 2
 512 754 498 768 480 768 c 2
 160 768 l 2
 142 768 128 754 128 736 c 2
 128 544 l 2
 128 526 142 512 160 512 c 2
 480 512 l 2
 498 512 512 526 512 544 c 2
1024 160 m 2
 1024 352 l 2
 1024 370 1010 384 992 384 c 2
 672 384 l 2
 654 384 640 370 640 352 c 2
 640 160 l 2
 640 142 654 128 672 128 c 2
 992 128 l 2
 1010 128 1024 142 1024 160 c 2
512 928 m 2
 512 1120 l 2
 512 1138 498 1152 480 1152 c 2
 160 1152 l 2
 142 1152 128 1138 128 1120 c 2
 128 928 l 2
 128 910 142 896 160 896 c 2
 480 896 l 2
 498 896 512 910 512 928 c 2
1024 544 m 2
 1024 736 l 2
 1024 754 1010 768 992 768 c 2
 672 768 l 2
 654 768 640 754 640 736 c 2
 640 544 l 2
 640 526 654 512 672 512 c 2
 992 512 l 2
 1010 512 1024 526 1024 544 c 2
1536 160 m 2
 1536 352 l 2
 1536 370 1522 384 1504 384 c 2
 1184 384 l 2
 1166 384 1152 370 1152 352 c 2
 1152 160 l 2
 1152 142 1166 128 1184 128 c 2
 1504 128 l 2
 1522 128 1536 142 1536 160 c 2
1024 928 m 2
 1024 1120 l 2
 1024 1138 1010 1152 992 1152 c 2
 672 1152 l 2
 654 1152 640 1138 640 1120 c 2
 640 928 l 2
 640 910 654 896 672 896 c 2
 992 896 l 2
 1010 896 1024 910 1024 928 c 2
1536 544 m 2
 1536 736 l 2
 1536 754 1522 768 1504 768 c 2
 1184 768 l 2
 1166 768 1152 754 1152 736 c 2
 1152 544 l 2
 1152 526 1166 512 1184 512 c 2
 1504 512 l 2
 1522 512 1536 526 1536 544 c 2
1536 928 m 2
 1536 1120 l 2
 1536 1138 1522 1152 1504 1152 c 2
 1184 1152 l 2
 1166 1152 1152 1138 1152 1120 c 2
 1152 928 l 2
 1152 910 1166 896 1184 896 c 2
 1504 896 l 2
 1522 896 1536 910 1536 928 c 2
1664 1248 m 2
 1664 160 l 2
 1664 72 1592 0 1504 0 c 2
 160 0 l 2
 72 0 0 72 0 160 c 2
 0 1248 l 2
 0 1336 72 1408 160 1408 c 2
 1504 1408 l 2
 1592 1408 1664 1336 1664 1248 c 2
EndSplineSet
EndChar

StartChar: magic
Encoding: 61648 61648 196
Width: 1664
Flags: MW
VStem: 27 1637<151.5 768>
LayerCount: 2
Fore
SplineSet
1190 955 m 1
 1483 1248 l 1
 1376 1355 l 1
 1083 1062 l 1
 1190 955 l 1
1637 1248 m 0
 1637 1231 1631 1215 1619 1203 c 2
 333 -83 l 2
 321 -95 305 -101 288 -101 c 0
 271 -101 255 -95 243 -83 c 2
 45 115 l 2
 33 127 27 143 27 160 c 0
 27 177 33 193 45 205 c 2
 1331 1491 l 2
 1343 1503 1359 1509 1376 1509 c 0
 1393 1509 1409 1503 1421 1491 c 2
 1619 1293 l 2
 1631 1281 1637 1265 1637 1248 c 0
286 1438 m 1
 384 1408 l 1
 286 1378 l 1
 256 1280 l 1
 226 1378 l 1
 128 1408 l 1
 226 1438 l 1
 256 1536 l 1
 286 1438 l 1
636 1276 m 1
 832 1216 l 1
 636 1156 l 1
 576 960 l 1
 516 1156 l 1
 320 1216 l 1
 516 1276 l 1
 576 1472 l 1
 636 1276 l 1
1566 798 m 1
 1664 768 l 1
 1566 738 l 1
 1536 640 l 1
 1506 738 l 1
 1408 768 l 1
 1506 798 l 1
 1536 896 l 1
 1566 798 l 1
926 1438 m 1
 1024 1408 l 1
 926 1378 l 1
 896 1280 l 1
 866 1378 l 1
 768 1408 l 1
 866 1438 l 1
 896 1536 l 1
 926 1438 l 1
EndSplineSet
EndChar

StartChar: truck
Encoding: 61649 61649 197
Width: 1792
Flags: MW
VStem: 128 128 256 128<93 128> 640 128<93 128 57.5 163> 1152 128<93 128> 1536 128<93 128 57.5 163>
LayerCount: 2
Fore
SplineSet
640 128 m 0xb8
 640 198 582 256 512 256 c 0
 442 256 384 198 384 128 c 0
 384 58 442 0 512 0 c 0
 582 0 640 58 640 128 c 0xb8
256 640 m 1
 640 640 l 1x78
 640 896 l 1
 482 896 l 2
 478 896 463 890 460 887 c 2
 265 692 l 2
 262 689 256 674 256 670 c 2
 256 640 l 1
1536 128 m 0
 1536 198 1478 256 1408 256 c 0
 1338 256 1280 198 1280 128 c 0
 1280 58 1338 0 1408 0 c 0
 1478 0 1536 58 1536 128 c 0
1792 1216 m 2
 1792 192 l 2
 1792 118 1714 128 1664 128 c 1
 1664 -13 1549 -128 1408 -128 c 0
 1267 -128 1152 -13 1152 128 c 1
 768 128 l 1
 768 -13 653 -128 512 -128 c 0
 371 -128 256 -13 256 128 c 1
 192 128 l 2
 142 128 64 118 64 192 c 0
 64 227 93 256 128 256 c 1
 128 576 l 2
 128 647 118 726 173 781 c 2xb8
 371 979 l 2
 396 1004 444 1024 480 1024 c 2
 640 1024 l 1
 640 1216 l 2
 640 1251 669 1280 704 1280 c 2
 1728 1280 l 2
 1763 1280 1792 1251 1792 1216 c 2
EndSplineSet
EndChar

StartChar: pinterest
Encoding: 61650 61650 198
Width: 1536
Flags: MW
VStem: 0 249<604 779 604 852> 398 149<653 710 653 748> 799 297<701 767.5> 1284 252<559 823.5>
LayerCount: 2
Fore
SplineSet
1536 640 m 0
 1536 216 1192 -128 768 -128 c 0
 692 -128 620 -117 550 -96 c 1
 579 -50 612 9 628 68 c 2
 628 68 637 102 682 279 c 1
 708 228 786 183 869 183 c 0
 1116 183 1284 408 1284 710 c 0
 1284 937 1091 1150 797 1150 c 0
 433 1150 249 888 249 670 c 0
 249 538 299 420 406 376 c 0
 423 369 439 376 444 396 c 0
 448 409 456 443 460 457 c 0
 465 477 463 483 449 500 c 0
 418 537 398 584 398 651 c 0
 398 845 543 1019 776 1019 c 0
 982 1019 1096 893 1096 724 c 0
 1096 503 998 316 852 316 c 0
 772 316 712 382 731 464 c 0
 754 561 799 666 799 736 c 0
 799 799 765 852 695 852 c 0
 613 852 547 767 547 653 c 1
 547 653 547 580 572 531 c 1
 488 175 473 113 473 113 c 2
 459 55 458 -10 460 -64 c 1
 189 55 0 325 0 640 c 0
 0 1064 344 1408 768 1408 c 0
 1192 1408 1536 1064 1536 640 c 0
EndSplineSet
EndChar

StartChar: pinterest_sign
Encoding: 61651 61651 199
Width: 1536
Flags: MW
VStem: 0 256<612 785 612 1120> 404 148<661 717 661 755> 800 294<708.5 774> 1280 256<568 829.5>
LayerCount: 2
Fore
SplineSet
1248 1408 m 2
 1407 1408 1536 1279 1536 1120 c 2
 1536 160 l 2
 1536 1 1407 -128 1248 -128 c 2
 523 -128 l 1
 556 -81 610 0 631 82 c 2
 631 82 640 116 684 291 c 1
 711 240 788 196 870 196 c 0
 1114 196 1280 419 1280 717 c 0
 1280 942 1089 1152 799 1152 c 0
 438 1152 256 893 256 677 c 0
 256 547 306 431 412 387 c 0
 429 380 445 387 450 406 c 0
 453 419 461 453 465 467 c 0
 470 486 468 493 454 509 c 0
 424 546 404 592 404 659 c 0
 404 851 548 1022 778 1022 c 0
 982 1022 1094 898 1094 731 c 0
 1094 512 997 327 853 327 c 0
 774 327 714 393 733 474 c 0
 756 570 800 674 800 743 c 0
 800 805 767 857 698 857 c 0
 617 857 552 773 552 661 c 1
 552 661 552 589 576 540 c 1
 493 188 478 126 478 126 c 2
 456 34 465 -73 471 -128 c 1
 288 -128 l 2
 129 -128 0 1 0 160 c 2
 0 1120 l 2
 0 1279 129 1408 288 1408 c 2
 1248 1408 l 2
EndSplineSet
EndChar

StartChar: google_plus_sign
Encoding: 61652 61652 200
Width: 1536
Flags: MW
VStem: 0 276<234.5 344.5 234.5 1120> 873 215<847.5 864 512 974> 919 169<280.5 672> 1280 256<672 736 736 736>
LayerCount: 2
Fore
SplineSet
829 318 m 0xb0
 829 208 726 169 631 169 c 0
 528 169 395 214 395 338 c 0
 395 469 548 502 652 502 c 0
 662 502 672 502 683 500 c 1
 744 456 829 404 829 318 c 0xb0
755 863 m 0
 755 787 712 724 630 724 c 0
 516 724 462 874 462 969 c 0
 462 1044 501 1116 586 1116 c 0
 700 1116 755 957 755 863 c 0
861 1120 m 1
 949 1184 l 1
 684 1184 l 2xd0
 519 1184 344 1083 344 901 c 0
 344 775 443 685 567 685 c 0
 581 685 596 686 610 688 c 1
 602 670 597 653 597 634 c 0
 597 596 614 569 637 540 c 1
 551 534 454 523 380 477 c 0
 321 440 276 380 276 309 c 0
 276 160 445 111 566 111 c 0
 720 111 919 189 919 372 c 0
 919 549 723 581 723 664 c 0
 723 745 873 765 873 930 c 0
 873 1018 835 1062 778 1120 c 1
 861 1120 l 1
1152 672 m 1
 1280 672 l 1
 1280 736 l 1
 1152 736 l 1
 1152 864 l 1
 1088 864 l 1
 1088 736 l 1
 960 736 l 1xd0
 960 672 l 1xb0
 1088 672 l 1
 1088 512 l 1
 1152 512 l 1
 1152 672 l 1
1536 1120 m 2
 1536 160 l 2xd0
 1536 1 1407 -128 1248 -128 c 2
 288 -128 l 2
 129 -128 0 1 0 160 c 2
 0 1120 l 2xb0
 0 1279 129 1408 288 1408 c 2
 1248 1408 l 2
 1407 1408 1536 1279 1536 1120 c 2
EndSplineSet
EndChar

StartChar: google_plus
Encoding: 61653 61653 201
Width: 1664
Flags: MW
VStem: 32 186<159 238.5> 138 186<1147 1171> 536 199<674 710> 786 186<1025.5 1129> 902 142<251.5 264.5> 1296 105<512 731 512 731 839 1056>
LayerCount: 2
Fore
SplineSet
735 740 m 0xac
 735 608 1044 564 1044 282 c 0
 1044 221 1026 161 996 109 c 0
 893 -66 678 -128 487 -128 c 0
 337 -128 152 -89 69 51 c 0
 45 90 32 136 32 182 c 0xac
 32 295 102 389 195 447 c 0
 312 520 464 538 599 547 c 1
 564 593 536 634 536 694 c 0
 536 726 545 751 557 779 c 1
 534 777 512 775 489 775 c 0
 294 775 138 917 138 1116 c 0
 138 1226 190 1334 273 1406 c 0
 381 1499 534 1536 673 1536 c 2
 1091 1536 l 1
 953 1448 l 1
 822 1448 l 1
 915 1369 972 1281 972 1155 c 0x74
 972 896 735 867 735 740 c 0xac
589 836 m 0x74
 639 836 698 860 733 896 c 0
 774 940 786 996 786 1055 c 0
 786 1203 699 1454 519 1454 c 0
 463 1454 405 1426 371 1382 c 0
 335 1337 324 1278 324 1222 c 0
 324 1072 409 836 589 836 c 0x74
591 -37 m 0xac
 739 -37 902 25 902 197 c 0
 902 332 768 414 671 484 c 1
 655 486 639 486 623 486 c 0
 460 486 218 434 218 228 c 0
 218 33 429 -37 591 -37 c 0xac
1401 839 m 1
 1614 839 l 1
 1614 731 l 1
 1401 731 l 1
 1401 512 l 1
 1296 512 l 1
 1296 731 l 1
 1084 731 l 1
 1084 839 l 1
 1296 839 l 1
 1296 1056 l 1
 1401 1056 l 1
 1401 839 l 1
EndSplineSet
EndChar

StartChar: money
Encoding: 61654 61654 202
Width: 1920
Flags: MW
VStem: 0 128<384 896 384 1216> 640 128 839 57<711 711> 1024 256<549 731 549 928 549 928> 1792 128<384 896 896 896>
LayerCount: 2
Fore
SplineSet
768 384 m 1
 1152 384 l 1
 1152 480 l 1
 1024 480 l 1
 1024 928 l 1
 910 928 l 1
 762 791 l 1
 839 711 l 1
 863 732 878 743 894 768 c 1
 896 768 l 1
 896 480 l 1
 768 480 l 1
 768 384 l 1
1280 640 m 0
 1280 458 1170 224 960 224 c 0
 750 224 640 458 640 640 c 0
 640 822 750 1056 960 1056 c 0
 1170 1056 1280 822 1280 640 c 0
1792 384 m 1
 1792 896 l 1
 1651 896 1536 1011 1536 1152 c 1
 384 1152 l 1
 384 1011 269 896 128 896 c 1
 128 384 l 1
 269 384 384 269 384 128 c 1
 1536 128 l 1
 1536 269 1651 384 1792 384 c 1
1920 1216 m 2
 1920 64 l 2
 1920 29 1891 0 1856 0 c 2
 64 0 l 2
 29 0 0 29 0 64 c 2
 0 1216 l 2
 0 1251 29 1280 64 1280 c 2
 1856 1280 l 2
 1891 1280 1920 1251 1920 1216 c 2
EndSplineSet
EndChar

StartChar: caret_down
Encoding: 61655 61655 203
Width: 1024
Flags: MW
VStem: 0 1024<823.5 849.5>
LayerCount: 2
Fore
SplineSet
1024 832 m 0
 1024 815 1017 799 1005 787 c 2
 557 339 l 2
 545 327 529 320 512 320 c 0
 495 320 479 327 467 339 c 2
 19 787 l 2
 7 799 0 815 0 832 c 0
 0 867 29 896 64 896 c 2
 960 896 l 2
 995 896 1024 867 1024 832 c 0
EndSplineSet
EndChar

StartChar: caret_up
Encoding: 61656 61656 204
Width: 1024
Flags: MW
VStem: 0 1024<302.5 328.5>
LayerCount: 2
Fore
SplineSet
1024 320 m 0
 1024 285 995 256 960 256 c 2
 64 256 l 2
 29 256 0 285 0 320 c 0
 0 337 7 353 19 365 c 2
 467 813 l 2
 479 825 495 832 512 832 c 0
 529 832 545 825 557 813 c 2
 1005 365 l 2
 1017 353 1024 337 1024 320 c 0
EndSplineSet
EndChar

StartChar: caret_left
Encoding: 61657 61657 205
Width: 640
Flags: MW
VStem: 64 576<631.5 648.5>
LayerCount: 2
Fore
SplineSet
640 1088 m 2
 640 192 l 2
 640 157 611 128 576 128 c 0
 559 128 543 135 531 147 c 2
 83 595 l 2
 71 607 64 623 64 640 c 0
 64 657 71 673 83 685 c 2
 531 1133 l 2
 543 1145 559 1152 576 1152 c 0
 611 1152 640 1123 640 1088 c 2
EndSplineSet
EndChar

StartChar: caret_right
Encoding: 61658 61658 206
Width: 640
Flags: MW
VStem: 0 576<631.5 648.5 631.5 1088 631.5 1105.5>
LayerCount: 2
Fore
SplineSet
576 640 m 0
 576 623 569 607 557 595 c 2
 109 147 l 2
 97 135 81 128 64 128 c 0
 29 128 0 157 0 192 c 2
 0 1088 l 2
 0 1123 29 1152 64 1152 c 0
 81 1152 97 1145 109 1133 c 2
 557 685 l 2
 569 673 576 657 576 640 c 0
EndSplineSet
EndChar

StartChar: columns
Encoding: 61659 61659 207
Width: 1664
Flags: MW
VStem: 0 128<32 1152> 768 128<0 1152 0 1152> 1536 128<32 1152 1152 1152>
CounterMasks: 1 e0
LayerCount: 2
Fore
SplineSet
160 0 m 2
 768 0 l 1
 768 1152 l 1
 128 1152 l 1
 128 32 l 2
 128 15 143 0 160 0 c 2
1536 32 m 2
 1536 1152 l 1
 896 1152 l 1
 896 0 l 1
 1504 0 l 2
 1521 0 1536 15 1536 32 c 2
1664 1248 m 2
 1664 32 l 2
 1664 -56 1592 -128 1504 -128 c 2
 160 -128 l 2
 72 -128 0 -56 0 32 c 2
 0 1248 l 2
 0 1336 72 1408 160 1408 c 2
 1504 1408 l 2
 1592 1408 1664 1336 1664 1248 c 2
EndSplineSet
EndChar

StartChar: sort
Encoding: 61660 61660 208
Width: 1024
Flags: MW
VStem: 0 1024<439.5 465.5 814.5 840.5>
LayerCount: 2
Fore
SplineSet
1024 448 m 0
 1024 431 1017 415 1005 403 c 2
 557 -45 l 2
 545 -57 529 -64 512 -64 c 0
 495 -64 479 -57 467 -45 c 2
 19 403 l 2
 7 415 0 431 0 448 c 0
 0 483 29 512 64 512 c 2
 960 512 l 2
 995 512 1024 483 1024 448 c 0
1024 832 m 0
 1024 797 995 768 960 768 c 2
 64 768 l 2
 29 768 0 797 0 832 c 0
 0 849 7 865 19 877 c 2
 467 1325 l 2
 479 1337 495 1344 512 1344 c 0
 529 1344 545 1337 557 1325 c 2
 1005 877 l 2
 1017 865 1024 849 1024 832 c 0
EndSplineSet
EndChar

StartChar: sort_down
Encoding: 61661 61661 209
Width: 1024
Flags: MW
VStem: 0 1024<439.5 465.5>
LayerCount: 2
Fore
SplineSet
1024 448 m 0
 1024 431 1017 415 1005 403 c 2
 557 -45 l 2
 545 -57 529 -64 512 -64 c 0
 495 -64 479 -57 467 -45 c 2
 19 403 l 2
 7 415 0 431 0 448 c 0
 0 483 29 512 64 512 c 2
 960 512 l 2
 995 512 1024 483 1024 448 c 0
EndSplineSet
EndChar

StartChar: sort_up
Encoding: 61662 61662 210
Width: 1024
Flags: MW
VStem: 0 1024<814.5 840.5>
LayerCount: 2
Fore
SplineSet
1024 832 m 0
 1024 797 995 768 960 768 c 2
 64 768 l 2
 29 768 0 797 0 832 c 0
 0 849 7 865 19 877 c 2
 467 1325 l 2
 479 1337 495 1344 512 1344 c 0
 529 1344 545 1337 557 1325 c 2
 1005 877 l 2
 1017 865 1024 849 1024 832 c 0
EndSplineSet
EndChar

StartChar: envelope_alt
Encoding: 61664 61664 211
Width: 1792
Flags: MW
VStem: 0 1792<32 826 -12 826 1064 1147>
LayerCount: 2
Fore
SplineSet
1792 826 m 1
 1792 32 l 2
 1792 -56 1720 -128 1632 -128 c 2
 160 -128 l 2
 72 -128 0 -56 0 32 c 2
 0 826 l 1
 30 793 64 764 101 739 c 0
 267 626 435 513 598 394 c 0
 682 332 786 256 895 256 c 2
 896 256 l 1
 897 256 l 2
 1006 256 1110 332 1194 394 c 0
 1357 512 1525 626 1692 739 c 0
 1728 764 1762 793 1792 826 c 1
1792 1120 m 0
 1792 1008 1709 907 1621 846 c 0
 1465 738 1308 630 1153 521 c 0
 1088 476 978 384 897 384 c 2
 896 384 l 1
 895 384 l 2
 814 384 704 476 639 521 c 0
 484 630 327 738 172 846 c 0
 101 894 0 1007 0 1098 c 0
 0 1196 53 1280 160 1280 c 2
 1632 1280 l 2
 1719 1280 1792 1208 1792 1120 c 0
EndSplineSet
EndChar

StartChar: linkedin
Encoding: 61665 61665 212
Width: 1536
Flags: MW
VStem: 19 330<-80 911 -80 911> 1207 329<-80 450 450 488 -80 516.5>
LayerCount: 2
Fore
SplineSet
349 911 m 1
 349 -80 l 1
 19 -80 l 1
 19 911 l 1
 349 911 l 1
370 1217 m 0
 371 1122 299 1046 184 1046 c 1
 184 1046 l 1
 182 1046 l 2
 71 1046 0 1122 0 1217 c 0
 0 1314 74 1388 186 1388 c 0xc0
 299 1388 369 1314 370 1217 c 0
1536 488 m 2
 1536 -80 l 1
 1207 -80 l 1
 1207 450 l 2
 1207 583 1159 674 1040 674 c 0
 949 674 895 613 871 554 c 0
 863 532 860 503 860 473 c 2
 860 -80 l 1
 531 -80 l 1
 531 -80 l 1
 535 818 531 911 531 911 c 1
 860 911 l 1
 860 767 l 1
 858 767 l 1
 901 835 979 934 1157 934 c 0
 1374 934 1536 792 1536 488 c 2
EndSplineSet
EndChar

StartChar: undo
Encoding: 61666 61666 213
Width: 1536
Flags: MW
VStem: 1280 256<499 781>
LayerCount: 2
Fore
SplineSet
1536 640 m 0
 1536 217 1191 -128 768 -128 c 0
 539 -128 323 -27 177 149 c 0
 167 162 168 181 179 192 c 2
 316 330 l 2
 323 336 332 339 341 339 c 0
 350 338 359 334 364 327 c 0
 462 200 609 128 768 128 c 0
 1050 128 1280 358 1280 640 c 0
 1280 922 1050 1152 768 1152 c 0
 637 1152 513 1102 420 1015 c 1
 557 877 l 2
 576 859 581 831 571 808 c 0
 561 784 538 768 512 768 c 2
 64 768 l 2
 29 768 0 797 0 832 c 2
 0 1280 l 2
 0 1306 16 1329 40 1339 c 0
 63 1349 91 1344 109 1325 c 2
 239 1196 l 1
 380 1329 571 1408 768 1408 c 0
 1191 1408 1536 1063 1536 640 c 0
EndSplineSet
EndChar

StartChar: legal
Encoding: 61667 61667 214
Width: 1792
Flags: MW
VStem: 40 1731<-17 763>
LayerCount: 2
Fore
SplineSet
1771 0 m 0
 1771 -34 1757 -67 1734 -90 c 2
 1627 -198 l 2
 1603 -221 1570 -235 1536 -235 c 0
 1502 -235 1469 -221 1446 -198 c 2
 1083 166 l 2
 1059 189 1045 222 1045 256 c 0
 1045 294 1061 325 1088 352 c 1
 832 608 l 1
 706 482 l 2
 697 473 685 468 672 468 c 0
 659 468 647 473 638 482 c 1
 668 452 696 430 696 384 c 0
 696 358 686 335 668 316 c 0
 634 280 598 232 544 232 c 0
 519 232 494 242 476 260 c 2
 68 668 l 2
 50 686 40 711 40 736 c 0
 40 790 88 826 124 860 c 0
 143 878 166 888 192 888 c 0
 238 888 260 860 290 830 c 1
 281 839 276 851 276 864 c 0
 276 877 281 889 290 898 c 2
 638 1246 l 2
 647 1255 659 1260 672 1260 c 0
 685 1260 697 1255 706 1246 c 1
 676 1276 648 1298 648 1344 c 0
 648 1370 658 1393 676 1412 c 0
 710 1448 746 1496 800 1496 c 0
 825 1496 850 1486 868 1468 c 2
 1276 1060 l 2
 1294 1042 1304 1017 1304 992 c 0
 1304 938 1256 902 1220 868 c 0
 1201 850 1178 840 1152 840 c 0
 1106 840 1084 868 1054 898 c 1
 1063 889 1068 877 1068 864 c 0
 1068 851 1063 839 1054 830 c 2
 928 704 l 1
 1184 448 l 1
 1211 475 1242 491 1280 491 c 0
 1314 491 1347 477 1371 454 c 2
 1734 91 l 2
 1757 67 1771 34 1771 0 c 0
EndSplineSet
EndChar

StartChar: dashboard
Encoding: 61668 61668 215
Width: 1792
Flags: MW
VStem: 0 128<348.5 419.5 348.5 631> 1664 128<348.5 419.5>
LayerCount: 2
Fore
SplineSet
384 384 m 0
 384 455 327 512 256 512 c 0
 185 512 128 455 128 384 c 0
 128 313 185 256 256 256 c 0
 327 256 384 313 384 384 c 0
576 832 m 0
 576 903 519 960 448 960 c 0
 377 960 320 903 320 832 c 0
 320 761 377 704 448 704 c 0
 519 704 576 761 576 832 c 0
1004 351 m 1
 1105 733 l 2
 1113 767 1093 802 1059 811 c 1
 1059 811 l 1
 1025 820 990 799 981 765 c 2
 880 383 l 1
 801 377 732 322 710 241 c 0
 683 138 745 33 847 6 c 0
 950 -21 1055 41 1082 143 c 0
 1103 224 1069 306 1004 351 c 1
1664 384 m 0
 1664 455 1607 512 1536 512 c 0
 1465 512 1408 455 1408 384 c 0
 1408 313 1465 256 1536 256 c 0
 1607 256 1664 313 1664 384 c 0
1024 1024 m 0
 1024 1095 967 1152 896 1152 c 0
 825 1152 768 1095 768 1024 c 0
 768 953 825 896 896 896 c 0
 967 896 1024 953 1024 1024 c 0
1472 832 m 0
 1472 903 1415 960 1344 960 c 0
 1273 960 1216 903 1216 832 c 0
 1216 761 1273 704 1344 704 c 0
 1415 704 1472 761 1472 832 c 0
1792 384 m 0
 1792 212 1743 46 1651 -99 c 0
 1639 -117 1619 -128 1597 -128 c 2
 195 -128 l 2
 173 -128 153 -117 141 -99 c 0
 49 45 0 212 0 384 c 0
 0 878 402 1280 896 1280 c 0
 1390 1280 1792 878 1792 384 c 0
EndSplineSet
EndChar

StartChar: comment_alt
Encoding: 61669 61669 216
Width: 1792
Flags: MW
VStem: 0 128<565.5 779 565.5 817> 1664 128<501 779>
LayerCount: 2
Fore
SplineSet
896 1152 m 0
 480 1152 128 918 128 640 c 0
 128 491 228 349 401 251 c 2
 488 201 l 1
 461 105 l 2
 442 34 417 -21 391 -67 c 1
 492 -25 584 32 666 104 c 2
 709 142 l 1
 766 136 l 2
 809 131 853 128 896 128 c 0
 1312 128 1664 362 1664 640 c 0
 1664 918 1312 1152 896 1152 c 0
1792 640 m 0
 1792 286 1391 0 896 0 c 0
 847 0 798 3 751 8 c 1
 620 -108 464 -190 291 -234 c 0
 255 -244 216 -251 177 -256 c 0
 175 -256 173 -256 172 -256 c 0
 152 -256 134 -240 129 -218 c 0
 129 -217 129 -217 129 -217 c 1
 124 -192 141 -177 156 -159 c 0
 219 -88 291 -28 338 139 c 1
 132 256 0 437 0 640 c 0
 0 994 401 1280 896 1280 c 1
 896 1280 l 1
 1391 1280 1792 994 1792 640 c 0
EndSplineSet
EndChar

StartChar: comments_alt
Encoding: 61670 61670 217
Width: 1792
Flags: MW
VStem: 0 128<713 872 713 909.5> 1280 128<664 872>
LayerCount: 2
Fore
SplineSet
704 1152 m 0
 392 1152 128 976 128 768 c 0
 128 658 202 552 330 478 c 2
 427 422 l 1
 392 338 l 1
 413 350 434 363 454 377 c 2
 498 408 l 1
 551 398 l 2
 601 389 652 384 704 384 c 0
 1016 384 1280 560 1280 768 c 0
 1280 976 1016 1152 704 1152 c 0
704 1280 m 0
 1093 1280 1408 1051 1408 768 c 0
 1408 485 1093 256 704 256 c 0
 643 256 584 262 528 272 c 1
 445 213 351 170 250 144 c 0
 223 137 194 132 164 128 c 0
 163 128 162 128 161 128 c 0
 146 128 132 140 129 157 c 1
 129 157 129 157 129 157 c 1
 125 176 138 188 149 201 c 0
 188 245 232 284 266 367 c 1
 104 461 0 606 0 768 c 0
 0 1051 315 1280 704 1280 c 0
1526 111 m 1
 1560 28 1604 -11 1643 -55 c 0
 1654 -68 1667 -80 1663 -99 c 1
 1663 -99 1663 -99 1663 -99 c 1
 1659 -117 1644 -130 1628 -128 c 0
 1598 -124 1569 -119 1542 -112 c 0
 1441 -86 1347 -43 1264 16 c 1
 1208 6 1149 0 1088 0 c 0
 907 0 741 50 616 132 c 1
 645 130 675 128 704 128 c 0
 919 128 1122 190 1277 302 c 0
 1444 424 1536 589 1536 768 c 0
 1536 820 1528 871 1513 920 c 1
 1682 827 1792 679 1792 512 c 0
 1792 349 1688 205 1526 111 c 1
EndSplineSet
EndChar

StartChar: bolt
Encoding: 61671 61671 218
Width: 896
Flags: MW
VStem: 0 895
LayerCount: 2
Fore
SplineSet
885 970 m 0
 896 958 899 941 892 926 c 2
 352 -231 l 2
 344 -246 328 -256 310 -256 c 0
 306 -256 301 -255 296 -254 c 0
 274 -247 261 -226 266 -205 c 2
 463 603 l 1
 57 502 l 2
 53 501 49 501 45 501 c 0
 34 501 22 505 14 512 c 0
 2 522 -2 537 1 551 c 2
 202 1376 l 2
 207 1395 225 1408 246 1408 c 2
 574 1408 l 1
 574 1408 l 1
 599 1408 619 1389 619 1366 c 0
 619 1360 617 1354 614 1348 c 2
 443 885 l 1
 839 983 l 2
 843 984 847 985 851 985 c 0
 864 985 876 979 885 970 c 0
EndSplineSet
EndChar

